<svg width="186" height="61" viewBox="0 0 186 61" fill="none" xmlns="http://www.w3.org/2000/svg">
<path d="M15.4614 37.3806L19.0264 33.8995V18.9443L15.4614 22.4953V37.3806Z" fill="white"/>
<path d="M24.6553 28.4031L21.2779 31.7009V16.7016L24.6553 13.3375V28.4031Z" fill="white"/>
<path d="M26.9068 26.2045V11.0948L30.2841 7.73071V22.9066L26.9068 26.2045Z" fill="white"/>
<path d="M32.5357 22.9109V7.73513L35.913 11.1125V26.2218L32.5357 22.9109Z" fill="white"/>
<path d="M38.1646 28.429V13.364L41.5419 16.7413V31.7399L38.1646 28.429Z" fill="white"/>
<path d="M43.7935 33.9471V18.9929L47.2959 22.4953V37.3806L43.7935 33.9471Z" fill="white"/>
<path d="M43.856 35.7649L44.3508 36.2552L46.8571 38.7565L46.8661 38.7475L46.8666 38.748L43.856 41.7586V35.7649Z" fill="white"/>
<path d="M22.3406 32.4536L21.3405 33.4518V44.0499L24.7178 47.4139V32.3484L23.5711 31.2287L22.3406 32.4536Z" fill="white"/>
<path d="M18.9638 35.8237L16.0258 38.756L18.9638 41.6825V35.8237Z" fill="white"/>
<path d="M30.3467 37.8448V53.0208L26.9694 49.6567V34.547L30.3467 37.8448Z" fill="white"/>
<path d="M32.5982 37.8383L35.9756 34.5208V49.639L32.5982 53.0163V37.8383Z" fill="white"/>
<path d="M38.2271 47.3875V32.3091L39.3025 31.2528L41.4794 33.4099V44.1352L38.2271 47.3875Z" fill="white"/>
<path d="M166.052 40.4466C165.938 40.0305 165.853 39.5861 165.797 39.1133C165.759 38.6405 165.74 38.092 165.74 37.4679H165.626V30.631C165.626 30.0447 165.428 29.5908 165.031 29.2693C164.652 28.9289 164.085 28.7587 163.328 28.7587C162.61 28.7587 162.033 28.8816 161.598 29.1275C161.182 29.3733 160.908 29.7327 160.775 30.2055H156.719C156.908 28.9005 157.579 27.8225 158.733 26.9714C159.886 26.1204 161.466 25.6948 163.47 25.6948C165.551 25.6948 167.139 26.1582 168.236 27.0849C169.333 28.0116 169.882 29.3449 169.882 31.0849V37.4679C169.882 37.9407 169.91 38.423 169.967 38.9147C170.042 39.3875 170.156 39.8982 170.307 40.4466H166.052ZM161.002 40.7303C159.565 40.7303 158.421 40.371 157.57 39.6523C156.719 38.9147 156.293 37.9407 156.293 36.7303C156.293 35.3875 156.794 34.3095 157.797 33.4963C158.818 32.6641 160.236 32.1251 162.052 31.8792L166.279 31.2835V33.7516L162.761 34.2906C162.005 34.4041 161.447 34.6121 161.087 34.9147C160.728 35.2173 160.548 35.6334 160.548 36.1629C160.548 36.6357 160.719 36.9951 161.059 37.2409C161.399 37.4868 161.853 37.6097 162.421 37.6097C163.31 37.6097 164.066 37.3733 164.69 36.9005C165.314 36.4088 165.626 35.8414 165.626 35.1984L166.023 37.4679C165.607 38.5459 164.974 39.3592 164.123 39.9076C163.272 40.4561 162.232 40.7303 161.002 40.7303Z" fill="white"/>
<path d="M146.168 40.4466V25.9785H150.339V29.3828H150.424V40.4466H146.168ZM150.424 32.9005L150.055 29.4679C150.395 28.2386 150.953 27.3024 151.729 26.6594C152.504 26.0163 153.469 25.6948 154.622 25.6948C154.982 25.6948 155.246 25.7326 155.417 25.8083V29.7799C155.322 29.7421 155.19 29.7232 155.02 29.7232C154.849 29.7043 154.641 29.6948 154.395 29.6948C153.034 29.6948 152.031 29.9407 151.388 30.4324C150.745 30.9052 150.424 31.7279 150.424 32.9005Z" fill="white"/>
<path d="M136.687 40.7303C135.08 40.7303 133.68 40.4183 132.489 39.7941C131.297 39.1511 130.371 38.2622 129.709 37.1275C129.066 35.9927 128.744 34.6877 128.744 33.2126C128.744 31.7185 129.066 30.4135 129.709 29.2977C130.371 28.1629 131.288 27.2835 132.46 26.6594C133.633 26.0163 134.995 25.6948 136.546 25.6948C138.04 25.6948 139.335 25.9974 140.432 26.6026C141.529 27.2078 142.38 28.0494 142.985 29.1275C143.59 30.2055 143.893 31.4726 143.893 32.9289C143.893 33.2315 143.884 33.5152 143.865 33.7799C143.846 34.0258 143.817 34.2622 143.78 34.4892H131.241V31.6807H140.347L139.609 32.1913C139.609 31.0187 139.326 30.1582 138.758 29.6097C138.21 29.0423 137.453 28.7587 136.489 28.7587C135.373 28.7587 134.503 29.1369 133.879 29.8934C133.274 30.6499 132.971 31.7847 132.971 33.2977C132.971 34.7729 133.274 35.8698 133.879 36.5885C134.503 37.3071 135.43 37.6665 136.659 37.6665C137.34 37.6665 137.926 37.553 138.418 37.326C138.91 37.0991 139.278 36.7303 139.524 36.2197H143.524C143.051 37.6192 142.238 38.7256 141.085 39.5388C139.95 40.3331 138.484 40.7303 136.687 40.7303Z" fill="white"/>
<path d="M122.232 40.4466V20.021H126.488V40.4466H122.232Z" fill="white"/>
<path d="M112.751 40.7303C111.143 40.7303 109.744 40.4183 108.552 39.7941C107.361 39.1511 106.434 38.2622 105.772 37.1275C105.129 35.9927 104.808 34.6877 104.808 33.2126C104.808 31.7185 105.129 30.4135 105.772 29.2977C106.434 28.1629 107.351 27.2835 108.524 26.6594C109.697 26.0163 111.058 25.6948 112.609 25.6948C114.103 25.6948 115.399 25.9974 116.496 26.6026C117.593 27.2078 118.444 28.0494 119.049 29.1275C119.654 30.2055 119.957 31.4726 119.957 32.9289C119.957 33.2315 119.947 33.5152 119.928 33.7799C119.909 34.0258 119.881 34.2622 119.843 34.4892H107.304V31.6807H116.41L115.673 32.1913C115.673 31.0187 115.389 30.1582 114.822 29.6097C114.273 29.0423 113.517 28.7587 112.552 28.7587C111.436 28.7587 110.566 29.1369 109.942 29.8934C109.337 30.6499 109.035 31.7847 109.035 33.2977C109.035 34.7729 109.337 35.8698 109.942 36.5885C110.566 37.3071 111.493 37.6665 112.723 37.6665C113.403 37.6665 113.99 37.553 114.481 37.326C114.973 37.0991 115.342 36.7303 115.588 36.2197H119.588C119.115 37.6192 118.302 38.7256 117.148 39.5388C116.013 40.3331 114.548 40.7303 112.751 40.7303Z" fill="white"/>
<path d="M96.6489 40.7303C95.1359 40.7303 93.8026 40.4088 92.6489 39.7658C91.4952 39.1227 90.5874 38.2339 89.9255 37.0991C89.2824 35.9643 88.9609 34.6688 88.9609 33.2126C88.9609 31.7563 89.2824 30.4608 89.9255 29.326C90.5874 28.1913 91.4952 27.3024 92.6489 26.6594C93.8026 26.0163 95.1359 25.6948 96.6489 25.6948C97.916 25.6948 99.0508 25.9312 100.053 26.404C101.074 26.8579 101.907 27.4915 102.55 28.3048C103.212 29.118 103.637 30.0731 103.826 31.17H99.7127C99.5047 30.4702 99.1264 29.9407 98.578 29.5814C98.0484 29.222 97.4243 29.0423 96.7056 29.0423C96.0248 29.0423 95.429 29.2126 94.9184 29.553C94.4267 29.8934 94.0484 30.3757 93.7836 30.9998C93.5189 31.6239 93.3865 32.3615 93.3865 33.2126C93.3865 34.0636 93.5189 34.8012 93.7836 35.4253C94.0484 36.0495 94.4267 36.5317 94.9184 36.8721C95.429 37.2126 96.0248 37.3828 96.7056 37.3828C97.4243 37.3828 98.0484 37.2031 98.578 36.8438C99.1264 36.4844 99.5047 35.9549 99.7127 35.2551H103.826C103.637 36.3521 103.212 37.3071 102.55 38.1204C101.907 38.9336 101.074 39.5766 100.053 40.0495C99.0508 40.5034 97.916 40.7303 96.6489 40.7303Z" fill="white"/>
<path d="M80.8022 40.7303C79.2892 40.7303 77.9559 40.4088 76.8022 39.7658C75.6485 39.1227 74.7407 38.2339 74.0788 37.0991C73.4358 35.9643 73.1143 34.6688 73.1143 33.2126C73.1143 31.7563 73.4358 30.4608 74.0788 29.326C74.7407 28.1913 75.6485 27.3024 76.8022 26.6594C77.9559 26.0163 79.2892 25.6948 80.8022 25.6948C82.0694 25.6948 83.2041 25.9312 84.2065 26.404C85.2278 26.8579 86.0599 27.4915 86.7029 28.3048C87.3649 29.118 87.7904 30.0731 87.9795 31.17H83.866C83.658 30.4702 83.2798 29.9407 82.7313 29.5814C82.2017 29.222 81.5776 29.0423 80.859 29.0423C80.1781 29.0423 79.5824 29.2126 79.0717 29.553C78.58 29.8934 78.2017 30.3757 77.937 30.9998C77.6722 31.6239 77.5398 32.3615 77.5398 33.2126C77.5398 34.0636 77.6722 34.8012 77.937 35.4253C78.2017 36.0495 78.58 36.5317 79.0717 36.8721C79.5824 37.2126 80.1781 37.3828 80.859 37.3828C81.5776 37.3828 82.2017 37.2031 82.7313 36.8438C83.2798 36.4844 83.658 35.9549 83.866 35.2551H87.9795C87.7904 36.3521 87.3649 37.3071 86.7029 38.1204C86.0599 38.9336 85.2278 39.5766 84.2065 40.0495C83.2041 40.5034 82.0694 40.7303 80.8022 40.7303Z" fill="white"/>
<path d="M53.2534 40.4466L60.5726 20.021H64.3173L57.5939 40.4466H53.2534ZM68.2322 40.4466L61.5371 20.021H65.452L72.7712 40.4466H68.2322ZM57.1116 32.5317H68.5726V35.9359H57.1116V32.5317Z" fill="white"/>
</svg>
