<svg width="190" height="56" viewBox="0 0 190 56" fill="none" xmlns="http://www.w3.org/2000/svg">
<path d="M149.192 40.7167V17.6562H154.417L170.737 34.2339V17.6562H175.897V40.7167H170.672L154.353 24.1067V40.7167H149.192Z" fill="white"/>
<path d="M129.594 17.4951C133.851 17.4952 137.109 18.4839 139.366 20.4619C141.624 22.4185 142.753 25.3214 142.753 29.1699C142.753 33.0401 141.624 35.9652 139.366 37.9434C137.109 39.8998 133.904 40.8779 129.755 40.8779H123.562C119.456 40.8779 116.273 39.8999 114.016 37.9434C111.758 35.9652 110.629 33.0401 110.629 29.1699C110.629 25.3215 111.758 22.4185 114.016 20.4619C116.273 18.4839 119.531 17.4952 123.788 17.4951H129.594ZM124.717 21.1494C121.809 21.1494 119.583 21.8233 118.041 23.1709C116.499 24.504 115.728 26.4823 115.728 29.1045C115.728 31.7416 116.499 33.7351 118.041 35.083C119.583 36.4161 121.757 37.082 124.562 37.082H128.793C131.627 37.082 133.816 36.416 135.358 35.083C136.901 33.7351 137.672 31.7416 137.672 29.1045C137.672 26.4823 136.901 24.504 135.358 23.1709C133.816 21.8233 131.591 21.1494 128.683 21.1494H124.717Z" fill="white"/>
<path d="M65.8335 40.6908V17.6304H85.1526C87.5393 17.6304 89.3884 18.2324 90.7 19.4365C92.0331 20.6406 92.6997 22.4682 92.6997 24.9194C92.6997 27.005 92.2159 28.6392 91.2483 29.8217C90.2808 31.0043 88.9047 31.7461 87.12 32.0472L92.4417 40.6908H86.5717L81.6371 32.2084H70.9939V40.6908H65.8335ZM84.5398 21.8232H70.9939V27.9834L84.5398 28.0156C85.4859 28.0156 86.2062 27.7791 86.7008 27.3061C87.2168 26.833 87.4748 26.0375 87.4748 24.9194C87.4748 23.7798 87.2168 22.9843 86.7008 22.5327C86.2062 22.0597 85.4859 21.8232 84.5398 21.8232Z" fill="white"/>
<path d="M99.2217 40.5555V17.4951H104.382V40.5555H99.2217Z" fill="white"/>
<path d="M42.0358 40.852C39.6921 40.852 37.843 40.551 36.4884 39.949C35.1338 39.3254 34.1662 38.3901 33.5857 37.143C33.0051 35.8959 32.7148 34.3263 32.7148 32.4342V17.6304H37.8752V32.4342C37.8752 34.0683 38.2515 35.1864 39.004 35.7884C39.7781 36.369 41.0789 36.6592 42.9066 36.6592H49.1313C50.9589 36.6592 52.249 36.369 53.0016 35.7884C53.7756 35.1864 54.1626 34.0683 54.1626 32.4342V17.6304H59.323V32.4342C59.323 34.3263 59.0327 35.8959 58.4522 37.143C57.8717 38.3901 56.9041 39.3254 55.5495 39.949C54.1949 40.551 52.3458 40.852 50.0021 40.852H42.0358Z" fill="white"/>
<path d="M0 40.6908L10.3852 17.6304H18.3516L28.7368 40.6908H23.1249L20.9318 35.8207H7.80506L5.61191 40.6908H0ZM9.6757 31.6279H19.0611L14.5781 21.6619H14.1588L9.6757 31.6279Z" fill="white"/>
<path d="M184.24 14.3984C185.764 14.3984 187 15.634 187 17.1583C187 18.6826 185.764 19.9182 184.24 19.9182C182.716 19.9182 181.48 18.6826 181.48 17.1583C181.48 15.634 182.716 14.3984 184.24 14.3984ZM184.24 14.9504C183.654 14.9504 183.093 15.183 182.679 15.5971C182.265 16.0112 182.032 16.5728 182.032 17.1583C182.032 17.7439 182.265 18.3055 182.679 18.7196C183.093 19.1336 183.654 19.3663 184.24 19.3663C184.825 19.3663 185.387 19.1336 185.801 18.7196C186.215 18.3055 186.448 17.7439 186.448 17.1583C186.448 16.5728 186.215 16.0112 185.801 15.5971C185.387 15.183 184.825 14.9504 184.24 14.9504ZM184.378 15.7784C184.589 15.7783 184.794 15.8472 184.962 15.9745C185.13 16.1019 185.251 16.2806 185.308 16.4835C185.365 16.6865 185.354 16.9024 185.277 17.0985C185.199 17.2946 185.06 17.46 184.88 17.5696L185.583 18.5383H184.901L184.299 17.7103H183.688V18.5383H183.136V15.7784H184.378ZM184.378 16.3304H183.688V17.1583H184.378C184.481 17.1583 184.58 17.12 184.656 17.0509C184.732 16.9818 184.78 16.8868 184.79 16.7844L184.792 16.7443C184.792 16.6346 184.748 16.5293 184.671 16.4516C184.593 16.374 184.488 16.3304 184.378 16.3304Z" fill="white"/>
<path d="M126.266 32.4119C126.546 33.0507 126.686 33.7332 126.686 34.4596C126.686 33.7332 126.822 33.0507 127.093 32.4119C127.373 31.773 127.749 31.2174 128.222 30.7448C128.694 30.2723 129.25 29.9004 129.889 29.6291C130.528 29.349 131.21 29.209 131.937 29.209C131.21 29.209 130.528 29.0734 129.889 28.8021C129.267 28.534 128.702 28.1511 128.222 27.6732C127.744 27.1935 127.361 26.6279 127.093 26.0062C126.822 25.3674 126.686 24.6848 126.686 23.9585C126.686 24.6848 126.546 25.3674 126.266 26.0062C125.995 26.645 125.623 27.2007 125.15 27.6732C124.671 28.1511 124.105 28.534 123.483 28.8021C122.844 29.0734 122.162 29.209 121.436 29.209C122.162 29.209 122.844 29.349 123.483 29.6291C124.122 29.9004 124.678 30.2723 125.15 30.7448C125.623 31.2174 125.995 31.773 126.266 32.4119Z" fill="white"/>
</svg>
