<svg width="190" height="56" viewBox="0 0 190 56" fill="none" xmlns="http://www.w3.org/2000/svg">
<path d="M40.0225 7C40.0642 7.00012 40.1604 7.00226 40.2598 7.04199C40.5124 7.14323 42.3457 8.02545 43.208 8.44238L44.5186 9.0752L43.083 9.31445C42.9729 9.3328 42.7982 9.36527 42.6367 9.40039C42.5559 9.41797 42.4822 9.43508 42.4238 9.45117C42.3926 9.45977 42.3718 9.46657 42.3594 9.4707C42.3454 9.48128 42.3266 9.49568 42.3027 9.51465C42.2428 9.56238 42.1608 9.62991 42.0605 9.71387C41.8604 9.88155 41.5951 10.1085 41.3057 10.3584C41.0581 10.5721 40.7937 10.8026 40.5371 11.0264H45.3906L43.6191 12.2461L39.8252 13.4814L38.8447 15.8311V19.9287L34.6416 30.8613L26.7334 38.1865V34.0771L26.3242 34.5312L25.8037 38.3018L29.8506 45.9609L31.4121 46.626L32.25 47.7529H29.0166L29.2256 48.1982H21.3604L22.0469 46.3213L23.0254 45.7051L18.6113 39.8848V38.8066L15.458 41.8916L16.667 37.2646L14.2412 39.6045L9.36133 40.6475V40.165L0 47.9424L1.14941 38.7422L4.25391 36.0898L4.86035 33.1758L11.4424 26.2402L16.5732 21.8975L20.0332 19.6924L20.3369 19.6855L24.9082 14.5518L25.9707 14.5576L30.0684 9.39844L33.8037 7.2373L36.4893 7.91602C37.0391 7.74384 37.8153 7.50911 38.499 7.32227C38.8666 7.22183 39.2143 7.13323 39.4883 7.0752C39.6243 7.04639 39.7522 7.02331 39.8584 7.01074C39.9109 7.00454 39.9675 6.99985 40.0225 7ZM39.9668 7.92969C39.9012 7.93744 39.8055 7.95403 39.6807 7.98047C39.4327 8.03298 39.1042 8.11592 38.7422 8.21484C38.0202 8.41216 37.1882 8.66461 36.6426 8.83691L36.5176 8.87695L33.9424 8.22559L30.6836 10.1113L27.1533 14.5566L30.4609 14.5498L29.1035 15.499L26.1943 15.4834L25.3154 15.4854L21.5977 19.6611L24.2305 19.6084L23.2559 20.584L20.5547 20.6064L20.3115 20.6113L17.123 22.6436L12.0791 26.9141L5.71191 33.6221L5.4043 35.0996L8.55273 32.3906V33.6318L4.97559 36.6895L3.94336 37.5771L3.94531 37.5693L2.02246 39.2129L1.20703 45.7363L9.36133 38.9629V36.9014L11.2979 35.3994V32.0771L21.9639 23.0791V24.3096L12.2236 32.5068V34.6797L22.2246 26.8945V28.0957L12.0439 35.9912L10.2871 37.3545V39.5039L13.7891 38.7549L17.1162 35.5469V35.5459L17.2109 35.4551L20.1719 32.5996V33.9062L17.9453 36.0332L17.1973 38.8965L31.9971 24.416L34.0557 20.6465L32.3242 18.042H30.0742L22.8604 23.7588V22.5576L29.626 17.2168L29.627 17.2158L29.7529 17.1162H32.8203L35.1357 20.5996L32.7432 24.9805L19.5361 37.9014V39.5732L24.3721 45.9502L22.8066 46.9355L22.6836 47.2734H27.7686L27.6367 46.9932L25.877 46.3115L21.124 38.9307L26.7334 32.6934L26.8525 32.5615L31.2139 27.7129V29.1172L27.6582 33.0498V36.0684L33.8555 30.3291L37.9199 19.7568V15.6455L39.1357 12.7334L41.5371 11.9512H38.082L39.002 11.1416C39.4458 10.7508 40.1207 10.1602 40.7021 9.6582C40.9926 9.40743 41.2614 9.17696 41.4668 9.00488C41.5691 8.91921 41.6578 8.84579 41.7266 8.79102C41.7362 8.78333 41.7456 8.77581 41.7549 8.76855C41.0133 8.41248 40.2324 8.04021 39.9795 7.92773C39.9756 7.92815 39.9714 7.92915 39.9668 7.92969ZM22.2842 39.0244L26.4912 45.5576L28.2637 46.2441L28.1738 46.0479L26.8154 45.1367L22.5879 38.6855L22.2842 39.0244ZM23.2744 38.0449L27.4863 44.4736L28.3105 45.0254L24.8467 38.4697L25.2002 35.916L23.2744 38.0449ZM35.8213 9.81055L35.5576 10.333L34.248 10.7666L33.209 10.2441L33.4512 9.7627L34.7979 9.30664L35.8213 9.81055Z" fill="white"/>
<path d="M62.8916 19.5571C67.6411 19.5571 69.4336 20.3776 69.4336 23.9829C69.4336 24.2419 69.4327 24.5225 69.4111 24.8247H67.6416V24.5874C67.6416 22.1047 66.6477 21.2847 63.9707 21.2847H57.1709C55.4871 21.2847 54.4288 21.5432 53.8027 22.4282C53.2631 23.1838 53.2412 24.1555 53.2412 25.4722V29.6392C53.2412 30.956 53.2631 31.9275 53.8027 32.6831C54.4288 33.5682 55.487 33.8276 57.1709 33.8276H63.9492C66.7989 33.8276 67.792 33.1147 67.792 30.5024V30.0708H69.584C69.584 30.3515 69.6055 30.6107 69.6055 30.8481C69.6055 32.6616 69.3034 33.8492 68.3535 34.6479C67.3172 35.5329 65.5468 35.6411 62.8916 35.6411H57.9697C55.5086 35.6411 53.8025 35.5326 52.6367 34.5396C51.5144 33.5896 51.1475 32.0999 51.1475 29.8765V25.6021C51.1475 23.1845 51.5145 21.6086 52.6367 20.6587C53.7593 19.7088 55.444 19.5571 57.9482 19.5571H62.8916ZM157.476 19.5571C160.131 19.5571 161.966 19.7081 163.153 20.6577C164.276 21.5429 164.729 23.0761 164.729 25.4077V29.7905C164.729 32.1003 164.297 33.6329 163.153 34.5396C161.944 35.5109 160.131 35.6411 157.476 35.6411H152.251C149.617 35.6411 147.804 35.511 146.573 34.5396C145.386 33.5896 144.977 32.1215 144.977 29.8765V25.6021C144.977 23.1841 145.364 21.6076 146.552 20.6577C147.739 19.7079 149.574 19.5571 152.229 19.5571H157.476ZM93.9922 35.4478H91.9199L89.8691 31.9937H77.3906L75.3828 35.4478H73.1592L82.2695 19.7524H84.8604L93.9922 35.4478ZM109.686 19.7524C114.111 19.7525 115.859 20.2927 115.859 23.4878V25.3657C115.859 27.2221 115.255 28.0422 113.097 28.4956C114.802 28.69 115.687 29.7271 115.687 31.562V35.4478H113.744V31.9497C113.744 29.489 112.643 29.2944 109.944 29.2944H100.424V35.4478H98.4805V19.7524H109.686ZM133.084 19.7524C135.286 19.7524 136.84 19.8394 137.812 20.4438C138.913 21.1347 139.15 22.1059 139.15 23.7251C139.15 25.7327 138.675 26.6175 136.56 27.0708C138.783 27.2219 139.669 28.1079 139.669 30.1372V31.7993C139.669 34.9726 137.639 35.4478 132.717 35.4478H121.88V19.7524H133.084ZM188.056 33.6558V19.7524H189.999V35.4478H187.149L172.75 21.3286V35.4478H170.807V19.7524H173.872L188.056 33.6558ZM151.302 21.2847C149.51 21.2847 148.366 21.5216 147.675 22.4282C147.092 23.2053 147.07 24.1769 147.07 25.4937V29.6177C147.07 30.9345 147.092 31.906 147.675 32.6831C148.366 33.5897 149.51 33.8276 151.302 33.8276H158.404C160.196 33.8276 161.34 33.5898 162.031 32.6831C162.571 31.9707 162.614 31.0639 162.614 29.855V25.2563C162.614 24.0475 162.571 23.1406 162.031 22.4282C161.34 21.5215 160.196 21.2847 158.404 21.2847H151.302ZM123.822 33.6558H134.099C137.078 33.6558 137.79 33.2237 137.79 31.0864C137.79 28.6471 137.207 28.1724 134.099 28.1724H123.822V33.6558ZM78.3408 30.3306H88.9189L83.5869 21.3071L78.3408 30.3306ZM100.424 27.481H110.312C113.096 27.4809 113.809 26.9844 113.809 24.8472V24.0923C113.809 21.9551 113.096 21.4585 110.312 21.4585H100.424V27.481ZM123.822 26.3374H132.76C136.214 26.3374 137.251 26.2939 137.251 23.9409C137.251 22.8615 137.099 22.214 136.581 21.8901C135.912 21.48 134.746 21.4585 133.062 21.4585H123.822V26.3374Z" fill="white"/>
</svg>
