<svg width="190" height="56" viewBox="0 0 190 56" fill="none" xmlns="http://www.w3.org/2000/svg">
<path d="M89.8655 22.0612H106.483V19.2271H89.8655V22.0612ZM115.033 27.6093H128.351V24.8232H111.589V26.1202C111.589 30.2272 114.142 32.7971 118.333 32.7971H128.689V29.6028H118.381C116.382 29.6268 115.442 28.9062 115.033 27.6093ZM111.589 22.3013H128.689V19.3712H111.589V22.3013ZM159.179 32.8212H162.454V19.3712H159.179V32.8212ZM149.569 27.249C149.569 27.4412 149.593 27.7294 149.617 28.1377L149.015 27.5132C145.643 23.8625 141.646 20.7402 137.311 19.3712H134.469V32.8212H137.672V23.7904C137.672 23.6463 137.648 23.3341 137.624 22.8537C137.961 22.9738 138.25 23.0939 138.515 23.19C142.031 24.511 145.595 27.8014 149.28 32.8452H152.748V19.3952H149.545V27.249H149.569ZM187.91 19.3712H183.286L177.843 24.2468L172.497 19.3712H167.825L175.652 26.1442L167.873 32.8212H172.425L177.988 27.8975L183.31 32.8212H187.91L180.083 26.0241L187.91 19.3712ZM93.2372 24.6791H89.6729V32.8212H93.2854V29.2905C93.3817 28.8102 93.743 27.8975 94.9231 27.8975H95.1639H106.483V24.6791H93.2854H93.2372Z" fill="white"/>
<path d="M89.8602 43.0274H89.0654V37.1431H96.3387V37.9357H89.8361V39.9051H95.544V40.6977H89.8361V43.0274H89.8602Z" fill="#8F9FA8"/>
<path d="M105.706 43.0274H104.911V37.1431H105.706V43.0274Z" fill="#8F9FA8"/>
<path d="M122.418 43.0274H121.624L115.338 38.1518V43.0274H114.543V37.1431H115.338L121.624 42.0187V37.1431H122.418V43.0274Z" fill="#8F9FA8"/>
<path d="M139.67 43.0274H138.731L137.936 41.8506H132.542L131.747 43.0274H130.808L134.733 37.1431H135.721L139.67 43.0274ZM137.431 41.058L135.263 37.8156L133.096 41.058H137.431Z" fill="#8F9FA8"/>
<path d="M155.944 43.0274H155.149L148.863 38.1518V43.0274H148.068V37.1431H148.863L155.149 42.0187V37.1431H155.944V43.0274Z" fill="#8F9FA8"/>
<path d="M171.047 43.027H166.327C166.038 43.027 165.773 42.955 165.532 42.8109C165.291 42.6668 165.099 42.4746 164.954 42.2345C164.81 41.9943 164.737 41.7301 164.737 41.4419V38.7038C164.737 38.4156 164.81 38.1514 164.954 37.9112C165.099 37.6711 165.291 37.4789 165.532 37.3348C165.773 37.1907 166.038 37.1187 166.327 37.1187H171.047C171.336 37.1187 171.601 37.1907 171.842 37.3348C172.083 37.4789 172.276 37.6711 172.42 37.9112C172.565 38.1514 172.637 38.4156 172.637 38.7038H171.842C171.842 38.4877 171.77 38.2955 171.625 38.1514C171.481 38.0073 171.288 37.9353 171.071 37.9353H166.351C166.134 37.9353 165.941 38.0073 165.797 38.1514C165.652 38.2955 165.58 38.4877 165.58 38.7038V41.4419C165.58 41.658 165.652 41.8502 165.797 41.9943C165.941 42.1384 166.134 42.2104 166.351 42.2104H171.071C171.288 42.2104 171.481 42.1384 171.625 41.9943C171.77 41.8502 171.842 41.658 171.842 41.4419H172.637C172.637 41.7301 172.565 41.9943 172.42 42.2345C172.276 42.4746 172.083 42.6668 171.842 42.8109C171.601 42.955 171.336 43.027 171.047 43.027Z" fill="#8F9FA8"/>
<path d="M188.531 43.0274H181.258V37.1431H188.531V37.9357H182.028V39.689H187.736V40.4816H182.028V42.2349H188.531V43.0274Z" fill="#8F9FA8"/>
<path d="M84.2939 4.09521C84.2939 4.09521 83.9809 13.054 76.6357 18.0737C69.3063 23.0825 50.155 33.7828 50.0713 33.8296L43.2314 51.603V52.1792L43.1104 51.8911L43.0625 52.0112V51.7466L36.2227 33.9741C36.2227 33.9741 16.9797 23.262 9.6582 18.2183C2.35091 13.1842 2.00132 4.27406 2 4.23975C3.46947 8.80324 23.0254 20.4995 23.0254 20.4995L39.3301 30.3472L43.1348 39.6899L46.9883 30.1792L63.293 20.3315C63.3265 20.3115 82.8502 8.63069 84.2939 4.09521ZM47.9795 20.644L43.0908 37.0483L38.2021 20.644L43.0908 11.6616L47.9795 20.644ZM35.9355 36.3989C16.2779 36.5665 16.5216 24.9494 16.5234 24.8706L35.9355 36.3989ZM8.52734 3.56689C11.9479 8.61079 36.874 20.6431 36.874 20.6431L39.3301 27.8003C39.2471 27.7538 25.9592 20.3144 16.8359 14.8794C7.73098 9.41699 8.54712 3.61963 8.52734 3.56689ZM77.8193 3.42236C77.8226 3.44502 78.6438 9.26901 69.5098 14.7104C60.382 20.1625 47.0156 27.6327 47.0156 27.6567L49.4482 20.4995C49.4482 20.4995 74.3994 8.46612 77.8193 3.42236Z" fill="white"/>
<path d="M50.2637 36.3987C69.9883 36.5668 69.6752 24.8701 69.6752 24.8701L50.2637 36.3987Z" fill="white"/>
</svg>
