<svg width="190" height="56" viewBox="0 0 190 56" fill="none" xmlns="http://www.w3.org/2000/svg">
<path d="M60.9048 14.8407C60.9048 9.15312 56.2852 4.52148 50.5856 4.52148H35.7908C30.0672 4.52148 26.9115 4.52148 24.1877 6.53733C23.3597 7.14928 22.6278 7.88122 22.0158 8.70916C20 11.4449 20 14.5887 20 20.3123V30.4875H20.024C20 31.4954 20 32.5993 20 33.8232V52.1818H31.0871C36.7747 52.1818 41.3943 47.5621 41.3943 41.8746C41.3943 40.7587 41.2143 39.6787 40.8904 38.6708H43.8301C49.5177 38.6708 54.1373 34.0392 54.1373 28.3516C54.1373 27.0797 53.9094 25.8558 53.4774 24.7279C57.7731 23.48 60.9048 19.5203 60.9048 14.8407ZM31.0871 45.0783H27.1034C27.1034 43.9584 27.1034 42.8385 27.1034 41.7186C27.1754 40.0507 28.4953 38.7428 30.1632 38.6588C30.5908 38.6588 31.0211 38.6402 31.4471 38.6828C33.043 38.8628 34.2789 40.2187 34.2789 41.8626C34.2909 43.6384 32.851 45.0783 31.0871 45.0783ZM43.8301 31.5554C39.4585 31.5554 35.0868 31.5554 30.7152 31.5554C30.3072 31.5554 30.0912 31.5554 29.8632 31.5674C28.9153 31.6154 27.9914 31.7834 27.1274 32.0593C27.1274 31.7354 27.1274 31.4234 27.1394 31.1234C27.1754 28.6996 27.2834 27.0917 27.7514 26.4558C27.9434 26.1918 28.1714 25.9758 28.4233 25.7838C28.9993 25.3519 30.3912 25.2199 32.479 25.1839C36.2667 25.1839 40.0544 25.1719 43.8421 25.1719C45.606 25.1719 47.0459 26.6118 47.0459 28.3756C47.0339 30.1155 45.594 31.5554 43.8301 31.5554ZM50.5856 18.0444C44.7621 18.0444 38.9385 18.0444 33.115 18.0444C30.6552 18.0684 28.7473 18.1884 27.1274 18.6444C27.1394 15.6446 27.2234 13.6528 27.7514 12.9328C27.9434 12.6808 28.1714 12.4529 28.4233 12.2609C29.2753 11.6369 31.8671 11.6369 35.8028 11.6369H50.5976C52.3615 11.6369 53.8014 13.0768 53.8014 14.8407C53.7894 16.6045 52.3495 18.0444 50.5856 18.0444Z" fill="white"/>
<path d="M106.729 20.5509H110.916V44.9364H106.729V20.5509ZM106.729 11.332H110.916V15.9987H106.729V11.332Z" fill="white"/>
<path d="M79.0723 11.333H102.383V15.4506H83.6245V25.6532H100.118V29.6564H83.6245V44.9373H79.0723V11.333Z" fill="white"/>
<path d="M128.226 40.8864L136.423 18.5132H141.1L130.733 44.9367H125.622L115.255 18.5132H119.98L128.226 40.8864Z" fill="white"/>
<path d="M156.451 45.3706C153.975 45.3706 151.725 44.808 149.7 43.6829C147.707 42.5578 146.132 40.9666 144.975 38.9093C143.85 36.8199 143.287 34.409 143.287 31.6766C143.287 28.9764 143.866 26.5976 145.023 24.5403C146.212 22.4509 147.82 20.8597 149.845 19.7667C151.87 18.6416 154.136 18.0791 156.644 18.0791C159.151 18.0791 161.417 18.6416 163.442 19.7667C165.467 20.8597 167.059 22.4348 168.216 24.4921C169.405 26.5494 170 28.9443 170 31.6766C170 34.409 169.389 36.8199 168.168 38.9093C166.978 40.9666 165.355 42.5578 163.298 43.6829C161.24 44.808 158.958 45.3706 156.451 45.3706ZM156.451 41.5131C158.026 41.5131 159.504 41.1434 160.887 40.4041C162.269 39.6647 163.378 38.5557 164.214 37.077C165.082 35.5984 165.516 33.7982 165.516 31.6766C165.516 29.555 165.098 27.7549 164.262 26.2762C163.426 24.7975 162.333 23.7045 160.983 22.9974C159.633 22.258 158.17 21.8883 156.595 21.8883C154.988 21.8883 153.509 22.258 152.159 22.9974C150.841 23.7045 149.78 24.7975 148.977 26.2762C148.173 27.7549 147.771 29.555 147.771 31.6766C147.771 33.8304 148.157 35.6466 148.929 37.1253C149.732 38.6039 150.793 39.713 152.111 40.4523C153.429 41.1595 154.876 41.5131 156.451 41.5131Z" fill="white"/>
</svg>
