<svg width="190" height="56" viewBox="0 0 190 56" fill="none" xmlns="http://www.w3.org/2000/svg">
<path d="M21.7285 10.5215C12.0769 10.5215 4.22363 18.3747 4.22363 28.0263C4.22363 37.6779 12.0769 45.5311 21.7285 45.5311C31.3801 45.5311 39.2333 37.6779 39.2333 28.0263C39.2333 18.3747 31.3811 10.5215 21.7285 10.5215ZM21.7285 42.5198C13.7367 42.5198 7.236 36.0181 7.236 28.0273C7.236 20.0365 13.7377 13.5338 21.7285 13.5338C29.2112 13.5338 35.3875 19.2342 36.1436 26.5201H27.4851C26.9348 23.8452 24.5661 21.8349 21.7285 21.8349C18.4822 21.8349 15.8514 24.4667 15.8514 27.712C15.8514 30.4372 17.706 32.7286 20.2223 33.3933V38.0745H23.2347V33.3933C25.1636 32.8832 26.7029 31.4172 27.3164 29.5325H36.1426C35.3865 36.8184 29.2112 42.5188 21.7275 42.5188L21.7285 42.5198Z" fill="white"/>
<path d="M133.514 38.0785V19.3971L149.287 19.3447C151.365 19.3447 152.902 19.7819 153.898 20.6549C154.911 21.5109 155.417 22.8027 155.417 24.5331C155.417 26.2634 154.842 27.529 153.688 28.3327C154.457 28.7515 155.025 29.3104 155.391 30.0093C155.758 30.6899 155.941 31.5721 155.941 32.6558C155.941 34.4202 155.434 35.7644 154.421 36.6911C153.425 37.5994 151.889 38.0536 149.81 38.0536L133.514 38.0798V38.0785ZM148.788 22.698H137.706V26.8903H148.788C150.377 26.8903 151.173 26.1744 151.173 24.7425C151.173 23.3106 150.378 22.6993 148.788 22.6993V22.698ZM149.313 30.2436H137.706V34.6977H149.313C150.902 34.6977 151.698 33.9464 151.698 32.4438C151.698 30.9412 150.903 30.2436 149.313 30.2436Z" fill="white"/>
<path d="M106.185 38.0785V19.3447H121.878C123.817 19.3447 125.319 19.8342 126.385 20.812C127.467 21.7897 128.009 23.2752 128.009 25.266C128.009 26.9597 127.616 28.2882 126.83 29.2489C126.043 30.2096 124.926 30.8117 123.476 31.0564L127.799 38.0785H123.031L119.022 31.1873H110.376V38.0785H106.184H106.185ZM121.381 22.7504H110.377V27.7542L121.381 27.7803C122.149 27.7803 122.734 27.5879 123.136 27.2044C123.555 26.8196 123.764 26.1744 123.764 25.266C123.764 24.3577 123.555 23.6941 123.136 23.3276C122.734 22.9428 122.149 22.7517 121.381 22.7517V22.7504Z" fill="white"/>
<path d="M78.3828 38.0785L86.8184 19.3447H93.2894L101.726 38.0772H97.1676L95.3862 34.1205H84.7229L82.9416 38.0772H78.3828V38.0785ZM86.2425 30.7161H93.8666L90.2254 22.6208H89.8851L86.2425 30.7161Z" fill="white"/>
<path d="M62.4335 38.2094C59.2373 38.2094 56.74 37.4149 54.9403 35.8246C53.1589 34.2173 52.2676 31.8418 52.2676 28.6979C52.2676 25.554 53.1759 23.2137 54.9926 21.6248C56.8263 20.0175 59.4807 19.2139 62.957 19.2139H72.9136V22.6195H63.2463C60.9584 22.6195 59.2634 23.0999 58.164 24.0606C57.0816 25.0213 56.5397 26.5671 56.5397 28.6979C56.5397 30.8287 57.0201 32.2266 57.9808 33.2043C58.9415 34.165 60.3472 34.6885 62.1992 34.7762L69.7448 34.8024V27.4924H73.9371V38.2081H62.4348L62.4335 38.2094Z" fill="white"/>
<path d="M183.474 21.6248C181.64 20.0175 178.994 19.2139 175.536 19.2139H170.82C167.36 19.2139 164.714 20.0175 162.88 21.6248C161.046 23.2137 160.129 25.5723 160.129 28.6992C160.129 31.8261 161.046 34.2187 162.88 35.8259C164.714 37.4149 167.299 38.2107 170.635 38.2107H175.665C179.037 38.2107 181.639 37.4162 183.472 35.8259C185.307 34.2187 186.224 31.8431 186.224 28.6992C186.224 25.5553 185.307 23.2151 183.472 21.6248H183.474ZM179.779 33.7553C178.713 34.4542 177.203 34.8037 175.246 34.8037H174.864C174.864 34.8037 174.861 34.8037 174.86 34.8037H171.458C171.458 34.8037 171.456 34.8037 171.454 34.8037H171.186C169.195 34.8037 167.657 34.4542 166.575 33.7553C165.524 33.0773 164.854 32.0041 164.559 30.5381C164.425 29.9806 164.355 29.3693 164.355 28.7031C164.355 28.0369 164.417 27.4885 164.54 26.9545C164.824 25.4558 165.502 24.3603 166.575 23.6679C167.657 22.969 169.169 22.6195 171.108 22.6195H175.248C177.186 22.6195 178.698 22.969 179.78 23.6679C180.852 24.3603 181.53 25.4545 181.815 26.9519C181.938 27.4859 182.001 28.0696 182.001 28.7031C182.001 29.3693 181.932 29.9806 181.797 30.5394C181.503 32.0054 180.831 33.0773 179.781 33.7553H179.779Z" fill="white"/>
</svg>
