<svg width="190" height="56" viewBox="0 0 190 56" fill="none" xmlns="http://www.w3.org/2000/svg">
<g clip-path="url(#clip0_811_2227)">
<rect y="20.4355" width="3.15134" height="15.4702" fill="white"/>
<path d="M61.6548 23.5869H50.1948V35.9053H47.0435V23.5869H35.5854V20.4355H61.6548V23.5869Z" fill="white"/>
<path d="M150.333 23.5869H138.874V35.9053H135.723V23.5869H124.264V20.4355H150.333V23.5869Z" fill="white"/>
<path d="M91.2441 23.8809H71.4854C70.7044 23.8809 70.0749 24.0279 69.5967 24.3213C69.1473 24.5858 68.7587 24.9516 68.46 25.3926C68.1828 25.8099 67.99 26.2827 67.8926 26.7812C67.6914 27.6942 67.6914 28.6437 67.8926 29.5566C67.9904 30.0545 68.1831 30.5265 68.46 30.9434C68.7583 31.3847 69.147 31.7506 69.5967 32.0146C70.0759 32.3091 70.7055 32.4561 71.4854 32.4551H89.9043C89.9438 32.4551 89.9832 32.4579 90.0225 32.4609H91.2441L92.1035 35.8252H89.9434C89.9303 35.8255 89.9173 35.8271 89.9043 35.8271H70.416C69.5555 35.8431 68.7084 35.5995 67.9756 35.125C67.2605 34.6546 66.6415 34.0393 66.1543 33.3154C65.6449 32.5606 65.2553 31.7239 65.001 30.8379C64.7409 29.9741 64.6058 29.074 64.6006 28.168C64.604 27.2544 64.7446 26.3468 65.0176 25.4795C65.2888 24.593 65.7015 23.761 66.2373 23.0195C66.7654 22.2895 67.4243 21.6752 68.1768 21.2109C68.958 20.7363 69.8478 20.4938 70.75 20.5088H88.0928V20.5078H92.1035L91.2441 23.8809ZM86.6797 29.8525H84.416C84.4001 29.853 84.3841 29.8545 84.3682 29.8545H71.8535C71.4282 29.8544 71.0205 29.6764 70.7197 29.3604C70.4189 29.0441 70.2491 28.6152 70.249 28.168C70.249 27.7207 70.4189 27.2918 70.7197 26.9756C71.0205 26.6595 71.4282 26.4815 71.8535 26.4814H83.7939V26.4805H86.6592L86.6797 29.8525Z" fill="white"/>
<path d="M26.8213 20.4365C27.6868 20.4681 28.5292 20.7401 29.2617 21.2256C29.972 21.7032 30.5899 22.3182 31.083 23.0371C31.5904 23.7749 31.9801 24.5952 32.2363 25.4648C32.4982 26.3159 32.6343 27.2042 32.6387 28.0986V35.9033H29.4297V28.0957C29.4221 27.629 29.3693 27.1643 29.2715 26.709C29.174 26.2104 28.9804 25.7377 28.7031 25.3203C28.4006 24.8763 28.0062 24.5101 27.5498 24.249C27.0592 23.9556 26.4351 23.8086 25.6777 23.8086H13.6133C12.8332 23.8086 12.203 23.9556 11.7236 24.249C11.2744 24.5135 10.8866 24.8795 10.5879 25.3203C10.3128 25.7382 10.121 26.2108 10.0254 26.709C9.92914 27.1645 9.87817 27.6292 9.87207 28.0957V34.0693C9.87203 34.0856 9.8706 34.1019 9.87012 34.1182V35.9033H6.66895V28.0957C6.67237 27.1823 6.81399 26.2754 7.08691 25.4082C7.35557 24.5238 7.76477 23.6933 8.29785 22.9531C8.82499 22.2212 9.48379 21.6045 10.2363 21.1387C11.018 20.6639 11.9079 20.4214 12.8105 20.4365H26.8213Z" fill="white"/>
<path d="M115.586 20.4365C116.451 20.4681 117.294 20.7401 118.026 21.2256C118.737 21.7032 119.355 22.3182 119.848 23.0371C120.355 23.7749 120.745 24.5952 121.001 25.4648C121.263 26.3159 121.399 27.2042 121.403 28.0986V34.0723C121.403 34.0847 121.402 34.097 121.401 34.1094V35.9033H118.192V28.7412H118.194V28.0957C118.187 27.629 118.134 27.1643 118.036 26.709C117.939 26.2104 117.745 25.7377 117.468 25.3203C117.165 24.8763 116.771 24.5101 116.314 24.249C115.824 23.9556 115.2 23.8086 114.442 23.8086H102.378C101.598 23.8086 100.968 23.9556 100.488 24.249C100.039 24.5135 99.6513 24.8795 99.3525 25.3203C99.0774 25.7382 98.8857 26.2108 98.79 26.709C98.6938 27.1645 98.6428 27.6292 98.6367 28.0957V34.0693C98.6367 34.0856 98.6353 34.1019 98.6348 34.1182V35.9033H95.4336V28.0957C95.437 27.1823 95.5786 26.2754 95.8516 25.4082C96.1202 24.5238 96.5294 23.6933 97.0625 22.9531C97.5896 22.2212 98.2484 21.6045 99.001 21.1387C99.7826 20.6639 100.673 20.4214 101.575 20.4365H115.586Z" fill="white"/>
<path d="M162.299 39.7527C163.546 38.7392 164.599 37.851 165.72 36.9229C166.654 36.1485 167.576 35.414 168.464 34.5884C169.318 33.7913 170.918 32.8803 170.855 31.5252C170.821 30.7964 170.286 30.0846 169.745 29.6291L159.783 21.2592L159.772 13.9712V10.2588L173.724 21.988V25.205L162.294 15.5711V19.46C165.282 21.9653 168.254 24.5047 171.248 26.9815C172.159 27.7331 172.933 28.6783 173.365 29.7886C174.145 31.7985 173.519 34.1728 171.726 35.4368L159.766 45.4864V34.8959L166.568 29.2142L168.424 30.7743L162.299 35.898C162.311 35.898 162.299 39.7527 162.299 39.7527Z" fill="white"/>
<path d="M189.617 20.8378V10.3213C189.503 10.4181 189.389 10.5149 189.275 10.606C187.806 11.8301 186.343 13.06 184.875 14.2842C183.127 15.7475 181.379 17.2051 179.632 18.6684C179.222 19.01 178.789 19.3403 178.391 19.7047C178.374 19.7218 178.357 19.7388 178.34 19.7502C177.702 20.3253 177.03 20.7637 176.547 21.5096C176.063 22.2612 175.715 23.1437 175.687 24.0377C175.647 25.2049 176.097 26.3437 176.723 27.3173C177.4 28.3593 178.351 29.0653 179.285 29.8511C180.127 30.5571 181.009 31.2346 181.818 31.9748C183.019 32.9826 184.214 33.9848 185.415 34.9926C185.979 35.4652 186.548 35.9377 187.112 36.416V40.117L175.67 30.3977V34.1613L189.617 45.7937V34.6339L181.408 27.733C180.281 26.7821 178.613 25.8141 178.533 24.1572C178.499 23.4 178.858 22.6655 179.353 22.0904C180.059 21.2762 181.038 20.6669 181.858 19.978C182.831 19.1638 183.804 18.3496 184.784 17.5297C185.586 16.8578 186.389 16.1859 187.192 15.514L187.163 22.916L189.617 20.8378Z" fill="white"/>
<path d="M180.789 24.8819L182.752 26.5787L187.17 22.9232L187.187 19.4102L180.789 24.8819Z" fill="white"/>
</g>
<defs>
<clipPath id="clip0_811_2227">
<rect width="189.617" height="35.5351" fill="white" transform="translate(0 10.2588)"/>
</clipPath>
</defs>
</svg>
