<svg width="190" height="56" viewBox="0 0 190 56" fill="none" xmlns="http://www.w3.org/2000/svg">
<g clip-path="url(#clip0_813_2338)">
<path d="M56.114 46.5339C56.0682 46.5796 56.034 46.6253 56.0397 46.631C56.0454 46.6367 56.0911 46.6025 56.1368 46.5567C56.1825 46.511 56.2168 46.4653 56.2111 46.4596C56.2054 46.4539 56.1597 46.4882 56.114 46.5339Z" fill="black"/>
<path d="M39.0176 55.041C35.4922 55.041 32.0754 54.321 28.8585 52.9097C25.756 51.5441 22.9676 49.59 20.5793 47.1045C18.1909 44.6247 16.3225 41.7336 15.0141 38.5167C13.6599 35.1913 12.9742 31.6602 12.9742 28.0205C12.9742 27.8891 12.9742 27.7634 12.9742 27.6319C12.9742 27.4777 12.9685 27.3405 12.9742 27.2148C12.9799 26.1921 13.0371 25.1579 13.1399 24.1294C13.2313 23.238 13.3799 22.341 13.6256 21.2154C14.4312 17.5585 16.0482 14.0446 18.3052 11.0505C18.9508 10.1935 19.7108 9.31927 20.5678 8.45077C21.4992 7.50228 22.602 6.57094 23.8418 5.6853C25.6874 4.37113 27.7844 3.2798 29.9099 2.53701C31.1098 2.1199 32.3268 1.7885 33.5267 1.55995C33.8924 1.49139 34.2809 1.42853 34.6809 1.3714C36.1036 1.1257 37.5606 1 39.0119 1C42.5373 1 45.9542 1.71994 49.1768 3.13124C52.2793 4.49683 55.0677 6.45095 57.456 8.93644C59.8444 11.4162 61.7128 14.3074 63.0213 17.5243C64.3754 20.8497 65.0611 24.3808 65.0611 28.0205C65.0611 31.6602 64.3754 35.1913 63.0213 38.5167C61.7128 41.7336 59.8387 44.619 57.456 47.1045C55.0677 49.59 52.2793 51.5441 49.1768 52.9097C45.9599 54.3267 42.543 55.041 39.0176 55.041Z" fill="black"/>
<path d="M14.2077 21.3501C14.9984 17.8155 16.5564 14.4826 18.7704 11.5996C19.3971 10.7808 20.135 9.95045 20.9784 9.10283C21.8863 8.19755 22.9464 7.31533 24.1588 6.46194C25.9569 5.19916 27.9951 4.16125 30.0392 3.46355C31.2165 3.05992 32.3879 2.74855 33.5593 2.52367C34.637 2.32186 35.7967 2.18924 37.0384 2.12581C38.6549 2.05085 40.3593 2.14887 42.1632 2.43141C42.5498 2.48907 42.9364 2.56403 43.3288 2.65053C47.2178 3.49815 50.7379 5.15303 53.889 7.61517C55.0194 8.50315 56.1205 9.52376 57.1806 10.6828C57.4442 10.9711 57.7019 11.2651 57.9479 11.565C60.8471 15.1111 62.7331 19.1128 63.594 23.5643C63.7288 24.2735 63.8518 25.1269 63.9513 26.1245C63.9865 26.4993 64.0158 26.8798 64.0275 27.2546C64.086 28.7192 64.0333 30.1608 63.8752 31.5735C63.8283 31.9771 63.7756 32.3634 63.7053 32.7382C63.4711 34.0529 63.1899 35.2177 62.8619 36.2498C62.5398 37.2589 62.1298 38.2968 61.632 39.375C60.8237 41.1164 59.787 42.7367 58.6214 44.2301C58.6039 44.2532 58.5629 44.2417 58.557 44.2128C58.4692 43.6996 58.4106 43.1519 58.2525 42.6502C58.0767 42.1024 57.8483 41.5258 57.6082 41.0011C57.1103 39.9171 56.2904 38.9714 55.4411 38.1065C54.0178 36.6534 52.8464 35.4195 51.6516 33.9606C50.4275 32.4672 49.3849 30.7662 49.2385 28.8057C49.1507 27.6237 49.1507 26.4185 49.2444 25.1846C49.2912 24.5503 49.4259 23.9449 49.5196 23.3394C49.5489 23.1722 49.5021 23.0799 49.6309 22.9473C49.6719 22.907 49.6836 22.8493 49.6719 22.7916C49.6426 22.6936 49.6251 22.6129 49.6309 22.5091C49.6602 22.0593 49.7071 21.6442 49.7598 21.2636C49.8184 20.8485 49.8594 20.4621 49.8828 20.1104C49.9355 19.3262 49.9824 18.5189 50.0175 17.6828C50.0585 16.8006 50.0878 15.9876 49.9824 15.14C49.8828 14.3327 49.7305 13.537 49.5372 12.7528C49.3674 12.0609 49.1038 11.4612 48.7582 10.9538C48.278 10.2388 47.7743 9.58142 47.253 8.97021C46.802 8.44549 46.2632 7.93807 45.7419 7.45948C44.9629 6.73872 44.0726 6.1448 43.0769 5.82767C42.5791 5.66622 42.052 5.60855 41.5248 5.59702C41.0621 5.58549 40.5994 5.49323 40.1484 5.4471C39.8146 5.41251 39.4749 5.4817 39.1527 5.499C38.3562 5.53936 37.8232 5.57972 37.5479 5.62009C36.6987 5.73541 35.8787 5.90263 35.0938 6.12751C34.5609 6.27743 33.9459 6.51384 33.243 6.83674C32.0892 7.36723 31.1579 8.13412 30.4434 9.13743C29.3481 10.677 28.6687 12.5337 28.3114 14.4077C28.247 14.7536 28.1943 15.1342 28.1533 15.5494C28.1006 16.1029 28.0361 16.6738 27.9717 17.2619C27.8721 18.1095 27.8546 19.0321 27.919 19.8336C27.96 20.3526 27.9834 20.7966 27.9893 21.1829C28.0186 22.7051 28.0069 23.9333 27.96 24.8732C27.9424 25.2019 27.9249 25.5536 27.9014 25.9284C27.8429 27.0182 27.6613 28.1772 27.386 29.169C27.2806 29.5553 27.0873 29.9705 26.8589 30.2991C26.5075 30.8008 26.1443 31.2217 25.7695 31.5677C24.8851 32.3865 24.0592 33.1534 23.292 33.8684C22.8234 34.3066 22.39 34.7967 21.9917 35.3503C21.4294 36.1287 20.8672 37.0628 20.3166 38.1642C19.7836 39.2251 19.3853 40.2111 19.0691 41.2894C18.9636 41.6469 18.8582 41.9871 18.7528 42.3158C18.7176 42.4196 18.7176 42.5349 18.7059 42.6387C18.7001 42.6733 18.6942 42.6733 18.6708 42.6502C17.0425 40.413 15.7891 37.9854 14.9164 35.3733C14.5123 34.1682 14.155 32.8132 13.9383 31.4927C13.7626 30.4029 13.6396 29.3074 13.581 28.206C13.5576 27.8312 13.5518 27.4737 13.5518 27.1393C13.5576 26.136 13.6162 25.1327 13.7158 24.1351C13.827 23.1895 14.0027 22.2785 14.2077 21.3501Z" fill="white"/>
<path d="M46.3036 10.8278C46.2808 10.7935 46.2637 10.7592 46.2579 10.725C46.2522 10.6907 46.2637 10.6621 46.2979 10.645C46.7722 10.845 47.2121 11.0735 47.6235 11.3363C47.6807 11.3706 47.6921 11.3649 47.6578 11.3021C47.5493 11.1192 47.4121 10.9478 47.2521 10.7821C47.0122 10.5421 46.7722 10.3307 46.5379 10.1536C46.1551 9.86218 45.6809 9.64506 45.2352 9.47936C44.8695 9.34223 44.4467 9.26795 43.9667 9.25652C43.961 9.25652 43.961 9.25652 43.9553 9.25081C43.9496 9.24509 43.9496 9.23938 43.9496 9.23367C43.9553 9.22224 43.961 9.21081 43.9781 9.21081C44.1667 9.17081 44.361 9.14796 44.5609 9.14796C44.6524 9.14796 44.6524 9.13082 44.5667 9.09653C44.3495 9.01654 44.1267 9.00511 43.8924 9.05082C43.7382 9.07939 43.7267 9.05654 43.8639 8.97655C43.9381 8.93084 44.0296 8.90798 44.1324 8.89655C44.1496 8.89655 44.161 8.8737 44.1496 8.85656C44.1438 8.85084 44.1381 8.84513 44.1267 8.83941C43.7439 8.78228 43.441 8.90798 43.2182 9.22224C43.1496 9.31937 43.1154 9.43365 43.1154 9.56507C43.1154 9.69648 43.1382 9.82219 43.1954 9.94789C42.9839 10.1193 42.8297 10.285 42.7383 10.4336C42.6068 10.6393 42.4354 10.9649 42.224 11.4049C42.0812 11.702 41.9498 12.0791 41.8355 12.5362C41.7555 12.8448 41.6755 13.1419 41.6069 13.4447C41.6069 13.4504 41.6069 13.4619 41.6126 13.4676C41.6184 13.479 41.6298 13.4847 41.6469 13.4733C41.6583 13.4676 41.6698 13.4562 41.6755 13.4504C41.7098 13.4047 41.7326 13.3762 41.7383 13.359C41.8183 13.1647 41.904 12.9876 41.9955 12.8219C42.0869 12.6619 42.1097 12.6734 42.0697 12.8505C41.9726 13.2905 41.864 13.7076 41.8698 14.1475C41.8812 14.9532 41.8869 15.7645 41.8869 16.5873C41.8869 16.7987 41.9212 17.0044 41.9383 17.2101C41.944 17.2787 41.9897 17.3187 42.0812 17.3244C42.1612 17.3301 42.2126 17.3301 42.2354 17.313C42.4468 17.4044 42.664 17.4444 42.8811 17.4329C42.8925 17.4329 42.8982 17.4387 42.8982 17.4501C42.8925 17.8329 43.0468 18.1015 43.2925 18.37C43.3553 18.4386 43.3439 18.4557 43.2525 18.4271C42.9097 18.3014 42.5383 18.2214 42.1383 18.1929C41.7498 18.1643 41.4184 18.2672 41.1327 18.4957C40.887 18.6957 40.687 18.8957 40.5385 19.0899C40.3042 19.3985 40.0642 19.6899 39.8185 19.9642C39.2357 20.6269 38.2072 20.9641 37.3559 20.9983C36.6131 21.0269 35.8874 20.9641 35.1732 20.8041C35.0589 20.7755 34.8761 20.7527 34.6304 20.7298C34.4818 20.7184 34.3447 20.7355 34.2133 20.7812C33.8248 20.9241 33.4248 21.5812 33.5619 21.9925C33.6076 22.1354 33.6476 22.2839 33.6762 22.4554C33.7333 22.7753 33.8819 22.9867 34.1104 23.2039C34.4133 23.4896 34.7332 23.7238 35.0704 23.9067C35.1389 23.9409 35.1732 24.0095 35.1789 24.1124C35.1846 24.2895 35.1846 24.4552 35.1675 24.6037C35.0989 25.3522 34.9104 26.055 34.6075 26.7121C34.3447 27.2835 34.0419 27.8663 33.7048 28.472C32.9677 29.7861 32.1849 31.1232 31.3678 32.4773C30.985 33.1059 30.6079 33.7744 30.2422 34.4714C30.0479 34.8371 29.8822 35.18 29.7451 35.4999C29.4023 36.3113 29.1337 37.1398 28.9509 37.9854C28.848 38.4654 28.7909 38.9739 28.7281 39.4767C28.6595 39.991 28.6366 40.5281 28.6138 41.0594C28.5966 41.2766 28.5166 41.4994 28.3624 41.7165C27.9167 42.3508 27.3739 42.7964 26.7282 43.0536C26.5511 43.1221 26.3797 43.1964 26.2026 43.2592C26.1454 43.2821 26.0826 43.2935 26.014 43.2935C25.974 43.2935 25.974 43.2878 26.0083 43.2764C26.1226 43.2364 26.2368 43.185 26.3454 43.1221C26.5168 43.0193 26.6882 42.905 26.8539 42.7793C26.8654 42.7736 26.8654 42.7564 26.8596 42.745L26.8482 42.7336C26.8425 42.7279 26.8311 42.7222 26.8197 42.7279C26.4768 42.8993 26.2026 43.0021 25.9969 43.0421C25.6598 43.105 25.2598 43.1335 24.8027 43.1221C24.797 43.1221 24.797 43.1221 24.797 43.1164C24.797 43.1107 24.797 43.105 24.797 43.0993C25.0427 43.0707 25.2598 42.9907 25.4541 42.8593C25.5055 42.825 25.7226 42.7564 25.7398 42.7336C25.7455 42.7279 25.7455 42.7222 25.7455 42.7164C25.7455 42.6993 25.734 42.6879 25.7112 42.6936C25.1855 42.7793 24.677 42.7336 24.197 42.5565C23.8656 42.4365 23.5514 42.2993 23.26 42.1508C23.1343 42.0879 23.0257 42.0079 22.9343 41.9108C22.5115 41.4708 22.2029 41.008 22.0029 40.5281C21.8772 40.2309 21.7687 39.8595 21.6658 39.4139C21.5344 38.8254 21.6258 38.1797 21.7744 37.614C21.8144 37.4598 21.8372 37.2026 21.843 36.837C22.3858 35.8256 23.0257 34.9685 23.7628 34.2715C24.3456 33.7172 24.9055 33.1801 25.5169 32.6202C26.134 32.0545 26.6997 31.506 27.1968 30.8375C27.6082 30.2832 27.8596 29.7062 28.0195 29.0205C28.2424 28.0377 28.3795 27.0721 28.4367 26.1122C28.5224 24.6666 28.5566 23.261 28.5395 21.884C28.5338 21.444 28.5109 20.9755 28.4766 20.4727C28.4595 20.2613 28.4481 20.0384 28.4367 19.8156C28.3967 19.0157 28.4252 18.2043 28.5224 17.3872C28.6081 16.6387 28.6652 15.7531 28.7681 15.0903C29.0423 13.3419 29.6194 11.6563 30.5393 10.1136C31.2993 8.84513 32.3792 7.91378 33.7848 7.32526C34.3961 7.06814 34.8932 6.8853 35.2818 6.77674C36.2188 6.50819 37.1445 6.33678 38.0701 6.24536C38.7443 6.18251 39.4414 6.14822 40.1499 6.15394C40.4699 6.15394 40.8184 6.17679 41.1841 6.21107C41.5441 6.24536 41.8869 6.29107 42.2012 6.34249C42.464 6.3882 42.7554 6.47962 43.0639 6.61675C43.721 6.90244 44.2981 7.26241 44.8066 7.70237C45.1552 7.99949 45.5494 8.37088 46.0008 8.81085C46.7265 9.52507 47.3264 10.3364 47.9149 11.1821C48.1606 11.5363 48.3435 11.862 48.4749 12.1648C48.6463 12.5648 48.7892 13.0162 48.8977 13.5247C49.0577 14.2675 49.1777 14.9246 49.2462 15.496C49.2862 15.8388 49.3091 16.2902 49.3091 16.8501C49.3148 17.5929 49.292 18.3471 49.2405 19.1128C49.212 19.5413 49.1948 19.9242 49.172 20.2556C49.132 21.0269 49.0863 21.7754 49.0406 22.5068C49.0406 22.5239 49.0177 22.5411 49.0006 22.5296C48.9834 22.5239 48.972 22.5125 48.9606 22.5011C48.0806 21.5412 47.0807 20.6612 45.9608 19.867C45.8523 19.7927 45.6866 19.7013 45.5609 19.6042C45.538 19.5813 45.538 19.5699 45.5723 19.5699C45.6009 19.5699 45.6294 19.5756 45.6523 19.587C45.6637 19.5928 45.6809 19.5985 45.6923 19.5985C45.9323 19.6156 46.1722 19.587 46.4122 19.5185C47.1264 19.3071 47.6635 18.8957 48.0178 18.2843C48.1549 18.05 48.2178 17.8101 48.2178 17.5701C48.2178 17.5301 48.2635 17.5072 48.292 17.5301L48.3378 17.5644C48.3835 17.5986 48.4463 17.5758 48.4692 17.5244C48.5435 17.3187 48.5263 17.073 48.372 16.913C48.3092 16.8501 48.2749 16.7759 48.2806 16.6902C48.3092 16.3188 48.3263 15.9816 48.3263 15.6788C48.3263 15.1246 48.2463 14.5418 48.1721 13.9818C48.0692 13.2333 47.7892 12.4791 47.3436 11.7192C47.3378 11.7077 47.3436 11.6906 47.3607 11.6906C47.3721 11.6906 47.3836 11.6963 47.395 11.702C47.635 11.9077 47.8578 12.1191 48.0521 12.342C48.0806 12.3762 48.0864 12.3705 48.0692 12.3305C47.7492 11.582 47.0979 11.1364 46.3036 10.8278ZM34.6761 10.3878C34.499 10.485 34.3447 10.605 34.2133 10.7535C34.179 10.7935 34.0533 10.9421 33.8362 11.2049C33.6076 11.4849 33.4191 11.7877 33.2819 12.1191C33.0877 12.3648 32.962 12.6391 32.9105 12.9419C32.8591 13.2276 32.8077 13.5533 32.7563 13.9133C32.7391 14.039 32.7277 14.1589 32.722 14.2847C32.7163 14.4218 32.6877 14.5532 32.6249 14.6903C32.6134 14.7189 32.6077 14.776 32.6134 14.8046C32.6249 14.856 32.642 14.856 32.6591 14.8103C32.7677 14.5475 32.8363 14.3189 32.8648 14.1132C32.9448 14.1361 32.9791 14.2104 32.962 14.3475C32.8306 15.2731 32.8134 16.1473 32.9105 16.9758C32.9163 17.0501 32.9448 17.1473 32.9791 17.273C32.9105 17.2844 32.8648 17.2901 32.8477 17.2958C32.7791 17.3244 32.7791 17.3358 32.8534 17.3358C33.1391 17.3472 33.4248 17.353 33.7162 17.353C33.739 17.353 33.7619 17.3701 33.7676 17.3929C33.9219 17.8101 34.1504 18.1814 34.459 18.4957C35.396 19.4671 36.5845 19.7813 37.933 19.547C38.7786 19.3985 39.4528 19.0157 39.9499 18.3929C40.1213 18.1814 40.2699 17.9015 40.407 17.5586C40.4185 17.5301 40.4356 17.5187 40.4699 17.5244C40.7499 17.5758 40.8698 17.3244 40.8813 17.0901C40.8984 16.7987 40.9156 16.553 40.5385 16.513C40.5099 16.513 40.487 16.4845 40.4927 16.4559C40.5842 15.7931 40.5613 15.1303 40.4299 14.4732C40.4584 14.4046 40.5213 14.3761 40.6299 14.3932C40.6584 14.0561 40.6299 13.6847 40.5385 13.2733C40.4185 12.7248 40.3156 12.3134 40.2242 12.0334C40.2242 11.9534 40.2242 11.8791 40.2242 11.8049C40.2242 11.7249 40.2185 11.6506 40.2013 11.5763C40.1099 11.2049 39.9842 10.8221 39.8357 10.4336L39.9956 10.5021C40.0185 10.5136 40.0471 10.4964 40.0471 10.4678C40.0813 9.9536 40.0242 9.51935 39.7042 9.09082C39.6928 9.07368 39.6757 9.05654 39.6585 9.0394C39.5957 8.98797 39.5785 8.9994 39.6071 9.07368C39.6357 9.14796 39.6642 9.22795 39.6871 9.31366C39.7214 9.42222 39.6985 9.43365 39.6299 9.34223C39.4471 9.10796 39.2186 8.94226 38.9443 8.83941C38.9329 8.8337 38.9214 8.84513 38.9157 8.85656C38.91 8.87941 38.9157 8.89084 38.9329 8.90798C39.0129 8.97655 39.0929 9.05654 39.1671 9.13653C39.2186 9.19367 39.2071 9.2051 39.1386 9.18224C38.87 9.07939 38.6015 8.96512 38.3101 8.94226C37.5444 8.87941 36.8645 8.98797 36.2817 9.27938C35.8817 9.47936 35.4475 9.75933 34.9789 10.125C34.9218 10.1707 34.8647 10.2221 34.8132 10.2736C34.7675 10.3136 34.7218 10.3593 34.6761 10.3878ZM36.6588 20.5755C37.7215 20.7127 38.7386 20.4213 39.4985 19.6556C39.8814 19.2671 40.2013 18.85 40.4527 18.4043C40.5042 18.3129 40.5384 18.21 40.5727 18.1129C40.5727 18.1072 40.5727 18.1015 40.567 18.1015C40.5613 18.1015 40.5556 18.1015 40.5556 18.1072C40.4927 18.2614 40.407 18.41 40.3099 18.5471C39.6185 19.5242 38.6758 20.2327 37.4759 20.4441C37.2473 20.4841 37.013 20.5127 36.7731 20.5355C36.7331 20.5355 36.6931 20.547 36.6531 20.5641C36.6474 20.5698 36.6474 20.5755 36.6588 20.5755ZM47.3207 19.5756C47.0407 19.7185 46.7036 19.827 46.2979 19.907C46.2751 19.9127 46.2694 19.9242 46.2865 19.9413C46.2979 19.9527 46.3151 19.9642 46.3322 19.9642C47.2407 19.9756 47.8921 19.4785 48.4063 18.7757C48.412 18.77 48.412 18.7643 48.4063 18.7585L48.3949 18.7471H48.3892C48.0635 19.1071 47.7035 19.3813 47.3207 19.5756ZM34.019 20.0041C34.5447 20.307 35.1846 20.5012 35.8017 20.4327C35.8131 20.4327 35.8132 20.427 35.8132 20.4155V20.3984C35.8132 20.3984 35.8131 20.3927 35.8074 20.3927C35.6417 20.3927 35.4875 20.3755 35.3446 20.3355C35.0132 20.2384 34.6818 20.1184 34.3504 19.9756C33.8019 19.7356 33.3962 19.3928 33.0705 18.9242C33.0648 18.9185 33.0591 18.9185 33.0534 18.9185C33.0477 18.9185 33.0477 18.9242 33.0534 18.93C33.2648 19.3928 33.5848 19.7527 34.019 20.0041ZM46.7779 20.1584C47.1322 20.1013 47.5207 19.9927 47.7778 19.7299C47.7892 19.7185 47.7892 19.707 47.7835 19.6956C47.7835 19.6899 47.7778 19.6842 47.7721 19.6842C47.7607 19.6842 47.7549 19.6842 47.7435 19.6899C47.4464 19.8727 47.1207 20.0156 46.7665 20.1298C46.7665 20.1298 46.7608 20.1299 46.7665 20.1356L46.7722 20.1527C46.7665 20.1527 46.7665 20.1584 46.7779 20.1584Z" fill="#464B51"/>
<path d="M46.297 10.645C45.8399 10.4565 45.3656 10.2965 44.8857 10.165C44.7257 10.1193 44.5828 10.0965 44.4514 10.0965C44.2229 10.0965 44.0172 10.0965 43.8229 10.0908C43.6915 10.0908 43.5601 10.1136 43.4344 10.1593C43.4172 10.165 43.4001 10.165 43.383 10.1536C43.3087 10.1022 43.2458 10.0336 43.2001 9.95364C43.1487 9.83365 43.1201 9.70223 43.1201 9.57082C43.1201 9.4394 43.1544 9.31941 43.223 9.22799C43.4458 8.91944 43.7486 8.79374 44.1315 8.84516C44.1429 8.84516 44.1486 8.85088 44.1543 8.86231C44.1657 8.87945 44.1543 8.89659 44.1372 8.9023C44.0343 8.90802 43.9486 8.93659 43.8686 8.9823C43.7315 9.06229 43.7372 9.08514 43.8972 9.05657C44.1315 9.01086 44.3543 9.02801 44.5714 9.10228C44.6571 9.13085 44.6514 9.148 44.5657 9.15371C44.3657 9.15942 44.1715 9.18228 43.9829 9.21656C43.9715 9.22227 43.96 9.22799 43.9543 9.23942C43.9543 9.24513 43.9543 9.25084 43.96 9.25656C43.9658 9.26227 43.9658 9.26227 43.9715 9.26227C44.4514 9.2737 44.8743 9.34798 45.2399 9.48511C45.6856 9.65081 46.1598 9.86793 46.5427 10.1593C46.7769 10.3365 47.0112 10.5479 47.2569 10.7878C47.4169 10.9478 47.554 11.1192 47.6626 11.3078C47.6969 11.3649 47.6854 11.3764 47.6283 11.3421C47.2169 11.0735 46.7712 10.845 46.297 10.645Z" fill="black"/>
<path d="M39.8285 10.4223C39.3942 10.2623 39.0343 10.1651 38.7543 10.1252C38.3543 10.068 37.8172 10.0566 37.1373 10.0909C36.7602 10.108 36.4059 10.1594 36.0859 10.2394C35.7431 10.3251 35.4003 10.4337 35.0689 10.5537C34.8975 10.6165 34.7489 10.6908 34.6232 10.7765C34.6004 10.788 34.5718 10.7822 34.5661 10.7537C34.5489 10.6851 34.5661 10.6165 34.6118 10.548C34.6461 10.4965 34.6689 10.4394 34.6746 10.3823C34.7204 10.348 34.7661 10.308 34.8118 10.2623C34.8632 10.2109 34.9203 10.1594 34.9775 10.1137C35.446 9.74804 35.8803 9.46807 36.2802 9.26809C36.863 8.97668 37.543 8.86812 38.3086 8.93097C38.6 8.95383 38.8743 9.0681 39.1371 9.17095C39.2057 9.19952 39.2171 9.18238 39.1657 9.12524C39.0914 9.04525 39.0114 8.96526 38.9314 8.89669C38.9143 8.88526 38.9086 8.86812 38.9143 8.84527C38.9143 8.83384 38.9257 8.82812 38.9428 8.82812C39.2171 8.92526 39.4514 9.09096 39.6285 9.33094C39.6971 9.42236 39.7199 9.41093 39.6856 9.30237C39.6628 9.21666 39.6342 9.13667 39.6056 9.06239C39.5771 8.98811 39.5942 8.97097 39.6571 9.02811C39.6742 9.03953 39.6913 9.05668 39.7028 9.07953C40.0227 9.50806 40.0799 9.94231 40.0456 10.4566C40.0456 10.4851 40.017 10.5023 39.9942 10.4908L39.8285 10.4223Z" fill="black"/>
<path d="M43.2002 9.94824C43.2516 10.0282 43.3145 10.0968 43.383 10.1482C43.4002 10.1597 43.4173 10.1597 43.4345 10.1539C43.5602 10.1082 43.6916 10.0854 43.823 10.0854C44.0116 10.0854 44.223 10.0911 44.4515 10.0911C44.5829 10.0911 44.7258 10.1139 44.8858 10.1597C45.3657 10.2911 45.84 10.4568 46.2971 10.6396C46.2628 10.6568 46.2514 10.6853 46.2571 10.7196C46.2628 10.7539 46.2799 10.7882 46.3028 10.8225C46.0628 10.8339 45.8171 10.7653 45.6057 10.7767C45.3714 10.7825 45.1315 10.811 44.8858 10.851C44.2172 10.9653 43.6859 11.3024 43.303 11.8681C43.0631 12.2223 42.9088 12.6623 42.7545 13.0737C42.6631 13.3079 42.6231 13.5594 42.606 13.8108C42.5488 14.5478 42.5031 15.2849 42.4745 16.0163C42.4688 16.1306 42.4746 16.2391 42.4917 16.3477C42.4917 16.3705 42.4917 16.3877 42.4745 16.3991C42.3717 16.5191 42.286 16.5877 42.2403 16.7476C42.1946 16.9133 42.2003 17.1076 42.2574 17.3247C42.2346 17.3419 42.1889 17.3476 42.1032 17.3362C42.0117 17.3247 41.966 17.2905 41.9603 17.2219C41.9432 17.0162 41.9089 16.8105 41.9089 16.5991C41.9032 15.7763 41.9032 14.9649 41.8917 14.1593C41.886 13.7136 41.9946 13.3022 42.0917 12.8623C42.1317 12.6851 42.1032 12.6737 42.0174 12.8337C41.926 12.9937 41.8403 13.1708 41.7603 13.3708C41.7546 13.3879 41.7318 13.4165 41.6975 13.4622C41.6918 13.4736 41.6803 13.4794 41.6689 13.4851C41.6518 13.4965 41.6403 13.4908 41.6346 13.4794C41.6289 13.4736 41.6289 13.4622 41.6289 13.4565C41.6975 13.1537 41.7775 12.8566 41.8575 12.548C41.9717 12.0909 42.0974 11.7138 42.246 11.4167C42.4574 10.9767 42.6288 10.6568 42.7602 10.4453C42.8345 10.2854 42.9888 10.1254 43.2002 9.94824ZM42.5374 13.3308C42.6803 12.3023 42.9145 11.3081 43.3316 10.3711C43.3316 10.3653 43.3316 10.3596 43.3259 10.3596L43.3145 10.3539C43.303 10.3482 43.2916 10.3482 43.2859 10.3596C43.1202 10.6225 42.9888 10.9082 42.8917 11.2224C42.726 11.7481 42.606 12.2566 42.5374 12.748C42.5146 12.9194 42.5031 13.108 42.5145 13.3137C42.5145 13.3194 42.5203 13.3251 42.5203 13.3308C42.5203 13.3308 42.5203 13.3365 42.526 13.3365C42.5317 13.3479 42.5317 13.3479 42.5374 13.3308ZM42.3717 13.1422C42.4117 12.988 42.3946 12.8166 42.4231 12.6509C42.4631 12.4109 42.5031 12.1595 42.5431 11.9081C42.5488 11.8852 42.5374 11.8795 42.5203 11.8909C42.5088 11.8966 42.5088 11.9024 42.5031 11.9138C42.4974 12.0052 42.486 12.1023 42.4688 12.1995C42.4403 12.348 42.4174 12.4395 42.4174 12.4794C42.4003 12.6451 42.3831 12.8108 42.3774 12.9823C42.3717 13.0851 42.326 13.1594 42.3488 13.2622C42.3488 13.2679 42.3489 13.268 42.3546 13.268C42.3546 13.268 42.3603 13.2679 42.3603 13.2622C42.3546 13.2165 42.3603 13.1765 42.3717 13.1422Z" fill="#302E31"/>
<path d="M39.8284 10.4234C39.9827 10.8119 40.1027 11.1947 40.1941 11.5661C40.2112 11.6404 40.2226 11.7147 40.2169 11.7947C40.2169 11.869 40.2169 11.949 40.2169 12.0232C40.0969 11.6976 39.977 11.3719 39.8512 11.0519C39.8113 10.9548 39.7712 10.8633 39.7313 10.7776C39.6798 10.6805 39.6798 10.6862 39.7141 10.7834C39.9598 11.469 40.1598 12.2632 40.3541 13.0117C40.4055 13.2117 40.4569 13.4403 40.5026 13.6974C40.5426 13.9202 40.5826 14.1545 40.6226 14.3888C40.5198 14.3716 40.4512 14.4002 40.4226 14.4687C40.2226 13.7831 39.9312 13.1374 39.5484 12.5375C39.2799 12.1147 38.977 11.7718 38.6456 11.5147C38.3657 11.2976 38.0343 11.1433 37.64 11.0405C37.2458 10.9376 36.9029 10.9148 36.6115 10.9662C36.2859 11.0233 35.9544 11.1547 35.623 11.3547C34.3946 12.0918 33.6918 13.1831 33.5089 14.623C33.4632 14.9773 33.4804 15.3487 33.4975 15.7086C33.4975 15.7086 33.4975 15.7143 33.5032 15.7143C33.5089 15.7143 33.5089 15.7143 33.5089 15.7143C33.5375 15.5372 33.5489 15.3544 33.5547 15.1715C33.5604 14.983 33.6004 14.7944 33.6289 14.6116C33.7261 14.0688 33.9718 13.5145 34.2517 13.0517C34.6917 12.3204 35.2916 11.7718 36.0573 11.4119C36.3715 11.2633 36.6801 11.1833 36.9829 11.1719C37.0401 11.1719 37.1715 11.189 37.3715 11.229C36.8858 11.4462 36.6801 11.8518 36.5601 12.3432C36.4744 12.6918 36.4001 13.0174 36.343 13.3088C36.2344 13.8402 36.2458 14.3716 36.3715 14.903C36.4744 15.3315 36.7315 15.7258 37.1486 16.0857C36.8115 16.1257 36.503 16.2 36.2116 16.2972C36.1944 16.3029 36.183 16.3086 36.183 16.3086C36.1544 16.3314 36.1544 16.3372 36.1887 16.3314C36.5544 16.2743 36.8915 16.2114 37.2058 16.1486C37.28 16.2286 37.4115 16.2914 37.6 16.3429C37.4457 16.3714 37.2972 16.3886 37.1486 16.3943C36.663 16.4171 36.183 16.4857 35.6973 16.5314C35.6916 16.5314 35.6859 16.5371 35.6859 16.5428C35.6859 16.5486 35.6916 16.5543 35.6973 16.5543C36.3887 16.5486 37.0801 16.5257 37.7714 16.4971C38.0914 16.48 38.3028 16.48 38.3942 16.4857C38.3771 16.4914 38.36 16.4971 38.3371 16.4971C38.3142 16.4971 38.2971 16.5143 38.2914 16.5371C38.2857 16.5657 38.2971 16.5886 38.3142 16.6171C38.3314 16.64 38.36 16.6514 38.3828 16.6457C38.5599 16.6286 38.7142 16.6343 38.8456 16.6628C38.9713 16.6857 38.9656 16.7028 38.8399 16.7085C38.7371 16.7143 38.6285 16.7143 38.5257 16.7085C38.4857 16.7085 38.4514 16.7143 38.4171 16.7371C38.4114 16.7371 38.4114 16.7428 38.4057 16.7428L38.1371 16.8228C38.1085 16.8285 38.1085 16.8685 38.1314 16.88C38.2171 16.9142 38.3085 16.9428 38.4057 16.9657C38.5599 16.9999 38.6856 17.0742 38.7771 17.1942C37.5657 17.0857 36.3087 17.0457 35.0174 17.0685C34.2974 17.0799 33.6061 17.1542 32.9547 17.2799C32.9147 17.1542 32.8919 17.0571 32.8861 16.9828C32.789 16.1543 32.8062 15.2801 32.9376 14.3545C32.9547 14.2173 32.9261 14.1431 32.8404 14.1202C32.8919 13.606 32.9661 13.0803 33.1204 12.5832C33.1661 12.4346 33.2118 12.2861 33.2575 12.1318C33.3947 11.8004 33.5832 11.4976 33.8118 11.2176C34.0289 10.9548 34.1489 10.8062 34.1889 10.7662C34.326 10.6177 34.4803 10.4977 34.6517 10.4005C34.646 10.4577 34.6288 10.5148 34.5888 10.5662C34.5431 10.6348 34.5317 10.7034 34.5431 10.7719C34.5488 10.7948 34.5774 10.8062 34.6003 10.7948C34.726 10.7091 34.8745 10.6348 35.046 10.5719C35.3774 10.4462 35.7145 10.3434 36.063 10.2577C36.3887 10.1777 36.7372 10.1263 37.1143 10.1091C37.7886 10.0748 38.3257 10.0863 38.7313 10.1434C39.0342 10.1663 39.3941 10.2691 39.8284 10.4234ZM33.189 13.4345C33.3375 12.8346 33.5375 12.2518 33.7718 11.6861C33.8403 11.5261 33.9375 11.349 34.0575 11.1547C34.086 11.109 34.0975 11.0576 34.0918 11.0062C34.086 10.9605 34.0746 10.9605 34.0575 11.0005C34.0118 11.1033 33.9832 11.1947 33.9089 11.2862C33.8575 11.349 33.8061 11.429 33.7604 11.5204C33.5032 12.029 33.3147 12.5489 33.2004 13.0689C33.1375 13.3603 33.0804 13.646 33.0233 13.9431C33.0233 13.9545 33.0233 13.9602 33.0347 13.9602L33.0461 13.9659H33.0518C33.0976 13.7945 33.1375 13.6174 33.189 13.4345Z" fill="#302E31"/>
<path d="M43.3322 10.3705C42.9151 11.3076 42.6866 12.3018 42.538 13.3302C42.5323 13.3474 42.5323 13.3531 42.5209 13.336C42.5209 13.336 42.5208 13.3302 42.5151 13.3302C42.5094 13.3245 42.5094 13.3188 42.5094 13.3131C42.498 13.1074 42.5037 12.9189 42.5323 12.7474C42.6066 12.2561 42.7208 11.7475 42.8865 11.2219C42.9837 10.9133 43.1151 10.6276 43.2808 10.3591C43.2865 10.3476 43.2979 10.3476 43.3094 10.3534L43.3208 10.3591C43.3322 10.3591 43.3322 10.3648 43.3322 10.3705Z" fill="black"/>
<path d="M40.2221 12.0285C40.3135 12.3085 40.4164 12.7256 40.5364 13.2684C40.6278 13.6741 40.6564 14.0512 40.6278 14.3883C40.5878 14.1541 40.5478 13.9255 40.5078 13.697C40.4621 13.4456 40.4164 13.217 40.3592 13.0113C40.1593 12.2628 39.965 11.4743 39.7193 10.7829C39.685 10.6801 39.6907 10.6801 39.7364 10.7772C39.7822 10.8629 39.8221 10.9544 39.8564 11.0515C39.9821 11.3772 40.1021 11.6971 40.2221 12.0285Z" fill="black"/>
<path d="M40.4281 14.4664C40.5595 15.1235 40.5824 15.7863 40.4909 16.4491C40.4852 16.4776 40.5081 16.5062 40.5367 16.5062C40.9138 16.5462 40.8909 16.7919 40.8795 17.0833C40.8681 17.3175 40.7481 17.5747 40.4681 17.5175C40.4395 17.5118 40.4167 17.5232 40.4052 17.5518C40.2738 17.8946 40.1195 18.1746 39.9481 18.386C39.4453 19.0088 38.7711 19.3917 37.9312 19.5402C36.5827 19.7745 35.3942 19.4602 34.4572 18.4889C34.1486 18.1689 33.9201 17.8032 33.7658 17.3861C33.7601 17.3633 33.7372 17.3461 33.7144 17.3461C33.423 17.3461 33.1373 17.3404 32.8516 17.329C32.7773 17.329 32.7716 17.3118 32.8459 17.289C32.863 17.2833 32.903 17.2776 32.9773 17.2661C33.6287 17.1404 34.3144 17.0719 35.04 17.0547C36.3313 17.0319 37.5826 17.0719 38.7997 17.1804L40.5709 17.3118C40.5881 17.3118 40.6109 17.3004 40.6166 17.2833C40.6738 17.1347 40.6909 16.9804 40.6681 16.809C40.6624 16.7862 40.6509 16.769 40.6338 16.7576L40.4624 16.649C40.4224 16.6262 40.3995 16.5805 40.3995 16.5348C40.4052 16.0834 40.3995 15.6606 40.3767 15.272C40.3138 14.1235 39.7424 13.0036 38.9939 12.1294C38.5483 11.6095 38.0054 11.3067 37.3712 11.2209C37.1712 11.1809 37.0455 11.1638 36.9827 11.1638C36.6799 11.1752 36.3713 11.2552 36.057 11.4038C35.2914 11.7695 34.6915 12.318 34.2515 13.0436C33.9715 13.5065 33.7258 14.0607 33.6287 14.6035C33.5944 14.7863 33.5544 14.9749 33.5544 15.1635C33.5487 15.3463 33.5373 15.5291 33.5087 15.7063C33.5087 15.7063 33.5087 15.7063 33.503 15.7063C33.4973 15.7063 33.4973 15.7063 33.4973 15.7005C33.4801 15.3406 33.463 14.9692 33.5087 14.6149C33.6915 13.1751 34.3943 12.0837 35.6228 11.3466C35.9542 11.1467 36.2856 11.0152 36.6113 10.9581C36.9027 10.9067 37.2455 10.9295 37.6398 11.0324C38.0283 11.1352 38.3654 11.2952 38.6454 11.5066C38.9825 11.7638 39.2796 12.1066 39.5482 12.5294C39.9367 13.1351 40.2281 13.7807 40.4281 14.4664ZM34.5486 18.2432C35.0571 19.0088 36.0113 19.4259 36.9084 19.4602C37.5369 19.4831 38.1026 19.4031 38.6054 19.2145C39.0339 19.0545 39.3996 18.8146 39.7139 18.4946C39.9996 18.2318 40.2053 17.9175 40.331 17.5518C40.3367 17.5404 40.3252 17.529 40.3138 17.529C40.0224 17.529 39.7253 17.449 39.4339 17.4204C39.2168 17.3975 38.9882 17.3804 38.7597 17.3747C38.7482 17.3747 38.7425 17.3804 38.7425 17.3918C38.6854 17.6775 38.554 17.9632 38.3597 18.2375C37.994 18.6774 37.5312 18.9231 36.977 18.9745C36.3656 19.0317 35.8228 18.8374 35.36 18.3917C35.2685 18.306 35.1886 18.2203 35.12 18.1403C34.9543 17.8946 34.84 17.6318 34.7829 17.3575C34.7772 17.329 34.76 17.3175 34.7372 17.3233L34.0801 17.3461C34.0515 17.3461 34.0458 17.3575 34.0515 17.3861C34.1715 17.6889 34.3429 17.9803 34.5486 18.2432ZM37.4684 18.1061C37.6283 18.2146 37.8512 18.1632 37.9655 17.9975C38.0797 17.8318 38.0397 17.6032 37.8797 17.4947C37.7198 17.3861 37.4969 17.4375 37.3827 17.6032C37.2684 17.7689 37.3084 17.9975 37.4684 18.1061ZM37.1427 17.7689C37.1427 17.6889 37.0798 17.6204 36.9941 17.6204C36.9141 17.6204 36.8455 17.6832 36.8455 17.7689C36.8455 17.8546 36.9084 17.9175 36.9941 17.9175C37.0741 17.9175 37.1427 17.8546 37.1427 17.7689Z" fill="black"/>
<path d="M33.1891 13.4341C33.1434 13.6169 33.0977 13.7941 33.052 13.9655C33.052 13.9655 33.052 13.9712 33.0463 13.9655L33.0349 13.9598C33.0234 13.9598 33.0234 13.954 33.0234 13.9426C33.0806 13.6455 33.1377 13.3541 33.2006 13.0684C33.3148 12.5485 33.5034 12.0285 33.7605 11.52C33.8062 11.4286 33.8576 11.3543 33.9091 11.2857C33.9776 11.2 34.0119 11.1029 34.0576 11C34.0748 10.96 34.0862 10.96 34.0919 11.0057C34.0976 11.0572 34.0862 11.1086 34.0576 11.1543C33.9376 11.3486 33.8405 11.5257 33.7719 11.6857C33.532 12.2513 33.3377 12.8341 33.1891 13.4341Z" fill="black"/>
<path d="M47.7767 13.0389C47.7024 12.9932 47.651 12.9532 47.6224 12.9132C47.3996 12.6275 47.1253 12.2561 46.7025 12.3304C46.5025 12.3647 46.4511 12.6104 46.4283 12.7818C46.4168 12.8503 46.4054 12.8503 46.3883 12.7875C46.3597 12.6903 46.3311 12.5932 46.3026 12.4904C46.2797 12.4161 46.2454 12.3589 46.194 12.3132C46.1426 12.2675 46.1254 12.279 46.1311 12.3475L46.2397 13.256C46.2397 13.2674 46.234 13.2789 46.2169 13.2789C46.1997 13.2789 46.1883 13.2732 46.1826 13.256C46.1312 13.1132 46.0912 12.9703 46.0683 12.8332C46.0397 12.6675 45.9883 12.5018 45.9426 12.3361C45.8969 12.1761 45.7712 11.9704 45.5998 11.9247C45.5769 11.919 45.5598 11.9247 45.5426 11.9361C45.4855 11.9818 45.4512 12.039 45.4341 12.1075C45.2569 12.7018 45.2169 13.3131 45.1769 13.9702C45.1484 14.5016 45.1484 15.0501 45.1427 15.5872C45.1427 15.7129 45.1484 15.8501 45.1541 15.9986C45.1541 16.0215 45.1655 16.0329 45.1884 16.0329L45.2684 16.05L44.8513 16.0558C44.8398 16.0558 44.8284 16.0672 44.8284 16.0786V16.0958C44.8341 16.1243 44.8455 16.1358 44.8741 16.1358L45.2169 16.1472C45.2055 16.3015 45.2684 16.37 45.4169 16.3586C45.3026 16.37 45.1884 16.3757 45.0741 16.37C44.577 16.3415 44.0742 16.3529 43.5599 16.3586C43.4457 16.3586 43.3428 16.37 43.2571 16.3929C43.1943 16.41 43.1943 16.4214 43.2628 16.4214L45.3598 16.4329C45.4455 16.5186 45.5083 16.5757 45.5426 16.5929C45.634 16.6443 45.7426 16.6957 45.874 16.7357C45.9712 16.77 46.0854 16.7928 46.2283 16.81C46.4625 16.8443 46.6911 16.8728 46.9197 16.9071C46.9711 16.9128 46.9711 16.93 46.9254 16.9528C46.8968 16.97 46.8568 16.9814 46.8225 16.9814C46.554 17.01 46.3083 17.05 46.0797 17.0957C46.0569 17.1014 46.0397 17.1128 46.0283 17.1357C46.0054 17.1871 45.9597 17.2157 45.8969 17.2099C45.8226 17.2042 45.7712 17.2271 45.7369 17.2785C45.7198 17.3071 45.7255 17.3185 45.7598 17.3185C45.794 17.3185 45.8112 17.3299 45.8226 17.3471C45.4169 17.3471 45.0113 17.3299 44.6113 17.2899C44.4284 17.2728 44.137 17.2671 43.7371 17.2728C43.5542 17.2728 43.3771 17.2671 43.2114 17.2499C42.9372 17.2214 42.6343 17.2157 42.3772 17.0957C42.3601 17.09 42.3486 17.0728 42.3429 17.0557C42.2801 16.8271 42.48 16.6157 42.64 16.4786C42.6743 16.45 42.6972 16.4157 42.6972 16.37C42.72 16.0786 42.76 15.7986 42.7772 15.4901C42.8 15.0616 42.8286 14.5759 42.8686 14.0331C42.8914 13.7245 42.9257 13.4903 42.9714 13.3303C43.0228 13.1417 43.1086 12.9189 43.2114 12.6618C43.4171 12.159 43.6514 11.7704 44.0799 11.4676C44.5199 11.1533 45.1655 11.0619 45.7026 11.0676C46.0969 11.0733 46.474 11.1705 46.8339 11.359C46.9825 11.439 47.1025 11.4962 47.1882 11.6504C47.4453 12.1018 47.6796 12.5589 47.7767 13.0389Z" fill="#302E31"/>
<path d="M37.3658 11.2227C38 11.3084 38.5428 11.6112 38.9885 12.1311C39.737 13.0054 40.3084 14.131 40.3713 15.2737C40.3941 15.6623 40.3998 16.0851 40.3941 16.5365C40.3941 16.5822 40.417 16.6279 40.457 16.6507L40.6284 16.7593C40.6455 16.7707 40.657 16.7879 40.6627 16.8107C40.6855 16.9764 40.6684 17.1364 40.6112 17.285C40.6055 17.3021 40.5827 17.3135 40.5655 17.3135L38.7943 17.1821C38.6971 17.0621 38.5714 16.9879 38.4171 16.9536C38.32 16.9307 38.2286 16.9022 38.1429 16.8679C38.12 16.8564 38.12 16.8222 38.1486 16.8107L38.4171 16.7307C38.4229 16.7307 38.4229 16.7307 38.4286 16.725C38.4571 16.7022 38.4971 16.6907 38.5371 16.6965C38.64 16.7022 38.7486 16.7022 38.8514 16.6965C38.9771 16.6907 38.9771 16.6736 38.8571 16.6507C38.7257 16.6222 38.5714 16.6165 38.3943 16.6336C38.3657 16.6336 38.3429 16.6222 38.3257 16.605C38.3029 16.5822 38.2972 16.5536 38.3029 16.525C38.3086 16.5022 38.3257 16.4851 38.3486 16.4851C38.3714 16.4851 38.3886 16.4793 38.4057 16.4736L39.2856 16.4051C39.3428 16.3993 39.3428 16.3936 39.2856 16.3822C39.1485 16.3536 39.0057 16.3365 38.8457 16.3308C38.4171 16.3193 38.0058 16.3193 37.6115 16.3308C37.423 16.2794 37.2915 16.2165 37.2173 16.1365C37.3315 16.1308 37.4229 16.1137 37.4915 16.0794C37.5087 16.0737 37.5087 16.0679 37.4915 16.0622C37.3715 16.0394 37.263 16.0451 37.1601 16.0737C36.7487 15.708 36.4859 15.3194 36.383 14.8909C36.2573 14.3595 36.2459 13.8281 36.3545 13.2968C36.4173 13.0054 36.4859 12.6797 36.5716 12.3311C36.6744 11.8397 36.8801 11.4398 37.3658 11.2227Z" fill="#464B51"/>
<path d="M42.3727 13.1428C42.3612 13.1828 42.3555 13.2228 42.3498 13.2628C42.3498 13.2628 42.3498 13.2685 42.3441 13.2685C42.3441 13.2685 42.3384 13.2685 42.3384 13.2628C42.3155 13.1599 42.3612 13.0856 42.367 12.9828C42.3727 12.8114 42.3841 12.6457 42.4069 12.48C42.4127 12.4457 42.4298 12.3486 42.4584 12.2C42.4812 12.1029 42.4927 12.0057 42.4927 11.9143C42.4927 11.9029 42.4984 11.8915 42.5098 11.8915C42.5327 11.88 42.5384 11.8857 42.5326 11.9086C42.4927 12.16 42.4584 12.4057 42.4127 12.6514C42.3955 12.8171 42.4069 12.9828 42.3727 13.1428Z" fill="black"/>
<path d="M47.7768 13.0393C47.8682 13.2622 47.9253 13.4679 47.9653 13.6679C48.0625 14.1992 48.131 14.7706 48.1653 15.3763C48.1939 15.8505 48.1539 16.3019 48.1482 16.7761C48.1482 16.8447 48.171 16.9476 48.2167 16.9933C48.3367 17.1075 48.411 17.2504 48.4339 17.4218C48.4396 17.4504 48.411 17.4732 48.3824 17.4675C48.1482 17.4104 47.9025 17.4047 47.6625 17.3932C47.4968 17.3875 47.3368 17.3818 47.1768 17.3761C46.7254 17.3704 46.2683 17.3647 45.8169 17.3532C45.8055 17.3304 45.7827 17.3247 45.7541 17.3247C45.7255 17.3247 45.7141 17.3132 45.7312 17.2847C45.7655 17.2333 45.8227 17.2104 45.8912 17.2161C45.9541 17.2218 45.9941 17.199 46.0226 17.1418C46.0341 17.119 46.0512 17.1075 46.0741 17.1018C46.3026 17.0504 46.5483 17.0104 46.8169 16.9876C46.8569 16.9818 46.8911 16.9761 46.9197 16.959C46.9654 16.9361 46.9654 16.919 46.914 16.9133C46.6911 16.879 46.4569 16.8504 46.2226 16.8161C46.0855 16.799 45.9655 16.7704 45.8684 16.7419C45.737 16.6962 45.6227 16.6504 45.537 16.599C45.5027 16.5819 45.4456 16.5247 45.3541 16.439C45.7427 16.439 46.1026 16.4447 46.4398 16.4447C46.4569 16.4447 46.474 16.439 46.4797 16.4276C46.4912 16.4048 46.4855 16.399 46.4626 16.399L45.4113 16.3648C45.2627 16.3819 45.1941 16.3076 45.2113 16.1533L46.7883 16.1991C46.7883 16.1991 46.794 16.1991 46.794 16.1933V16.1819C46.794 16.1648 46.7883 16.1591 46.7711 16.1533L45.2627 16.0448L45.1827 16.0276C45.1656 16.0219 45.1541 16.0105 45.1484 15.9934C45.137 15.8448 45.1313 15.7077 45.137 15.582C45.1427 15.0449 45.1427 14.4963 45.1713 13.965C45.2056 13.3079 45.2513 12.7022 45.4284 12.1023C45.4455 12.0394 45.4855 11.9823 45.537 11.9309C45.5541 11.9137 45.5713 11.9137 45.5941 11.9194C45.7712 11.9709 45.8969 12.1708 45.9426 12.3308C45.9884 12.4965 46.0341 12.6622 46.0684 12.8279C46.0912 12.9651 46.1312 13.1079 46.1883 13.2507C46.1941 13.2679 46.2055 13.2736 46.2226 13.2736C46.2341 13.2736 46.2455 13.2622 46.2455 13.2507L46.1369 12.3423C46.1312 12.2794 46.1483 12.268 46.1998 12.308C46.2512 12.3537 46.2855 12.4108 46.3083 12.4851C46.3369 12.5822 46.3655 12.6794 46.394 12.7822C46.4112 12.8508 46.4283 12.8508 46.434 12.7765C46.4569 12.5994 46.5026 12.3594 46.7083 12.3251C47.1311 12.2508 47.4054 12.6222 47.6282 12.9079C47.6511 12.9536 47.7025 12.9936 47.7768 13.0393Z" fill="#464B51"/>
<path d="M33.2821 12.1133C33.2364 12.2676 33.1907 12.4218 33.1449 12.5647C32.9907 13.0618 32.9164 13.5874 32.865 14.1017C32.8364 14.3074 32.7735 14.5359 32.6593 14.7988C32.6421 14.8445 32.625 14.8445 32.6136 14.793C32.6079 14.7645 32.6136 14.7073 32.625 14.6788C32.6821 14.5416 32.7164 14.4102 32.7221 14.2731C32.7278 14.1531 32.7336 14.0274 32.7564 13.9017C32.8078 13.5417 32.8593 13.2218 32.9107 12.9304C32.9621 12.6389 33.0878 12.3647 33.2821 12.1133Z" fill="black"/>
<path d="M45.2681 16.0449L46.7765 16.1535C46.7937 16.1535 46.7994 16.1649 46.7994 16.1821V16.1935C46.7994 16.1935 46.7994 16.1992 46.7937 16.1992L45.2167 16.1535L44.8738 16.1421C44.8453 16.1421 44.8338 16.1249 44.8281 16.1021V16.0849C44.8281 16.0735 44.8338 16.0621 44.851 16.0621L45.2681 16.0449Z" fill="black"/>
<path d="M37.206 16.1421C36.8917 16.2049 36.5489 16.2678 36.1889 16.3249C36.1546 16.3306 36.1489 16.3249 36.1832 16.3021C36.1889 16.3021 36.1946 16.2964 36.2118 16.2907C36.5032 16.1878 36.8117 16.1192 37.1488 16.0792C37.2517 16.0507 37.3659 16.045 37.4802 16.0678C37.5031 16.0735 37.5031 16.0792 37.4802 16.085C37.4117 16.1192 37.3202 16.1364 37.206 16.1421Z" fill="black"/>
<path d="M38.3949 16.4737C38.3034 16.468 38.092 16.4737 37.7721 16.4851C37.0807 16.5194 36.3893 16.5365 35.698 16.5422C35.6922 16.5422 35.6865 16.5365 35.6865 16.5308C35.6865 16.5251 35.6922 16.5194 35.698 16.5194C36.1836 16.4794 36.6636 16.4108 37.1493 16.3823C37.2921 16.3765 37.4464 16.3594 37.6006 16.3308C37.9949 16.3194 38.4063 16.3194 38.8348 16.3308C38.9948 16.3366 39.1377 16.3537 39.2748 16.3823C39.3262 16.3937 39.3262 16.4051 39.2748 16.4051L38.3949 16.4737Z" fill="black"/>
<path d="M45.4231 16.3597L46.4744 16.394C46.4972 16.394 46.503 16.4054 46.4915 16.4225C46.4858 16.434 46.4744 16.4397 46.4515 16.4397C46.1144 16.4397 45.7487 16.434 45.3659 16.434L43.269 16.4225C43.2004 16.4225 43.2004 16.4111 43.2632 16.394C43.3489 16.3711 43.4518 16.3597 43.5661 16.3597C44.0803 16.354 44.5774 16.3425 45.0802 16.3711C45.1945 16.3768 45.3088 16.3711 45.4231 16.3597Z" fill="black"/>
<path d="M35.1091 18.1304C34.932 18.2218 34.7434 18.2561 34.5491 18.239C34.3377 17.9761 34.172 17.6847 34.0406 17.3705C34.0292 17.3419 34.0406 17.3305 34.0635 17.3305L34.7206 17.3076C34.7434 17.3076 34.7606 17.319 34.7663 17.3419C34.8291 17.6276 34.9434 17.8847 35.1091 18.1304Z" fill="#BEBEB6"/>
<path d="M39.7152 18.4956L39.6466 18.2842C39.6352 18.2442 39.5952 18.2213 39.5495 18.2213C39.1553 18.2613 38.7553 18.2613 38.3496 18.227C38.5496 17.9528 38.6753 17.6728 38.7324 17.3814C38.7324 17.37 38.7439 17.3643 38.7496 17.3643C38.9781 17.37 39.2067 17.3871 39.4238 17.41C39.7209 17.4443 40.0123 17.5242 40.3094 17.5185C40.3209 17.5185 40.3323 17.53 40.3266 17.5414C40.2066 17.9128 40.0009 18.227 39.7152 18.4956Z" fill="#BEBEB6"/>
<path d="M37.4699 18.1075C37.3099 17.9989 37.2756 17.7761 37.3841 17.6047C37.4984 17.4333 37.7213 17.3875 37.8812 17.4961C38.0412 17.6047 38.0755 17.8275 37.9612 17.9989C37.8527 18.1646 37.6298 18.216 37.4699 18.1075Z" fill="white"/>
<path d="M43.9367 18.0099C43.8281 18.0613 43.7081 18.0956 43.5767 18.1127C43.5424 18.1185 43.4682 18.147 43.3539 18.2099C43.1882 18.0042 43.0739 17.7642 43.0168 17.5071C43.011 17.4957 43.0282 17.4785 43.0396 17.4785L43.731 17.5299C43.7481 17.5299 43.7653 17.5414 43.771 17.5585L43.9367 18.0099Z" fill="#BEBEB6"/>
<path d="M47.7541 18.4618C47.7027 18.3989 47.6855 18.3075 47.7027 18.1932C47.7084 18.1646 47.697 18.1475 47.6741 18.1361C47.457 18.0504 47.2627 18.0789 47.0342 18.0447L47.2056 17.5933C47.2113 17.5704 47.2285 17.5647 47.2513 17.5647L48.1369 17.5361C48.1769 17.5361 48.1884 17.5533 48.1769 17.5933C48.0627 17.879 47.9541 18.2218 47.7541 18.4618Z" fill="#BEBEB6"/>
<path d="M37.1428 17.7697C37.1428 17.8496 37.0743 17.9182 36.9943 17.9182C36.9143 17.9182 36.8457 17.8554 36.8457 17.7697C36.8457 17.6839 36.9086 17.6211 36.9943 17.6211C37.0743 17.6268 37.1428 17.6897 37.1428 17.7697Z" fill="white"/>
<path d="M45.1824 18.0502C45.1424 18.2388 44.9482 18.353 44.7482 18.3073C44.5482 18.2616 44.4225 18.0788 44.4625 17.8902C44.5025 17.7017 44.6968 17.5874 44.8967 17.6331C45.0967 17.6731 45.2224 17.8617 45.1824 18.0502Z" fill="white"/>
<path d="M45.4853 18.2091C45.4053 18.1634 45.3768 18.0491 45.4282 17.9634C45.4796 17.872 45.5882 17.8377 45.6682 17.8834C45.7482 17.9292 45.7767 18.0434 45.7253 18.1291C45.6739 18.2206 45.5653 18.2548 45.4853 18.2091Z" fill="white"/>
<path d="M43.9372 18.0107C44.4514 18.8735 45.4742 19.1878 46.3598 18.725C46.6341 18.5821 46.8626 18.3593 47.034 18.0507C47.2626 18.085 47.4568 18.0622 47.674 18.1422C47.6968 18.1536 47.7082 18.1707 47.7025 18.1993C47.6797 18.3136 47.6968 18.3993 47.7482 18.4678C47.4568 18.9307 46.8969 19.2449 46.3827 19.3992C46.0798 19.4906 45.777 19.4735 45.4742 19.4678C45.3885 19.4678 45.3142 19.4506 45.2399 19.4049C44.8114 19.1364 44.36 18.8964 43.8914 18.6907C43.6515 18.5878 43.4972 18.4164 43.3486 18.205C43.4629 18.1479 43.5372 18.1136 43.5715 18.1079C43.7086 18.0964 43.8286 18.0622 43.9372 18.0107Z" fill="white"/>
<path d="M36.658 20.5756C36.6466 20.5756 36.6466 20.5699 36.658 20.5642C36.698 20.5471 36.738 20.5356 36.778 20.5356C37.018 20.5185 37.2522 20.4842 37.4808 20.4442C38.6807 20.2328 39.6177 19.5243 40.3148 18.5472C40.4119 18.4101 40.4919 18.2615 40.5605 18.1073C40.5605 18.1016 40.5662 18.1016 40.5719 18.1016C40.5776 18.1016 40.5776 18.1073 40.5776 18.113C40.5434 18.2101 40.5091 18.313 40.4577 18.4044C40.2062 18.8501 39.8863 19.2615 39.5035 19.6557C38.7378 20.4271 37.715 20.7128 36.658 20.5756Z" fill="black"/>
<path d="M35.1088 18.1299C35.1773 18.2099 35.2573 18.2899 35.3488 18.3813C35.8116 18.827 36.3544 19.0155 36.9658 18.9641C37.52 18.9127 37.9828 18.667 38.3485 18.227C38.7542 18.2613 39.1541 18.2613 39.5484 18.2213C39.5884 18.2156 39.6284 18.2442 39.6455 18.2842L39.7141 18.4956C39.3998 18.8155 39.0341 19.0555 38.6056 19.2155C38.1028 19.4041 37.5371 19.4841 36.9086 19.4612C36.0116 19.4269 35.0574 19.0098 34.5488 18.2442C34.7431 18.2613 34.9259 18.2213 35.1088 18.1299Z" fill="white"/>
<path d="M36.229 22.5421C36.4405 22.5079 36.629 22.5421 36.7947 22.645C36.9147 22.7193 36.9433 22.8507 37.0575 22.925C37.3204 23.1078 37.6232 23.2449 37.9318 23.3306C38.1375 23.3878 38.3374 23.4506 38.526 23.5135C38.7603 23.5878 39.0117 23.6392 39.2516 23.6849C39.823 23.7878 40.4173 23.8906 40.9886 23.9535C41.3257 23.9877 41.6171 24.0049 41.8571 23.9992C42.3371 23.9934 42.8799 23.9649 43.4856 23.9249C43.7027 23.9077 43.9312 23.8849 44.1655 23.8506C44.3769 23.822 44.5997 23.7935 44.8226 23.7763C45.3311 23.7363 45.9196 23.6278 46.5881 23.4506C46.8624 23.3764 47.1081 23.2449 47.3766 23.1535C47.4109 23.1421 47.4452 23.1192 47.4681 23.0907C47.5138 23.0392 47.5023 22.9992 47.4452 22.965C47.1595 22.7993 46.8967 22.6164 46.6453 22.405C46.331 22.1422 46.0168 21.8736 45.7082 21.5937C45.1768 21.1137 44.5997 20.6852 43.9941 20.3081C43.9427 20.2738 43.9027 20.2281 43.8684 20.1595C43.8284 20.0738 43.7598 20.0052 43.6798 19.9481C43.4798 19.7995 43.2799 19.6567 43.0799 19.5196C42.8628 19.371 42.5771 19.251 42.2285 19.1653C42.1142 19.1367 42 19.1424 41.8743 19.1767C41.6171 19.251 41.3886 19.371 41.1886 19.5253C41.1258 19.5767 41.0458 19.6681 40.9601 19.811C40.8858 19.9595 40.7772 20.0738 40.6344 20.1652C40.4801 20.2681 40.383 20.3309 40.3487 20.3538C39.783 20.8052 39.1431 21.1366 38.4289 21.348C38.3889 21.348 38.3546 21.3651 38.326 21.4051C38.3146 21.4222 38.3032 21.4337 38.2803 21.4394C38.1489 21.4908 38.0175 21.5251 37.8918 21.548C37.4804 21.6108 37.0804 21.6051 36.6747 21.5365C36.4919 21.5022 36.3148 21.468 36.1491 21.428C35.8919 21.3651 35.6234 21.3651 35.3606 21.308C35.1434 21.2565 34.3549 21.1937 34.3321 21.5651C34.3092 21.9193 34.3206 22.1822 34.3606 22.3536C34.4464 22.725 34.692 23.085 35.0063 23.3192C35.1434 23.4221 35.2863 23.5192 35.4291 23.6106C35.7205 23.7935 35.9948 23.9592 36.2519 24.1134C36.4976 24.2563 36.7776 24.3991 37.0918 24.5305C37.5889 24.742 38.0975 24.9705 38.5946 25.1933C38.9888 25.3705 39.4059 25.4676 39.823 25.6104C40.303 25.7704 40.8744 25.9019 41.5372 26.0161C42.12 26.1133 42.7142 26.0676 43.297 26.0618C43.4513 26.0618 43.617 26.0333 43.7998 25.9761C43.9826 25.919 44.1655 25.9304 44.3426 25.8504C44.4455 25.8047 44.5483 25.7647 44.6512 25.7247C44.7597 25.6847 44.8511 25.639 44.9311 25.5933C45.0283 25.5362 45.114 25.4847 45.1997 25.439C45.4282 25.3133 45.6339 25.1762 45.8511 25.0448C45.9711 24.9705 46.0796 24.8962 46.1767 24.8219C46.3367 24.702 46.5081 24.622 46.651 24.4905C46.7367 24.4106 46.7253 24.3877 46.611 24.422C46.531 24.4506 46.4453 24.4848 46.3653 24.5363C46.3596 24.542 46.3482 24.542 46.3482 24.5305L46.3367 24.5134C46.331 24.5077 46.331 24.4963 46.3424 24.4905C46.4624 24.4048 46.5996 24.3363 46.7538 24.2906C46.8567 24.262 46.9081 24.1934 46.9081 24.0906C47.2509 24.0163 47.5938 23.9249 47.9252 23.8106C47.9423 23.8049 47.9652 23.7992 47.9823 23.7992C48.0109 23.7992 48.0166 23.8049 47.9937 23.8277C47.2281 24.4963 46.4624 25.0905 45.5654 25.519C45.0397 25.7761 44.5597 25.9647 44.1369 26.0961C43.7827 26.2047 43.3827 26.3075 42.9313 26.4047C42.2914 26.5475 41.7429 26.5875 41.2972 26.5418C41.0229 26.5132 40.6915 26.4161 40.3144 26.2618C40.0116 26.1361 39.703 26.0047 39.3888 25.8619C38.6631 25.5305 37.9603 25.0905 37.2461 24.7191C36.4576 24.3077 35.7434 23.9192 35.1092 23.5478C34.7778 23.3535 34.4692 23.1021 34.1778 22.805C33.9893 22.605 33.9435 22.3307 33.8864 22.0679C33.8578 21.9308 33.8693 21.7936 33.9207 21.6565C34.0064 21.4394 34.1778 21.1308 34.4235 21.0908C34.5606 21.068 34.7206 21.0737 34.8977 21.1137C35.6234 21.2737 36.3148 21.3594 36.9661 21.3708C38.1717 21.3937 39.4288 21.028 40.2058 20.0852C40.4401 19.7995 40.6687 19.5196 40.8858 19.2396C41.0686 19.011 41.2972 18.811 41.5714 18.6453C41.8343 18.4854 42.2571 18.5425 42.5485 18.5996C43.8284 18.8625 45.0111 19.611 46.0625 20.3595C46.8395 20.908 47.5652 21.5137 48.2509 22.1822C48.5308 22.4507 48.8108 22.7307 49.0965 23.0221C49.1251 23.0507 49.1193 23.1078 49.0851 23.125C48.9936 23.1821 48.8965 23.2278 48.7937 23.2678C48.188 23.5249 47.5138 23.7306 46.771 23.8906C46.291 23.9934 45.8111 24.0906 45.3197 24.182C44.6226 24.3191 43.9427 24.3934 43.2627 24.4106C42.857 24.422 42.3142 24.422 41.6343 24.4106C40.7715 24.3934 39.9202 24.2906 39.0745 24.102C38.4117 23.9535 37.7603 23.6963 37.1375 23.3421C36.7833 23.1364 36.4747 22.8678 36.229 22.5421Z" fill="#FAC96C"/>
<path d="M47.3194 19.5756C47.7022 19.3813 48.0565 19.107 48.3822 18.7471H48.3879L48.3993 18.7585C48.405 18.7642 48.405 18.7699 48.3993 18.7756C47.8851 19.4841 47.2337 19.9755 46.3252 19.9641C46.3081 19.9641 46.2909 19.9584 46.2795 19.9413C46.2624 19.9184 46.2681 19.907 46.2909 19.907C46.7023 19.827 47.0451 19.7184 47.3194 19.5756Z" fill="black"/>
<path d="M34.0185 20.003C33.5843 19.7516 33.2643 19.3916 33.0586 18.9288C33.0586 18.9231 33.0586 18.9231 33.0586 18.9174C33.0643 18.9117 33.07 18.9174 33.0757 18.9231C33.4014 19.3916 33.8071 19.7345 34.3556 19.9745C34.687 20.1173 35.0127 20.2373 35.3498 20.3344C35.4984 20.3744 35.6527 20.3973 35.8126 20.3916C35.8184 20.3916 35.8184 20.3916 35.8184 20.3973V20.4144C35.8184 20.4258 35.8126 20.4258 35.8069 20.4316C35.1841 20.4944 34.5442 20.3059 34.0185 20.003Z" fill="black"/>
<path d="M36.2289 22.5418C36.1032 22.3818 36.0061 22.1932 35.9547 21.9761C35.949 21.9475 35.9604 21.9418 35.9833 21.9475L37.1317 22.3532C37.1946 22.3761 37.2003 22.3646 37.1489 22.3246C36.7717 22.0047 36.1318 21.6218 35.6461 21.7018C35.229 21.7704 35.1319 22.1704 35.2462 22.5246C35.2633 22.5818 35.2747 22.5818 35.2805 22.5189C35.309 22.1818 35.4576 21.9875 35.7318 21.9361C35.7661 21.9304 35.7833 21.9418 35.7776 21.9761C35.7318 22.5132 36.2861 23.0789 36.6918 23.3646C37.166 23.696 37.6688 23.9531 38.2059 24.1302C38.9601 24.3816 39.7658 24.5473 40.6228 24.6159C41.8856 24.7244 43.1026 24.7187 44.2682 24.5987C45.1025 24.513 46.0338 24.3016 46.908 24.1073C46.9023 24.2102 46.8509 24.2788 46.7537 24.3073C46.5995 24.353 46.4623 24.4159 46.3423 24.5073C46.3366 24.513 46.3309 24.5187 46.3366 24.5302L46.348 24.5473C46.3538 24.553 46.3595 24.5587 46.3652 24.553C46.4452 24.5016 46.5309 24.4673 46.6109 24.4387C46.7252 24.4045 46.7366 24.4273 46.6509 24.5073C46.508 24.6444 46.3309 24.7187 46.1766 24.8387C46.0795 24.913 45.9709 24.9873 45.851 25.0615C45.6338 25.193 45.4281 25.3301 45.1996 25.4558C45.1139 25.5015 45.0224 25.5529 44.931 25.6101C44.8567 25.6558 44.7596 25.7015 44.6511 25.7415C44.5482 25.7815 44.4396 25.8215 44.3425 25.8672C44.1654 25.9472 43.9825 25.9358 43.7997 25.9929C43.6169 26.05 43.4512 26.0786 43.2969 26.0786C42.7141 26.0843 42.1199 26.13 41.537 26.0329C40.8742 25.9243 40.3029 25.7872 39.8229 25.6272C39.4058 25.4901 38.9887 25.3872 38.5944 25.2101C38.0916 24.9873 37.5831 24.7587 37.0917 24.5473C36.7775 24.4102 36.4975 24.273 36.2518 24.1302C35.989 23.9759 35.7147 23.8102 35.429 23.6274C35.2862 23.536 35.1433 23.4388 35.0062 23.336C34.6919 23.1017 34.4462 22.736 34.3605 22.3704C34.3205 22.1989 34.3091 21.9361 34.332 21.5819C34.3548 21.2105 35.1433 21.279 35.3604 21.3247C35.6233 21.3819 35.8918 21.3819 36.1489 21.4447C36.3146 21.4847 36.4918 21.519 36.6746 21.5533C37.0746 21.6276 37.4803 21.6276 37.8917 21.5647C38.0174 21.5419 38.1488 21.5076 38.2802 21.4561C38.2973 21.4504 38.3145 21.439 38.3259 21.4219C38.3545 21.3819 38.3887 21.3647 38.4287 21.3647C38.7259 21.3362 38.9887 21.2733 39.223 21.1762C39.7315 20.9705 40.2743 20.6448 40.68 20.2391C40.7885 20.1363 40.8971 20.0277 41.0057 19.9249C41.1314 19.8106 41.2285 19.6849 41.2856 19.542C41.2913 19.5363 41.2856 19.5306 41.2799 19.5249L41.2628 19.5192C41.2514 19.5135 41.2342 19.5192 41.2285 19.5306C41.1714 19.6506 41.0799 19.7477 40.9599 19.8163C41.0514 19.6734 41.1256 19.582 41.1885 19.5306C41.3885 19.3763 41.617 19.2563 41.8742 19.1821C41.9999 19.1478 42.1141 19.1421 42.2284 19.1706C42.5769 19.2563 42.8626 19.3763 43.0798 19.5249C43.2798 19.662 43.4854 19.8049 43.6797 19.9534C43.7597 20.0106 43.8283 20.0791 43.8683 20.1648C43.9026 20.2277 43.9425 20.2791 43.994 20.3134C44.6053 20.6905 45.1767 21.119 45.7081 21.599C46.0224 21.879 46.3366 22.1532 46.6452 22.4103C46.8966 22.6218 47.1594 22.8046 47.4451 22.9703C47.5022 23.0046 47.5137 23.0446 47.468 23.096C47.4451 23.1246 47.4108 23.1474 47.3765 23.1589C47.108 23.2503 46.8623 23.3874 46.588 23.456C45.9252 23.6331 45.3367 23.7417 44.8225 23.7817C44.5996 23.7988 44.3768 23.8217 44.1654 23.8559C43.9311 23.8902 43.7026 23.9131 43.4854 23.9302C42.8798 23.9702 42.337 23.9988 41.857 24.0045C41.617 24.0102 41.3313 23.9931 40.9885 23.9588C40.4171 23.9016 39.8229 23.7931 39.2515 23.6902C39.0116 23.6445 38.7602 23.5931 38.5259 23.5188C38.3316 23.456 38.1373 23.3988 37.9316 23.336C37.6231 23.2503 37.3203 23.1074 37.0574 22.9303C36.9432 22.856 36.9146 22.7246 36.7946 22.6503C36.6289 22.5418 36.4403 22.5075 36.2289 22.5418ZM43.0969 20.7362C43.1026 20.9076 42.6341 20.999 42.4855 21.0162C42.4741 21.0162 42.4627 21.0276 42.4627 21.039V21.0562C42.4627 21.0619 42.4627 21.0676 42.4741 21.0676C42.6855 21.0962 42.8969 21.0505 43.114 20.9248C43.2797 20.8333 43.2626 20.6334 43.1026 20.5419C42.7369 20.3362 42.2627 20.1991 41.8684 20.3477C41.777 20.382 41.6856 20.4505 41.6856 20.5591C41.6913 20.6676 41.7484 20.7419 41.857 20.7762C41.9313 20.7991 41.9484 20.7762 41.9027 20.7134C41.8742 20.6676 41.857 20.6219 41.857 20.5705C41.857 20.5305 41.8742 20.5077 41.9141 20.4962C41.9313 20.4905 41.9484 20.4962 41.9599 20.5134C42.1198 20.8162 42.6341 20.8333 42.9369 20.7991C42.9541 20.7991 42.9712 20.7876 42.9826 20.7705C42.9998 20.7476 43.0226 20.7305 43.0512 20.7191C43.0855 20.7019 43.0969 20.7076 43.0969 20.7362ZM39.5601 21.0848C39.3315 21.1876 39.1087 21.279 38.8744 21.3762C38.8687 21.3762 38.8687 21.3819 38.8687 21.3819L38.8744 21.399C38.8801 21.4047 38.8801 21.4104 38.8916 21.4047C39.3144 21.3133 39.7772 21.1762 40.0972 20.8733C40.1315 20.8448 40.1257 20.8333 40.08 20.8448C39.9086 20.9019 39.7372 21.0105 39.5601 21.0848ZM44.5654 25.113C44.9196 25.0501 45.3024 24.9358 45.6053 24.7473L45.611 24.7416C45.611 24.7359 45.6053 24.7301 45.5995 24.7301C45.5938 24.7301 45.5938 24.7301 45.5881 24.7301C45.1824 24.8673 44.7596 24.9644 44.3197 25.0158C43.6111 25.1015 42.9312 25.153 42.2741 25.1701C42.2627 25.1701 42.2627 25.1758 42.257 25.1815C42.257 25.1872 42.2627 25.193 42.2684 25.193C43.0341 25.273 43.794 25.2444 44.5654 25.113Z" fill="#DDA96F"/>
<path d="M38.418 21.3637C39.1379 21.1466 39.7779 20.8152 40.3378 20.3695C40.3721 20.3409 40.4692 20.2781 40.6235 20.181C40.7663 20.0895 40.8749 19.9753 40.9492 19.8267C41.0692 19.7581 41.1549 19.661 41.2177 19.541C41.2234 19.5296 41.2406 19.5239 41.252 19.5296L41.2692 19.5353C41.2749 19.541 41.2806 19.541 41.2749 19.5524C41.212 19.6896 41.1206 19.8153 40.9949 19.9353C40.8806 20.0381 40.7721 20.141 40.6692 20.2495C40.2635 20.6495 39.7207 20.9809 39.2122 21.1866C38.9779 21.2723 38.7151 21.3351 38.418 21.3637Z" fill="#302E31"/>
<path d="M47.7709 19.7254C47.5138 19.9882 47.1253 20.0968 46.771 20.1539C46.7653 20.1539 46.7596 20.1539 46.7596 20.1482L46.7539 20.1311V20.1254C47.1082 20.0111 47.4338 19.8682 47.731 19.6854C47.7367 19.6797 47.7481 19.6797 47.7595 19.6797C47.7652 19.6797 47.7709 19.6854 47.7709 19.6911C47.7824 19.7083 47.7824 19.7197 47.7709 19.7254Z" fill="black"/>
<path d="M43.0572 20.7132C43.0344 20.7246 43.0115 20.7417 42.9887 20.7646C42.9773 20.7817 42.9601 20.7874 42.943 20.7932C42.6344 20.8274 42.1259 20.8103 41.9659 20.5075C41.9545 20.4903 41.9431 20.4846 41.9202 20.4903C41.8859 20.5017 41.8631 20.5246 41.8631 20.5646C41.8631 20.616 41.8802 20.6617 41.9088 20.7074C41.9545 20.7703 41.9374 20.7932 41.8631 20.7703C41.7545 20.736 41.6974 20.6674 41.6917 20.5532C41.6859 20.4389 41.7774 20.376 41.8745 20.3418C42.2745 20.1932 42.743 20.3303 43.1087 20.536C43.2687 20.6275 43.2858 20.8274 43.1201 20.9189C42.903 21.0388 42.6859 21.0903 42.4802 21.0617C42.4745 21.0617 42.4687 21.056 42.4687 21.0503V21.0331C42.4687 21.0217 42.4802 21.0103 42.4916 21.0103C42.6401 20.9988 43.1087 20.9017 43.103 20.7303C43.0972 20.7074 43.0858 20.7017 43.0572 20.7132Z" fill="black"/>
<path d="M39.5607 21.0834C39.7321 21.0091 39.9092 20.9005 40.0863 20.8491C40.132 20.8377 40.132 20.8434 40.1035 20.8777C39.7835 21.1748 39.3207 21.3176 38.8979 21.409C38.8921 21.409 38.8864 21.409 38.8807 21.4033L38.875 21.3862C38.875 21.3862 38.875 21.3805 38.8807 21.3805C39.1093 21.2776 39.3378 21.1862 39.5607 21.0834Z" fill="#302E31"/>
<path d="M53.7201 48.4924C53.6972 48.4866 53.6744 48.4581 53.6515 48.4124C53.6515 48.3952 53.6458 48.3781 53.6344 48.3781C53.543 48.3438 53.3658 48.2867 53.1087 48.2124L52.9316 48.1381C52.943 47.961 53.0173 47.7953 53.0687 47.6239C53.1544 47.321 53.1659 47.0296 53.0859 46.7268C52.8687 45.9212 52.5831 45.1726 51.8745 44.6698C51.846 44.6527 51.8345 44.6184 51.8345 44.5898C51.9203 43.5842 51.7888 42.6129 51.6231 41.6015C51.5546 41.2016 51.4917 40.8245 51.4232 40.4702C51.3089 39.876 51.1032 39.2246 50.8118 38.5218C50.2347 37.1334 49.4576 35.722 48.4806 34.2879C47.6349 33.0537 47.0064 31.751 46.5893 30.3911C46.1093 28.8198 45.8979 27.2142 46.0636 25.6087C46.0693 25.5744 46.0865 25.5458 46.115 25.5229C46.795 25.0716 47.4292 24.5516 48.0006 23.9631C48.092 23.8659 48.1663 23.746 48.2863 23.6945C48.5377 23.586 48.7834 23.4717 49.0119 23.3517C49.0519 23.3346 49.0919 23.3631 49.0805 23.4088C48.9548 23.9059 48.8462 24.3916 48.7548 24.8601C48.7205 25.0544 48.692 25.2601 48.6691 25.4715C48.6405 25.7458 48.6063 26.0086 48.5891 26.2943C48.5434 27.1114 48.5034 27.8656 48.5491 28.717C48.5948 29.5283 48.7434 30.2768 49.0005 30.9625C49.2748 31.6938 49.6233 32.3738 50.0404 32.9966C50.3261 33.4251 50.6747 33.8879 51.0803 34.3964C52.2688 35.8649 53.5658 37.2362 54.88 38.5961C55.6742 39.4132 56.3999 40.3502 56.857 41.413C57.1141 42.0186 57.2969 42.4986 57.3883 42.8414C57.5369 43.3614 57.5826 43.927 57.7197 44.4699C57.7426 44.5556 57.7197 44.6355 57.6626 44.7041C56.457 46.1383 55.1371 47.4467 53.7201 48.4924Z" fill="#464B51"/>
<path d="M45.8056 27.7403C45.6799 28.026 45.5714 28.1974 45.4799 28.2603C45.1143 28.5117 44.7429 28.7517 44.3658 28.9745C44.2286 29.0602 44.2115 29.0374 44.3143 28.9174C44.4343 28.7802 44.5543 28.6088 44.6743 28.4031C44.7429 28.2889 44.7257 28.2774 44.6286 28.3688C44.52 28.4717 44.4115 28.5745 44.2857 28.6602C43.6801 29.0602 43.0516 29.323 42.3831 29.4545C41.8003 29.5687 41.2917 29.6373 40.8518 29.6544C40.5775 29.6659 40.3033 29.6773 40.0233 29.6887C39.9719 29.6887 39.9147 29.6887 39.8633 29.6773C39.8061 29.6659 39.8061 29.6544 39.8633 29.6373C40.2404 29.5345 40.5889 29.4202 40.9032 29.283C41.0632 29.2145 41.246 29.1174 41.4574 28.9859C41.4574 28.9859 41.4574 28.9859 41.4574 28.9802L41.4517 28.9688C41.446 28.9631 41.446 28.9631 41.4403 28.9631C40.8975 29.2031 40.3604 29.3745 39.8233 29.4773C39.2176 29.5973 38.5834 29.6145 37.9149 29.5345C37.2921 29.4602 36.6979 29.2373 36.1779 28.8774C35.9951 28.7517 35.8294 28.626 35.6694 28.5003C35.3951 28.2774 35.138 27.9517 34.9037 27.5118C34.7266 27.1861 35.0123 26.7518 35.0809 26.4547C35.0866 26.4319 35.1151 26.3462 35.1666 26.209C35.2008 26.1119 35.2066 26.0262 35.178 25.9405C35.2466 25.5977 35.3094 25.2491 35.3551 24.8834C35.3951 24.6035 35.378 24.3292 35.3151 24.0607C35.3094 24.0492 35.3265 24.0378 35.338 24.0435C36.3036 24.5977 37.3321 25.1063 38.2977 25.6548C38.9377 26.0205 39.589 26.3176 40.2861 26.5919C40.6861 26.7518 41.1203 26.8718 41.5546 26.8775C42.3031 26.8833 43.0059 26.729 43.7201 26.5461C44.5314 26.3347 45.2742 26.0262 45.9485 25.6091C45.9599 25.6034 45.9713 25.6091 45.9713 25.6262C45.817 26.3405 45.7599 27.0432 45.8056 27.7403Z" fill="#BEBEB6"/>
<path d="M45.6053 24.7476C45.2967 24.9362 44.9196 25.0447 44.5654 25.1133C43.794 25.2504 43.0341 25.279 42.2741 25.199C42.2684 25.199 42.2627 25.1933 42.2627 25.1876C42.2627 25.1761 42.2684 25.1761 42.2798 25.1704C42.9312 25.1533 43.6169 25.1019 44.3254 25.0162C44.7653 24.9647 45.1882 24.8676 45.5938 24.7305C45.5995 24.7305 45.5995 24.7305 45.6053 24.7305C45.611 24.7305 45.611 24.7362 45.6167 24.7419C45.611 24.7476 45.611 24.7476 45.6053 24.7476Z" fill="black"/>
<path d="M35.179 25.9512C35.2076 26.0312 35.2018 26.1226 35.1676 26.2197C35.1161 26.3569 35.0933 26.4426 35.0819 26.4654C35.0076 26.7625 34.7276 27.1968 34.9047 27.5225C35.139 27.9624 35.3961 28.2938 35.6704 28.5109C35.8246 28.6367 35.9961 28.7624 36.1789 28.8881C36.6989 29.248 37.2988 29.4709 37.9159 29.5451C38.5844 29.6308 39.2186 29.608 39.8243 29.488C40.3614 29.3852 40.8985 29.208 41.4413 28.9738C41.447 28.9738 41.4527 28.9738 41.4527 28.9795L41.4584 28.9909C41.4584 28.9909 41.4584 28.9909 41.4584 28.9966C41.247 29.128 41.0642 29.2252 40.9042 29.2937C40.5899 29.4252 40.2414 29.5451 39.8643 29.648C39.8071 29.6651 39.8071 29.6766 39.8643 29.688C39.9157 29.6994 39.9671 29.6994 40.0243 29.6994C40.3043 29.688 40.5842 29.6766 40.8528 29.6651C41.287 29.648 41.8013 29.5794 42.3841 29.4651C43.0526 29.3337 43.6868 29.0709 44.2867 28.6709C44.4125 28.5852 44.521 28.4824 44.6296 28.3795C44.7267 28.2881 44.7381 28.2995 44.6753 28.4138C44.5553 28.6138 44.4353 28.7852 44.3153 28.9281C44.2068 29.0538 44.2239 29.0709 44.3667 28.9852C44.7496 28.7566 45.121 28.5224 45.4809 28.271C45.5724 28.2081 45.6752 28.0367 45.8066 27.751C45.8352 28.1453 45.858 28.4252 45.8866 28.5852C46.1552 30.3679 46.7437 32.0306 47.6465 33.5619C47.8407 33.8933 48.2064 34.459 48.7321 35.2646C49.3092 36.1388 49.852 37.1388 50.3605 38.2701C50.6233 38.8529 50.829 39.4071 50.9776 39.9271C51.0576 40.2185 51.1376 40.5899 51.2176 41.0356C51.3718 41.9041 51.4747 42.6183 51.5318 43.1897C51.5718 43.5782 51.5775 43.9953 51.5604 44.4295C51.5604 44.4467 51.5433 44.4581 51.5318 44.4467C51.2519 44.321 50.9547 44.2296 50.6462 44.1724C49.6634 43.9896 48.6692 43.881 47.6636 43.8467C47.6522 43.8467 47.6407 43.8353 47.6465 43.8182C48.0807 42.2812 48.1264 40.7727 47.7779 39.2929C47.5265 38.2301 47.0922 37.253 46.4751 36.3731C45.2124 34.5676 43.2183 33.2934 41.0185 33.0705C40.7499 33.042 40.4757 33.0077 40.2071 33.0077C38.733 33.0248 37.3845 33.4134 36.1675 34.179C34.8247 35.0247 33.7391 36.2874 33.0877 37.7673C32.3335 39.4814 32.1507 41.287 32.5449 43.1839C32.5506 43.2125 32.5392 43.2297 32.5049 43.2297C31.8079 43.2525 31.0708 43.3325 30.2994 43.4696C29.928 43.5382 29.5566 43.6239 29.1738 43.7382C29.1509 43.7439 29.1281 43.7267 29.1281 43.7039C29.1052 43.2754 29.031 42.8868 29.0252 42.4469C29.0138 41.6812 29.0195 41.0756 29.0424 40.6242C29.0652 40.1728 29.1338 39.5557 29.2424 38.7672C29.4195 37.5387 29.8195 36.2817 30.3394 35.2075C30.6251 34.6133 30.9679 33.979 31.3622 33.2991C32.3964 31.5335 33.4649 29.728 34.3848 27.9853C34.7047 27.3568 34.9733 26.6825 35.179 25.9512ZM49.8805 37.7787C49.7434 37.4759 49.572 37.1959 49.3663 36.9502C49.3606 36.9445 49.3606 36.9445 49.3549 36.9502C49.3492 36.9559 49.3492 36.9559 49.3549 36.9616C49.532 37.2587 49.6806 37.5616 49.8005 37.8758C50.0691 38.5558 50.2977 39.31 50.4919 40.1328C50.4919 40.1442 50.4976 40.1442 50.5091 40.1442C50.5148 40.1442 50.5205 40.1385 50.5205 40.1271C50.4348 39.3214 50.2234 38.5386 49.8805 37.7787ZM49.3549 37.7844C49.4063 37.8073 49.4406 37.8416 49.4634 37.893C49.6006 38.173 49.7091 38.4529 49.7891 38.7386C49.9091 39.1671 50.0005 39.5671 50.0577 39.9499C50.0577 39.9557 50.0634 39.9557 50.0691 39.9557C50.0748 39.9557 50.0805 39.9499 50.0805 39.9442C50.0405 39.3614 49.9377 38.83 49.7548 38.3387C49.6863 38.1444 49.532 37.813 49.3549 37.7673C49.3492 37.7673 49.3492 37.7673 49.3492 37.7673C49.3435 37.7787 49.3492 37.7787 49.3549 37.7844Z" fill="white"/>
<path d="M39.161 42.9855L43.1093 43.2484C43.1321 43.2484 43.1378 43.2598 43.1378 43.2827L43.115 43.9854C43.115 44.014 43.0978 44.0254 43.075 44.0312C42.0922 44.1854 41.0866 44.4083 40.0524 44.7054C40.0353 44.7111 40.0181 44.7054 40.001 44.694C39.7038 44.4711 39.401 44.3111 39.0982 44.2083C38.584 44.0426 38.064 43.8826 37.544 43.7398C37.5212 43.734 37.5098 43.7169 37.5098 43.694L37.8412 36.5061C37.8412 36.489 37.8526 36.4775 37.8697 36.4775L39.2982 36.5004C39.3382 36.5004 39.361 36.5232 39.3553 36.5632C39.3096 37.5289 39.2753 38.5174 39.241 39.5287C39.2068 40.6715 39.1439 41.7971 39.1268 42.957C39.1325 42.9741 39.1439 42.9855 39.161 42.9855Z" fill="white"/>
<path d="M21.8827 36.8604C21.877 37.226 21.8541 37.4832 21.8141 37.6374C21.6656 38.2031 21.5742 38.8487 21.7056 39.4373C21.8084 39.8829 21.917 40.2601 22.0427 40.5515C22.2427 41.0371 22.5512 41.4942 22.974 41.9342C23.0655 42.0313 23.174 42.1113 23.2997 42.1742C23.5911 42.3227 23.9054 42.4541 24.2368 42.5798C24.7167 42.757 25.2253 42.8027 25.7509 42.717C25.7681 42.717 25.7795 42.7227 25.7852 42.7398C25.7852 42.7455 25.7852 42.7513 25.7795 42.757C25.7624 42.7855 25.5452 42.8484 25.4938 42.8827C25.2995 43.0084 25.0824 43.0884 24.8367 43.1227C24.8367 43.1284 24.8367 43.1341 24.8367 43.1398C24.8367 43.1455 24.8367 43.1455 24.8425 43.1455C25.2996 43.1569 25.6995 43.1284 26.0366 43.0655C26.2423 43.0255 26.5166 42.9227 26.8594 42.7513C26.8708 42.7455 26.8765 42.7513 26.888 42.757L26.8994 42.7684C26.9051 42.7798 26.9051 42.7913 26.8937 42.8027C26.728 42.9284 26.5566 43.0427 26.3852 43.1455C26.2766 43.2084 26.1623 43.2598 26.048 43.2998C26.0081 43.3112 26.0081 43.3169 26.0538 43.3169C26.1223 43.3169 26.1795 43.3055 26.2423 43.2826C26.4137 43.2141 26.5909 43.1455 26.768 43.0769C27.4137 42.8198 27.9565 42.3741 28.4021 41.7399C28.5564 41.5228 28.6364 41.3057 28.6535 41.0828C28.6478 41.5457 28.6535 42.0085 28.665 42.4713C28.6764 42.8998 28.7278 43.3226 28.7735 43.7512C28.7792 43.8255 28.7507 43.8712 28.6878 43.894C28.1222 44.0826 27.6079 44.3054 27.1451 44.5568C26.368 44.9796 25.631 45.4653 25.0424 46.1167C24.6539 46.5509 24.2939 47.1794 24.0368 47.7451C23.4029 47.3158 19.9001 44.091 19.5115 43.2026C19.4715 43.1512 19.4543 43.0941 19.4601 43.0312C19.4715 42.7341 19.5286 42.4484 19.6258 42.1742C19.8429 41.5628 19.98 40.9343 20.2086 40.3343C20.5857 39.3287 21.0313 38.3631 21.5456 37.4203C21.6313 37.2432 21.7627 37.0546 21.8827 36.8604Z" fill="#302E31"/>
<path d="M49.8796 37.7803C50.2167 38.5402 50.4281 39.323 50.5138 40.1286C50.5138 40.1401 50.5081 40.14 50.5024 40.1458C50.4967 40.1458 50.491 40.1458 50.4852 40.1343C50.2967 39.3116 50.0681 38.563 49.7996 37.8774C49.6739 37.5631 49.5253 37.2603 49.3539 36.9632C49.3482 36.9575 49.3539 36.9518 49.3596 36.9518C49.3654 36.946 49.3653 36.9518 49.3711 36.9518C49.5768 37.2032 49.7482 37.4774 49.8796 37.7803Z" fill="black"/>
<path d="M44.554 38.7052C44.554 39.4195 43.9712 40.0023 43.257 40.0023C42.5428 40.0023 41.96 39.4195 41.96 38.7052C41.96 37.991 42.5428 37.4082 43.257 37.4082C43.9712 37.4139 44.554 37.991 44.554 38.7052Z" fill="white"/>
<path d="M49.3534 37.7857C49.3477 37.7857 49.3477 37.78 49.3477 37.7743C49.3477 37.7686 49.3534 37.7686 49.3534 37.7686C49.5305 37.8143 49.6791 38.1514 49.7533 38.3399C49.9305 38.8256 50.039 39.3627 50.079 39.9455C50.079 39.9512 50.079 39.9569 50.0733 39.9569C50.0676 39.9569 50.0619 39.9569 50.0619 39.9512C49.999 39.5741 49.9076 39.1684 49.7933 38.7399C49.7133 38.4542 49.6048 38.1685 49.4677 37.8943C49.4391 37.8428 49.4048 37.8086 49.3534 37.7857Z" fill="black"/>
<path d="M35.3374 46.3172C35.0288 46.2601 34.7146 46.243 34.4003 46.2772C34.246 46.2944 34.1089 46.3287 33.9832 46.3858C33.8461 46.4429 33.7204 46.5172 33.6004 46.6029C33.2575 46.8486 32.9033 47.1172 32.549 47.4086C32.2176 47.6771 31.8634 47.8885 31.5034 48.1114C31.3834 48.1856 31.2692 48.2428 31.1549 48.2828C30.5435 48.5056 30.0921 48.637 29.8064 48.6942C29.5722 48.7342 29.3265 48.7799 29.0751 48.8256C28.8579 48.8656 28.6808 48.8827 28.5265 48.8827C28.2866 48.877 28.1037 48.8542 27.978 48.8142C27.738 48.7399 27.5095 48.6599 27.2752 48.5856C27.1724 48.5513 27.1724 48.5342 27.2809 48.5285C27.4066 48.5228 27.5381 48.5228 27.6752 48.5228C27.858 48.5228 28.0466 48.4885 28.2123 48.4313C28.3323 48.3856 28.3323 48.3571 28.2066 48.3342C27.9209 48.2828 27.6466 48.1914 27.3838 48.0485C27.2638 47.9857 27.1609 47.9 27.0638 47.7971C26.8695 47.5857 26.6867 47.3629 26.5039 47.1343C26.3153 46.8943 26.121 46.5344 26.1553 46.2372C26.1668 46.1173 26.2296 45.8773 26.3324 45.5059C26.9038 45.0888 27.5266 44.7402 28.2123 44.466C29.0351 44.1346 29.8807 43.906 30.7549 43.7689C31.5834 43.6375 32.3891 43.5689 33.2347 43.5803C33.8004 43.5918 34.286 43.6089 34.7031 43.6375C35.1031 43.666 35.5545 43.7289 36.063 43.8375C36.4973 43.9289 37.0115 43.9803 37.44 44.0831C38 44.2203 38.5485 44.3688 39.0799 44.5231C39.2913 44.586 39.4799 44.6717 39.6399 44.7859C39.6513 44.7917 39.6456 44.8145 39.6341 44.8145C38.3542 45.1688 37.0629 45.6259 35.7659 46.1744C35.6916 46.203 35.6173 46.2315 35.5431 46.2544C35.4745 46.2772 35.4059 46.3001 35.3374 46.3172ZM30.9435 44.9345L30.9492 44.8945C30.9492 44.8888 30.9435 44.8831 30.9378 44.8831H30.9263C30.4007 44.8031 29.9721 44.7517 29.9664 44.7631V44.7745C29.9664 44.7859 30.3892 44.8602 30.9149 44.9402H30.9263C30.9321 44.9459 30.9378 44.9402 30.9435 44.9345ZM29.3608 44.9688V44.9916C29.3608 44.9916 29.3608 44.9973 29.3665 44.9973C30.0578 45.1231 30.7321 45.283 31.3949 45.4716C31.412 45.4773 31.4234 45.4659 31.4291 45.4545L31.4349 45.4373C31.4406 45.4087 31.4291 45.3859 31.4006 45.3745C30.7549 45.1231 30.075 44.9859 29.3665 44.9631L29.3608 44.9688ZM30.0407 45.283C29.7093 45.2259 29.395 45.1802 29.0922 45.1516C28.9894 45.1402 28.8922 45.1459 28.7951 45.1516H28.7894C28.7894 45.1516 28.7894 45.1459 28.7951 45.1459H28.8008C29.5722 45.2773 30.3035 45.4373 31.052 45.7173C31.3892 45.843 31.7091 45.9573 32.012 46.0544C32.1491 46.1001 32.2634 46.163 32.3834 46.243C32.5491 46.3515 32.5662 46.3344 32.4291 46.1858C32.3148 46.0601 32.1777 45.9687 32.012 45.9058C31.3206 45.6487 30.7149 45.4087 30.0407 45.283Z" fill="#464B51"/>
<path d="M52.8441 47.9789C52.7413 47.8589 52.6327 47.7732 52.5241 47.7332C52.1242 47.5732 51.7014 47.4989 51.2671 47.5161C50.7472 47.5389 50.1872 47.6189 49.5815 47.7675C49.2616 47.8475 48.8787 47.9617 48.4331 48.116C48.0445 48.2474 47.6389 48.3846 47.216 48.5274C46.6618 48.7103 45.9419 49.0074 45.0505 49.4131C44.822 49.5159 44.6334 49.6187 44.4791 49.7159H44.4734L44.462 49.7045C44.4506 49.6873 44.4563 49.6759 44.4677 49.6645C44.5877 49.5845 44.7134 49.5102 44.8391 49.4416C45.3019 49.2016 45.7533 48.9445 46.199 48.6703C46.2104 48.6588 46.2218 48.6531 46.2218 48.6417C46.2218 48.6245 46.2161 48.6188 46.199 48.6245C45.9019 48.7617 45.599 48.8645 45.2962 48.9388C45.1191 48.9845 44.9534 49.0417 44.7762 49.0988C44.4506 49.2074 44.0906 49.2645 43.7763 49.3559C43.1364 49.5445 42.6964 49.6645 42.4622 49.7102C41.7194 49.8702 40.948 50.0244 40.1538 50.1844C39.7653 50.2587 39.411 50.3101 39.0853 50.3387C38.7425 50.3672 38.3825 50.3901 38.0111 50.413C37.6283 50.4358 37.1541 50.4358 36.5884 50.4015C36.5827 50.4015 36.577 50.3958 36.5827 50.3901L36.5884 50.373C36.5884 50.373 36.5884 50.373 36.5941 50.373C36.6513 50.3673 36.7027 50.3615 36.7541 50.3501C36.7884 50.3444 36.7884 50.333 36.7541 50.3215C36.5141 50.2473 36.2856 50.1901 36.0513 50.1044C35.3942 49.8587 34.7029 49.573 34.1943 49.0588C33.8115 48.6703 33.6915 48.1903 33.8401 47.6189C34.1715 47.3618 34.5257 47.1561 34.8914 46.9904C35.7428 46.6076 36.6741 46.2305 37.6854 45.8534C38.034 45.7219 38.3825 45.6077 38.7196 45.5048C39.6567 45.2191 40.5595 44.9677 41.4165 44.7563C42.7421 44.4249 44.1763 44.2364 45.7076 44.1849C46.3418 44.1621 47.0103 44.2078 47.6731 44.2306C48.2445 44.2478 48.833 44.2992 49.3987 44.3678C49.8444 44.4192 50.2958 44.4935 50.7586 44.5906C51.5699 44.7563 52.1413 45.2191 52.4899 45.9619C52.6784 46.3733 52.8041 46.6933 52.867 46.9276C52.9412 47.2304 52.9355 47.5789 52.8441 47.9789ZM40.4738 45.5277C39.691 45.7734 38.9253 46.1448 38.2054 46.5104C38.1997 46.5104 38.1997 46.5162 38.1997 46.5219C38.1997 46.5276 38.2054 46.5276 38.2111 46.5276C39.7653 45.8876 41.3651 45.3734 43.005 44.9906C43.165 44.9506 43.3307 44.9449 43.4849 44.922C43.5249 44.9163 43.5249 44.9049 43.4849 44.8934C43.3935 44.8649 43.2678 44.8649 43.1078 44.8934C42.1593 45.0649 41.2794 45.2763 40.4738 45.5277ZM40.6338 45.9619C40.6852 45.9391 40.6852 45.9334 40.628 45.9334C40.5138 45.9448 40.3995 45.9734 40.2795 46.0134C39.491 46.299 38.7139 46.6819 37.9483 47.1675C37.9426 47.1675 37.9426 47.1732 37.9483 47.179C37.954 47.1847 37.954 47.1847 37.9597 47.1847C38.8111 46.7733 39.7024 46.3619 40.6338 45.9619ZM38.074 47.5275C38.0683 47.5275 38.0683 47.5332 38.074 47.5389C38.074 47.5389 38.074 47.5389 38.0797 47.5389C38.6168 47.2818 39.1425 47.0075 39.6624 46.7276C39.7653 46.6704 39.7596 46.6647 39.651 46.6933C39.0968 46.859 38.5539 47.2132 38.074 47.5275Z" fill="#464B51"/>
<path d="M30.9441 44.9329C30.9441 44.9386 30.9383 44.9443 30.9326 44.9443H30.9212C30.3955 44.8643 29.967 44.7901 29.9727 44.7786V44.7672C29.9727 44.7558 30.4012 44.8072 30.9326 44.8872H30.9441C30.9498 44.8872 30.9555 44.8929 30.9555 44.8986L30.9441 44.9329Z" fill="black"/>
<path d="M40.4744 45.5276C41.2801 45.2762 42.16 45.0648 43.1142 44.8876C43.2799 44.8591 43.4056 44.8591 43.4913 44.8876C43.5313 44.8991 43.5313 44.9105 43.4913 44.9162C43.3313 44.9448 43.1713 44.9505 43.0114 44.9848C41.3715 45.3676 39.7716 45.8761 38.2175 46.5218C38.2118 46.5218 38.2118 46.5218 38.2061 46.5161C38.2061 46.5104 38.2061 46.5046 38.2118 46.5046C38.926 46.1447 39.6916 45.7733 40.4744 45.5276Z" fill="black"/>
<path d="M29.3733 44.9629C30.0818 44.9857 30.7618 45.1229 31.4074 45.3743C31.436 45.3857 31.4474 45.4029 31.4417 45.4371L31.436 45.4543C31.4303 45.4714 31.4188 45.4771 31.4017 45.4714C30.7389 45.2829 30.0647 45.1229 29.3733 44.9972C29.3676 44.9972 29.3676 44.9972 29.3676 44.9915V44.9686C29.3619 44.9686 29.3676 44.9629 29.3733 44.9629Z" fill="black"/>
<path d="M30.042 45.2817C30.7162 45.4017 31.3218 45.6417 32.0075 45.9102C32.1675 45.9731 32.3046 46.0645 32.4246 46.1902C32.5617 46.3331 32.5446 46.3559 32.3789 46.2474C32.2589 46.1674 32.1389 46.1045 32.0075 46.0588C31.7047 45.9617 31.3847 45.8474 31.0476 45.7217C30.2991 45.4417 29.5734 45.276 28.7963 45.1503H28.7906C28.7906 45.1503 28.7849 45.1503 28.7906 45.156C28.7906 45.156 28.7906 45.1617 28.7963 45.156C28.8935 45.1446 28.9963 45.1446 29.0935 45.156C29.3963 45.1789 29.7106 45.2246 30.042 45.2817Z" fill="black"/>
<path d="M26.3434 45.5039C26.2406 45.8696 26.1834 46.1153 26.1663 46.2353C26.132 46.5324 26.3263 46.8924 26.5148 47.1323C26.6977 47.3609 26.8805 47.5837 27.0748 47.7951C27.1719 47.898 27.2748 47.9837 27.3948 48.0465C27.6576 48.1894 27.9318 48.2865 28.2175 48.3322C28.3432 48.3551 28.349 48.3894 28.2233 48.4294C28.0576 48.4865 27.869 48.5208 27.6862 48.5208C27.549 48.5208 27.4176 48.5208 27.2919 48.5265C27.1833 48.5322 27.1833 48.5494 27.2862 48.5836C27.5205 48.6579 27.749 48.7322 27.989 48.8122C28.1147 48.8522 28.2975 48.875 28.5375 48.8808C28.6861 48.8865 28.8689 48.8636 29.086 48.8236C29.3374 48.7779 29.5774 48.7322 29.8174 48.6922C30.1031 48.6408 30.5545 48.5036 31.1659 48.2808C31.2801 48.2408 31.3944 48.1837 31.5144 48.1094C31.8744 47.8866 32.2286 47.6751 32.56 47.4066C32.9143 47.1209 33.2685 46.8524 33.6114 46.601C33.7313 46.5152 33.857 46.4467 33.9942 46.3838C34.1199 46.3267 34.257 46.2924 34.4113 46.2753C34.7255 46.241 35.0341 46.2524 35.3483 46.3153L34.1656 46.9152C34.1427 46.9266 34.1199 46.9095 34.1199 46.8809C34.1427 46.7438 34.2056 46.6181 34.3141 46.5095C34.3199 46.5095 34.3199 46.5038 34.3141 46.4981L34.3027 46.4867C34.2913 46.4753 34.2856 46.4753 34.2741 46.4867C34.177 46.561 34.097 46.641 34.0285 46.7267C33.5828 47.3037 33.2857 47.898 33.0685 48.6293C32.96 48.995 32.8457 49.3779 32.72 49.7778C32.5543 50.2978 32.3486 50.8006 32.0229 51.2463C31.9315 51.372 31.7658 51.5605 31.6058 51.412C31.5372 51.3491 31.4801 51.2634 31.423 51.1606C31.3144 50.9434 31.2059 50.732 31.0973 50.5149C31.063 50.4463 31.0459 50.452 31.0459 50.5263C31.0459 50.5835 31.0516 50.6406 31.0687 50.6977C31.0802 50.7434 31.063 50.7949 31.023 50.8177C30.7773 51.0006 30.5316 51.2005 30.2916 51.412C30.2345 51.4634 30.1659 51.4748 30.0917 51.4405C28.8803 50.9149 27.8576 50.4063 27.0291 49.9207C26.4463 49.5778 25.8863 49.2121 25.3492 48.8236C25.0407 48.6065 24.7321 48.3779 24.4122 48.1494C24.3836 48.1322 24.3607 48.1094 24.3379 48.0808C24.3265 48.0694 24.3207 48.0523 24.3265 48.0294C24.355 47.9094 24.3893 47.8008 24.435 47.698C24.755 47.0009 25.2235 46.3838 25.8463 45.8524C26.012 45.721 26.1834 45.5953 26.3434 45.5039Z" fill="#302E31"/>
<path d="M40.6327 45.9622C39.7014 46.3678 38.81 46.7735 37.9587 47.1849C37.953 47.1849 37.953 47.1849 37.9473 47.1792C37.9473 47.1735 37.9473 47.1735 37.9473 47.1678C38.7129 46.6821 39.49 46.2936 40.2785 46.0136C40.3985 45.9736 40.5127 45.945 40.627 45.9336C40.6784 45.9336 40.6842 45.9393 40.6327 45.9622Z" fill="black"/>
<path d="M38.0692 47.5283C38.5549 47.214 39.0977 46.8541 39.6405 46.6941C39.749 46.6598 39.7548 46.6712 39.6519 46.7284C39.132 47.0083 38.6063 47.2826 38.0692 47.5397H38.0635C38.0692 47.534 38.0692 47.534 38.0692 47.5283Z" fill="black"/>
<path d="M56.3526 46.8424C56.3583 46.8481 56.324 46.8938 56.2726 46.9396C56.2268 46.9853 56.1811 47.0253 56.1754 47.0138C56.1697 47.0081 56.204 46.9624 56.2554 46.9167C56.3011 46.871 56.3411 46.8367 56.3526 46.8424Z" fill="#302E31"/>
<path d="M52.8454 47.9799L52.8568 48.1456C52.8568 48.2027 52.8796 48.2141 52.9196 48.1684C52.9253 48.1627 52.9311 48.1513 52.9425 48.1342L53.1196 48.2084C53.0625 48.2199 53.0111 48.2256 52.9539 48.2256C52.8968 48.2256 52.8396 48.2313 52.7768 48.2427C52.1597 48.3456 51.6455 48.4541 51.2169 48.5741C51.0112 48.6313 50.8113 48.677 50.6227 48.7112C50.0856 48.8084 49.5656 48.9569 49.0457 49.1169C48.0172 49.4369 47.023 49.8711 46.0631 50.414C45.6174 50.6711 45.126 50.9853 44.5947 51.3624C43.9947 51.791 43.4976 52.1452 43.0976 52.4366C42.8177 52.648 42.532 52.8652 42.2463 53.0937C42.1949 53.1337 42.1377 53.1566 42.0692 53.1623C40.9835 53.2766 40.0008 53.3223 39.1151 53.3108C38.3838 53.2994 37.5381 53.2423 36.5896 53.1509C36.3725 53.128 35.8811 53.0537 35.1155 52.9166C33.9213 52.7052 32.6357 52.3681 31.2587 51.8938C31.0244 51.8138 30.7959 51.7224 30.5616 51.6253C30.533 51.6138 30.5273 51.5738 30.5559 51.5567C30.7559 51.4196 30.9273 51.2482 31.0758 51.0425C31.0987 51.0082 31.1101 51.0139 31.1158 51.0539C31.1787 51.4367 31.5101 51.9224 31.9558 51.7053C32.07 51.6481 32.1786 51.551 32.2872 51.4024C32.5843 51.0082 32.83 50.4882 33.03 49.854C33.2071 49.2826 33.3271 48.8827 33.3842 48.6541C33.4871 48.2256 33.6413 47.8827 33.8413 47.6199C33.6928 48.1856 33.8127 48.6655 34.1956 49.0598C34.6984 49.574 35.3955 49.8597 36.0526 50.1054C36.2868 50.1911 36.5211 50.2483 36.7553 50.3225C36.7896 50.334 36.7896 50.3397 36.7553 50.3511C36.7039 50.3625 36.6525 50.3682 36.5954 50.374H36.5896L36.5839 50.3911C36.5839 50.3968 36.5839 50.4025 36.5954 50.4025C37.161 50.4311 37.6353 50.4368 38.0181 50.414C38.3895 50.3911 38.7495 50.3625 39.0923 50.3397C39.4123 50.3111 39.7722 50.2654 40.1608 50.1854C40.9607 50.0311 41.7263 49.8711 42.4691 49.7112C42.7034 49.6597 43.1434 49.5397 43.7833 49.3569C44.0976 49.2655 44.4575 49.2083 44.7832 49.0998C44.9546 49.0426 45.126 48.9798 45.3032 48.9398C45.606 48.8655 45.9088 48.7627 46.2059 48.6255C46.2231 48.6198 46.2288 48.6255 46.2288 48.6427C46.2288 48.6541 46.2174 48.6655 46.2059 48.6712C45.766 48.9455 45.3146 49.2026 44.8461 49.4426C44.7146 49.5112 44.5946 49.5855 44.4747 49.6654C44.4632 49.6769 44.4575 49.6883 44.469 49.7054L44.4804 49.7169H44.4861C44.6404 49.6197 44.8289 49.5169 45.0575 49.414C45.9488 49.0084 46.6688 48.7112 47.223 48.5284C47.6458 48.3856 48.0515 48.2541 48.44 48.117C48.8857 47.9627 49.2685 47.8485 49.5885 47.7685C50.1942 47.6199 50.7598 47.5342 51.2798 47.5171C51.714 47.4999 52.1311 47.5742 52.5311 47.7342C52.6339 47.7799 52.7368 47.8599 52.8454 47.9799Z" fill="#302E31"/>
<path d="M53.6569 48.4189C53.6798 48.4647 53.7027 48.4932 53.7255 48.4989C52.6342 49.3446 51.4286 50.1045 50.1087 50.773C48.9545 51.3558 47.8175 51.8301 46.7033 52.1843C45.4862 52.5729 44.2406 52.87 42.9665 53.07C42.9379 53.0757 42.9265 53.0642 42.9436 53.0357C42.9493 53.03 42.9493 53.0243 42.955 53.0185C43.6178 52.5329 44.2978 52.0415 45.0006 51.5444C46.2062 50.693 47.5261 49.9902 48.8345 49.5503C49.3716 49.3674 49.9087 49.1903 50.4344 49.0189C50.7486 48.916 51.0686 48.8361 51.3943 48.7846C51.72 48.7389 52.0342 48.6818 52.3485 48.6246C52.6627 48.5618 53.057 48.5104 53.5312 48.4589C53.5541 48.4589 53.5998 48.4475 53.6569 48.4189Z" fill="#302E31"/>
</g>
<path d="M77.1987 42.0264V14.113H82.582V37.8394H94.824V42.0264H77.1987ZM99.4344 42.0264V21.9287H104.818V42.0264H99.4344ZM102.146 19.1773C101.189 19.1773 100.391 18.8981 99.7534 18.3399C99.142 17.755 98.8363 17.0239 98.8363 16.1467C98.8363 15.2694 99.142 14.5516 99.7534 13.9934C100.391 13.4085 101.189 13.1161 102.146 13.1161C103.13 13.1161 103.927 13.4085 104.539 13.9934C105.177 14.5516 105.496 15.2694 105.496 16.1467C105.496 17.0239 105.177 17.755 104.539 18.3399C103.927 18.8981 103.13 19.1773 102.146 19.1773ZM110.257 42.0264V21.9287H115.003L115.401 25.1986C116.013 24.082 116.877 23.1782 117.993 22.487C119.137 21.7958 120.492 21.4502 122.061 21.4502C123.736 21.4502 125.145 21.7958 126.288 22.487C127.431 23.1782 128.295 24.1884 128.88 25.5176C129.491 26.8468 129.797 28.4817 129.797 30.4224V42.0264H124.453V30.9408C124.453 29.3457 124.108 28.1228 123.417 27.2721C122.752 26.4215 121.715 25.9961 120.306 25.9961C119.402 25.9961 118.592 26.2088 117.874 26.6341C117.183 27.0595 116.638 27.6709 116.239 28.4684C115.84 29.2394 115.641 30.1831 115.641 31.2997V42.0264H110.257ZM142.365 42.5049C140.744 42.5049 139.348 42.1726 138.178 41.508C137.035 40.8168 136.158 39.8199 135.546 38.5173C134.935 37.188 134.629 35.5531 134.629 33.6125V21.9287H140.013V33.0542C140.013 34.6758 140.345 35.8987 141.009 36.7228C141.701 37.5469 142.751 37.959 144.16 37.959C145.064 37.959 145.861 37.7596 146.552 37.3608C147.243 36.9355 147.788 36.3374 148.187 35.5664C148.613 34.7689 148.825 33.7986 148.825 32.6554V21.9287H154.169V42.0264H149.463L149.025 38.7565C148.44 39.8996 147.576 40.8168 146.433 41.508C145.29 42.1726 143.934 42.5049 142.365 42.5049ZM167.655 42.5049C165.821 42.5049 164.226 42.2125 162.87 41.6276C161.514 41.0428 160.451 40.2319 159.68 39.1952C158.909 38.1584 158.47 36.9887 158.364 35.686H163.707C163.84 36.1911 164.066 36.6564 164.385 37.0817C164.704 37.4805 165.13 37.7995 165.661 38.0387C166.193 38.278 166.831 38.3976 167.575 38.3976C168.293 38.3976 168.878 38.3046 169.33 38.1185C169.782 37.9058 170.114 37.6267 170.327 37.2811C170.566 36.9355 170.686 36.5766 170.686 36.2044C170.686 35.6462 170.526 35.2208 170.207 34.9284C169.888 34.6094 169.423 34.3568 168.812 34.1707C168.2 33.9847 167.456 33.7986 166.579 33.6125C165.622 33.4264 164.678 33.2004 163.747 32.9346C162.843 32.6422 162.033 32.2833 161.315 31.8579C160.597 31.4326 160.026 30.8876 159.6 30.223C159.175 29.5584 158.962 28.7343 158.962 27.7507C158.962 26.5544 159.281 25.491 159.919 24.5606C160.557 23.6035 161.488 22.8459 162.711 22.2876C163.933 21.7293 165.409 21.4502 167.137 21.4502C169.556 21.4502 171.47 21.9952 172.879 23.0851C174.288 24.1751 175.125 25.6771 175.391 27.5912H170.327C170.167 26.9797 169.809 26.5012 169.25 26.1556C168.719 25.7834 168.001 25.5973 167.097 25.5973C166.14 25.5973 165.409 25.7701 164.904 26.1157C164.399 26.4613 164.146 26.9133 164.146 27.4715C164.146 27.8437 164.306 28.176 164.625 28.4684C164.97 28.7609 165.449 29.0134 166.06 29.2261C166.672 29.4122 167.416 29.5983 168.293 29.7844C169.835 30.1034 171.191 30.4755 172.361 30.9009C173.53 31.2997 174.447 31.8845 175.112 32.6554C175.777 33.3998 176.109 34.4898 176.109 35.9253C176.109 37.2013 175.763 38.3445 175.072 39.3547C174.381 40.3383 173.397 41.1092 172.121 41.6675C170.872 42.2257 169.383 42.5049 167.655 42.5049Z" fill="white"/>
<defs>
<clipPath id="clip0_813_2338">
<rect width="54.0524" height="54.0524" fill="white" transform="translate(12 1)"/>
</clipPath>
</defs>
</svg>
