<svg width="345" height="115" viewBox="0 0 345 115" fill="none" xmlns="http://www.w3.org/2000/svg">
<path d="M57.4867 16.662C46.7823 16.5739 36.5441 20.7874 28.6642 28.5328L28.6619 28.5351L28.2886 28.9038C12.9463 44.3898 12.9741 69.7918 28.3465 85.5352C35.7974 93.1577 45.8617 97.4199 56.6912 97.5359C56.842 97.5382 56.9904 97.5382 57.1434 97.5382C67.8014 97.5382 77.7938 93.5009 85.3165 86.1405C93.1407 78.4879 97.4911 68.2242 97.5699 57.2369C97.6488 46.5001 93.6161 36.4799 86.214 29.0221C78.3944 21.1422 68.1887 16.7524 57.4843 16.6643L57.4867 16.662ZM69.689 45.7372C75.767 52.3903 75.5908 62.7143 69.1534 69.1517C62.7159 75.5892 51.7959 75.7724 45.1753 69.1517C38.5546 62.5311 38.5546 51.7943 45.1753 45.1737C51.7959 38.553 62.062 38.56 68.7104 44.7539C68.722 38.8568 68.7313 32.9991 68.7383 26.8979C72.9657 28.5652 76.966 31.1694 80.4815 34.7128C83.6144 37.8689 85.9844 41.6117 87.508 45.714C82.0097 45.7209 75.9178 45.7279 69.689 45.7372Z" fill="white"/>
<g clip-path="url(#clip0_1208_3747)">
<path d="M236.332 79.1458V34.6795C236.688 34.6623 237.022 34.6336 237.358 34.6336C249.261 34.6317 261.164 34.6661 273.067 34.6203C281.341 34.5878 288.601 40.4971 290.174 48.6724C290.359 49.6372 290.451 50.6326 290.453 51.6147C290.456 55.4969 290.556 59.3849 290.344 63.2576C289.939 70.5922 284.713 76.7652 277.545 78.5497C276.143 78.8993 274.668 79.1171 273.225 79.1229C261.259 79.1687 249.292 79.1477 237.326 79.1477C237.016 79.1477 236.707 79.1477 236.336 79.1477L236.332 79.1458ZM246.315 56.7923C246.315 61.5037 246.326 66.2151 246.303 70.9247C246.3 71.6105 246.479 71.8838 247.211 71.8818C255.105 71.8589 263 71.9143 270.894 71.8398C275.978 71.7921 280.193 67.5449 280.317 62.4189C280.403 58.7926 280.403 55.1606 280.321 51.5344C280.201 46.1753 275.894 41.974 270.539 41.953C262.803 41.9224 255.069 41.953 247.333 41.9281C246.552 41.9262 246.292 42.1383 246.298 42.9445C246.332 47.5605 246.315 52.1764 246.315 56.7904V56.7923Z" fill="white"/>
<path d="M199.365 79.1446C195.289 79.1446 191.212 79.156 187.137 79.1427C178.329 79.1102 170.857 72.2857 170.343 63.4799C170.074 58.8525 170.137 54.1812 170.414 49.552C170.8 43.0771 176.482 36.6767 182.833 35.2744C184.585 34.8865 186.407 34.6725 188.199 34.6572C195.842 34.5904 203.484 34.5923 211.124 34.6401C218.541 34.6859 223.913 38.081 227.196 44.7316C228.193 46.7549 228.686 48.931 228.713 51.1797C228.76 54.9684 228.778 58.7589 228.717 62.5476C228.594 70.0541 223.296 76.7277 216.002 78.5236C214.477 78.9 212.874 79.0853 211.302 79.1178C207.324 79.2 203.342 79.1446 199.361 79.1446H199.365ZM199.384 71.8692C199.384 71.8577 199.384 71.8462 199.384 71.8348C202.853 71.8348 206.325 71.9246 209.791 71.8119C214.015 71.6762 218.212 67.9067 218.505 63.7034C218.797 59.4907 218.86 55.2359 218.623 51.0212C218.323 45.6907 214.059 41.967 208.684 41.9479C202.572 41.9269 196.461 42.0129 190.351 41.9212C184.701 41.8371 180.043 46.4072 180.217 52.0261C180.316 55.2702 180.223 58.5182 180.244 61.7661C180.249 62.5571 180.286 63.3634 180.441 64.1352C181.325 68.5219 185.349 72.0392 190.406 71.8845C193.396 71.7927 196.39 71.8673 199.382 71.8673L199.384 71.8692Z" fill="white"/>
<path d="M297.07 34.6699H344.987C344.987 35.3233 344.987 35.9424 344.987 36.5633C344.987 37.9332 344.987 39.3011 344.987 40.671C344.985 41.5205 344.543 41.9453 343.659 41.9453C332.897 41.9453 322.136 41.9453 311.374 41.9453C310.228 41.9453 309.082 41.974 307.935 41.9339C307.305 41.9128 307.11 42.1421 307.116 42.7611C307.142 45.3404 307.141 47.9196 307.116 50.497C307.11 51.1561 307.343 51.3949 308.008 51.3873C310.427 51.3606 312.847 51.3777 315.268 51.3777C323.546 51.3777 331.825 51.3777 340.103 51.3777C341.38 51.3777 341.382 51.3816 341.383 52.6311C341.385 54.2226 341.338 55.816 341.403 57.4056C341.439 58.3207 341.145 58.6054 340.218 58.6016C331.781 58.571 323.344 58.5825 314.905 58.5844C312.645 58.5844 310.383 58.6073 308.123 58.5729C307.395 58.5614 307.098 58.7678 307.112 59.5416C307.148 61.8915 306.944 64.2664 308.123 66.4463C309.907 69.7516 312.62 71.7806 316.414 71.8226C325.455 71.922 334.498 71.8666 343.54 71.8723C344.503 71.8723 344.985 72.3646 344.985 73.3492C344.985 74.9731 344.96 76.5971 344.996 78.2211C345.012 78.8955 344.853 79.1668 344.1 79.1649C333.848 79.1381 323.596 79.2031 313.344 79.119C306.017 79.0598 299.049 73.2001 297.59 66.0088C297.282 64.4918 297.099 62.9213 297.089 61.3757C297.041 52.8431 297.066 44.3106 297.066 35.778C297.066 35.4361 297.066 35.0941 297.066 34.6699H297.07Z" fill="white"/>
<path d="M127.943 34.6031C127.943 35.1546 127.943 35.5926 127.943 36.0305C127.943 47.583 127.943 59.2086 127.943 70.7612C127.943 71.746 128.342 72.2394 129.585 72.2413C140.55 72.2413 154.428 72.2413 165.39 72.2413H167.103C166.978 72.6154 166.95 72.7891 166.817 72.997C165.598 74.9011 164.339 76.7915 163.142 78.7039C162.845 79.1779 162.471 79.3082 161.828 79.3082C148.518 79.2943 132.293 79.2971 118.983 79.2943C118.673 79.2943 118.363 79.2472 117.925 79.2112C117.925 78.8204 117.925 78.4794 117.925 78.1357C117.925 64.0304 117.939 49.9251 117.897 35.8226C117.903 34.8553 118.196 34.5449 119.444 34.5809C122.143 34.653 125.069 34.6031 127.943 34.6031Z" fill="white"/>
</g>
<defs>
<clipPath id="clip0_1208_3747">
<rect width="227.16" height="44.558" fill="white" transform="translate(117.84 34.6055)"/>
</clipPath>
</defs>
</svg>
