<svg width="190" height="56" viewBox="0 0 190 56" fill="none" xmlns="http://www.w3.org/2000/svg">
<path d="M44.9041 2C30.6204 2 19 13.6204 19 27.9055C19 42.1905 30.6204 53.8095 44.9041 53.8095C59.1878 53.8095 70.8096 42.1891 70.8096 27.9055C70.8096 13.6218 59.1892 2 44.9041 2ZM57.2179 21.5836C58.3993 21.866 59.5079 22.1917 60.5313 22.5594C64.7631 24.0791 65.69 25.6351 65.69 26.1076C65.69 26.5801 64.7631 28.1347 60.5313 29.6544C59.9581 29.8599 59.3569 30.0542 58.7306 30.2332C58.753 29.906 58.7641 29.5761 58.7641 29.2434C58.7641 26.8933 58.2147 24.1951 57.2179 21.5836ZM44.9041 7.0329C52.9428 7.0329 59.9357 11.6017 63.421 18.28C63.0393 18.1221 62.6437 17.9697 62.2327 17.8229C59.8728 16.9757 57.1326 16.3214 54.159 15.8824C53.1553 14.511 52.0117 13.3045 50.7548 12.3622C49.0045 11.0536 47.0333 10.2595 44.9055 10.2595C42.7777 10.2595 40.8065 11.0536 39.0561 12.3622C37.7979 13.3045 36.6557 14.511 35.6519 15.8824C32.6783 16.3214 29.9382 16.9757 27.5783 17.8229C27.1631 17.9725 26.7661 18.1249 26.3886 18.28C29.8725 11.6017 36.8654 7.0329 44.9041 7.0329ZM53.7312 29.2434C53.7312 29.9648 53.6544 30.668 53.5104 31.3432C50.8317 31.7458 47.9196 31.9555 44.9055 31.9555C41.8913 31.9555 38.9778 31.7458 36.2992 31.3432C36.1552 30.668 36.0783 29.9648 36.0783 29.2434C36.0783 26.643 37.0542 23.3227 38.6004 20.5784C38.7346 20.3365 38.8758 20.1003 39.0198 19.8682C40.833 16.9603 42.9776 15.2924 44.9055 15.2924C46.8334 15.2924 48.9779 16.9603 50.7912 19.8682C50.9352 20.1003 51.0764 20.3365 51.2106 20.5784C52.7568 23.3227 53.7312 26.643 53.7312 29.2434ZM31.079 30.2332C30.4527 30.0542 29.8515 29.8599 29.2783 29.6544C25.0465 28.1347 24.1196 26.5787 24.1196 26.1076C24.1196 25.6365 25.0465 24.0791 29.2783 22.5594C30.3017 22.1917 31.4103 21.866 32.5916 21.5836C31.5948 24.1951 31.0454 26.8933 31.0454 29.2434C31.0454 29.5761 31.0566 29.906 31.079 30.2332ZM44.9041 48.7766C39.579 48.7766 34.7138 46.7718 31.0217 43.4767C35.3122 44.6063 40.032 45.2019 44.9055 45.2019C49.779 45.2019 54.4974 44.6063 58.7879 43.4767C55.0957 46.7718 50.2292 48.7766 44.9041 48.7766ZM64.0417 36.2349C61.3533 37.5407 58.2706 38.5417 54.9391 39.2071C51.7782 39.839 48.3922 40.169 44.9055 40.169C41.4188 40.169 38.0314 39.839 34.8704 39.2071C31.5389 38.5417 28.4563 37.5407 25.7679 36.2349C25.3359 35.2479 24.9794 34.2203 24.704 33.162C25.5679 33.6038 26.527 34.0134 27.5783 34.3909C29.0896 34.9333 30.756 35.3975 32.5413 35.775C34.7418 36.2433 37.1213 36.5816 39.607 36.7801C41.3293 36.9171 43.1048 36.9884 44.9055 36.9884C46.7061 36.9884 48.4802 36.9171 50.2026 36.7801C52.6883 36.5816 55.0678 36.2433 57.2683 35.775C59.0535 35.3975 60.72 34.9333 62.2327 34.3909C63.3175 34.0023 64.2696 33.5912 65.1042 33.1676C64.8288 34.2245 64.4723 35.2493 64.0417 36.2349Z" fill="white"/>
<path d="M103.645 20.6494C102.108 20.6494 100.748 20.9421 99.5612 21.5275C98.3742 22.1129 97.4315 22.9057 96.7347 23.9045V21.0885H91.71V39.2276H96.7347V29.8647C96.7347 28.1085 97.2444 26.756 98.2639 25.8047C99.2819 24.8534 100.56 24.379 102.096 24.379C103.632 24.379 104.825 24.7997 105.593 25.6412C106.361 26.4828 106.745 27.7194 106.745 29.3537V39.2276H111.77V28.9146C111.77 26.2084 111.057 24.1545 109.634 22.752C108.21 21.3507 106.214 20.6494 103.646 20.6494H103.645Z" fill="white"/>
<path d="M130.801 21.8202C129.252 21.0397 127.458 20.6494 125.42 20.6494C123.383 20.6494 121.428 21.058 119.809 21.8751C118.189 22.6922 116.934 23.8265 116.04 25.2766C115.146 26.7279 114.699 28.3914 114.699 30.2684C114.699 32.1454 115.153 33.7552 116.061 35.1688C116.967 36.5835 118.224 37.686 119.83 38.4788C121.435 39.2703 123.285 39.6666 125.378 39.6666C127.053 39.6666 128.547 39.3983 129.86 38.8617C131.171 38.3251 132.281 37.5994 133.189 36.6859C134.096 35.7712 134.731 34.7297 135.094 33.5589H129.986C129.622 34.315 129.05 34.9187 128.269 35.3688C127.487 35.82 126.524 36.0457 125.38 36.0457C124.318 36.0457 123.355 35.8383 122.49 35.4237C121.625 35.009 120.933 34.3992 120.418 33.5955C119.982 32.9162 119.732 32.1234 119.664 31.2185H135.598C135.654 30.877 135.682 30.5599 135.682 30.2672V29.4622C135.682 27.8048 135.256 26.3108 134.404 24.9827C133.552 23.6545 132.353 22.5996 130.803 21.819L130.801 21.8202ZM119.752 28.3658C119.876 27.7036 120.104 27.1243 120.436 26.6291C120.967 25.8376 121.672 25.24 122.55 24.8375C123.43 24.4351 124.386 24.2338 125.419 24.2338C126.843 24.2338 128.043 24.6058 129.021 25.3498C129.998 26.0937 130.529 27.0999 130.613 28.367H119.752V28.3658Z" fill="white"/>
<path d="M152.892 29.8476C152.25 29.4696 151.545 29.1708 150.778 28.9512C150.01 28.7317 149.249 28.5854 148.496 28.5122C148.189 28.4634 147.812 28.4085 147.365 28.3475C146.918 28.2866 146.478 28.2256 146.045 28.1646C145.612 28.1048 145.256 28.05 144.977 27.9999C143.051 27.7072 142.087 27.0621 142.087 26.062C142.087 25.501 142.395 25.0327 143.009 24.6534C143.624 24.2753 144.488 24.0862 145.605 24.0862C146.637 24.0862 147.524 24.2814 148.264 24.6717C149.003 25.0619 149.416 25.6595 149.5 26.4633H154.399C154.176 24.5619 153.296 23.1167 151.761 22.13C150.225 21.1434 148.173 20.6494 145.605 20.6494C143.037 20.6494 141.061 21.1982 139.68 22.2947C138.297 23.3923 137.607 24.7448 137.607 26.3547C137.607 27.428 137.894 28.3292 138.466 29.061C139.037 29.7928 139.799 30.3721 140.748 30.7977C141.696 31.2246 142.716 31.5234 143.805 31.6941C144.28 31.7917 144.846 31.8832 145.501 31.9685C146.155 32.0539 146.709 32.1332 147.155 32.2063C148.328 32.3527 149.144 32.5661 149.605 32.8466C150.066 33.1271 150.296 33.5235 150.296 34.0358C150.296 34.6699 149.954 35.2005 149.27 35.6261C148.585 36.053 147.615 36.2664 146.359 36.2664C145.104 36.2664 144.09 36.0164 143.24 35.5163C142.388 35.0163 141.864 34.3407 141.668 33.4869H136.518C136.769 35.4127 137.775 36.925 139.533 38.0214C141.291 39.119 143.512 39.6666 146.192 39.6666C148.062 39.6666 149.654 39.4105 150.967 38.8983C152.278 38.3861 153.276 37.6787 153.961 36.7774C154.645 35.8761 154.987 34.8273 154.987 33.6321C154.987 32.7052 154.799 31.938 154.422 31.3282C154.044 30.7197 153.535 30.2257 152.894 29.8476H152.892Z" fill="white"/>
<path d="M170.018 24.7809V21.088H164.575V16.334H159.55V21.088H155.99V24.7809H159.55V33.8145C159.55 35.3024 159.787 36.4354 160.262 37.216C160.737 37.9965 161.435 38.5271 162.356 38.8063C163.277 39.0869 164.407 39.2271 165.748 39.2271H169.81V35.4963H167.34C166.586 35.4963 166.013 35.4415 165.623 35.3317C165.232 35.2219 164.96 35.0085 164.807 34.6914C164.653 34.3743 164.576 33.8865 164.576 33.2279V24.7797H170.02L170.018 24.7809Z" fill="white"/>
</svg>
