<svg width="190" height="56" viewBox="0 0 190 56" fill="none" xmlns="http://www.w3.org/2000/svg">
<path d="M38.943 4.52261C38.9692 4.52233 38.9954 4.52205 39.0217 4.52205V4.52373C51.8466 4.62825 62.2109 15.0556 62.2109 27.9052C62.2109 40.8197 51.7417 51.2889 38.8271 51.2889C25.9126 51.2889 15.4434 40.8197 15.4434 27.9052C15.4434 15.1107 25.719 4.71802 38.4679 4.52598V4.52205C38.5224 4.52205 38.5767 4.52287 38.6309 4.52373C38.6963 4.5232 38.7617 4.52148 38.8271 4.52148C38.8658 4.52148 38.9044 4.52242 38.943 4.52261ZM38.7586 45.904L44.4043 49.4761C47.652 48.6389 50.6118 47.0868 53.1083 44.9988L46.591 40.9487L38.7586 45.904ZM24.4757 44.9397C26.8839 46.9707 29.728 48.5002 32.8485 49.3676L38.3234 45.9046L30.6922 41.0769L24.4757 44.9397ZM48.7282 7.9474C49.6054 8.68777 50.3586 9.51218 50.997 10.386C53.3591 13.6195 54.1427 17.494 53.9562 20.1211V44.2526C58.3507 40.1838 61.1027 34.3664 61.1027 27.9052C61.1027 19.1597 56.0621 11.5927 48.7282 7.9474ZM28.5196 8.15375C21.4064 11.8734 16.5516 19.3221 16.5516 27.9052C16.5516 34.2854 19.2348 40.0381 23.5333 44.0991V20.1211C23.3468 17.494 24.1304 13.6195 26.4926 10.386C27.0718 9.59309 27.7445 8.83955 28.5196 8.15375ZM38.5499 18.1695C36.266 18.2241 34.8074 19.3993 33.9106 20.8892C33.0344 22.3452 32.7088 24.0883 32.7332 25.3154L32.7428 25.5538L32.7434 25.5695V25.5858L32.7838 38.4416L37.3922 35.6089L38.7293 34.7784L38.7445 34.8031L38.7602 34.7784L39.9028 35.488L44.3571 38.2195V25.5706L44.3577 25.5538C44.4326 24.322 44.1245 22.4423 43.1898 20.8892C42.293 19.3992 40.8342 18.2238 38.5499 18.1695Z" fill="white"/>
<path d="M171.425 19.5827V16.9238H173.576V19.5827H171.425ZM171.425 38.5235V22.8092H173.576V38.5235H171.425Z" fill="white"/>
<path d="M153.701 38.5236V18.0293H168.131V20.0608H156.061V27.1412H167.055V29.1727H156.061V38.5236H153.701Z" fill="white"/>
<path d="M145.866 38.5235V16.9238H148.973V38.5235H145.866Z" fill="white"/>
<path d="M133.414 38.8854C132.916 38.8854 132.379 38.8257 131.801 38.7062C131.224 38.5867 130.676 38.3676 130.158 38.0489C129.66 37.7302 129.252 37.2921 128.933 36.7344C128.614 36.1568 128.455 35.4099 128.455 34.4938C128.455 33.4183 128.704 32.532 129.202 31.8349C129.7 31.1378 130.397 30.5901 131.293 30.1918C132.189 29.7934 133.255 29.5146 134.49 29.3553C135.745 29.1959 137.109 29.1163 138.583 29.1163V27.5627C138.583 27.0449 138.493 26.5868 138.314 26.1885C138.155 25.7902 137.846 25.4814 137.388 25.2624C136.95 25.0433 136.312 24.9337 135.476 24.9337C134.639 24.9337 133.982 25.0433 133.504 25.2624C133.046 25.4615 132.717 25.7204 132.518 26.0391C132.339 26.3379 132.249 26.6665 132.249 27.025V27.4731H129.262C129.242 27.3735 129.232 27.274 129.232 27.1744C129.232 27.0748 129.232 26.9553 129.232 26.8159C129.232 25.8798 129.491 25.0931 130.009 24.4557C130.546 23.7985 131.293 23.3006 132.249 22.962C133.205 22.6234 134.311 22.4541 135.565 22.4541C136.92 22.4541 138.045 22.6533 138.941 23.0516C139.857 23.43 140.545 23.9777 141.003 24.6947C141.461 25.4117 141.69 26.2781 141.69 27.2939V35.2705C141.69 35.6489 141.779 35.9178 141.959 36.0772C142.158 36.2365 142.387 36.3162 142.646 36.3162H143.721V38.4074C143.482 38.507 143.184 38.6066 142.825 38.7062C142.467 38.8057 142.048 38.8555 141.57 38.8555C141.033 38.8555 140.574 38.756 140.196 38.5568C139.838 38.3775 139.539 38.1186 139.3 37.78C139.081 37.4215 138.931 37.0232 138.852 36.585H138.672C138.314 37.0431 137.876 37.4514 137.358 37.8099C136.86 38.1485 136.282 38.4074 135.625 38.5867C134.968 38.7858 134.231 38.8854 133.414 38.8854ZM134.281 36.3162C134.898 36.3162 135.466 36.2265 135.984 36.0473C136.521 35.8481 136.979 35.5792 137.358 35.2406C137.736 34.8821 138.035 34.4639 138.254 33.9859C138.473 33.488 138.583 32.9502 138.583 32.3726V31.327C137.209 31.327 136.004 31.4067 134.968 31.566C133.932 31.7253 133.126 32.0241 132.548 32.4623C131.97 32.8805 131.682 33.4681 131.682 34.2249C131.682 34.683 131.781 35.0714 131.98 35.39C132.18 35.6888 132.478 35.9178 132.877 36.0772C133.275 36.2365 133.743 36.3162 134.281 36.3162Z" fill="white"/>
<path d="M124.252 38.8844C123.356 38.8844 122.649 38.7151 122.131 38.3765C121.633 38.018 121.275 37.5699 121.056 37.0321C120.857 36.4744 120.757 35.8869 120.757 35.2695V25.3808H118.785V22.8116H120.817L121.384 18.4199H123.864V22.8116H126.702V25.3808H123.864V34.911C123.864 35.3691 123.964 35.7176 124.163 35.9566C124.362 36.1956 124.69 36.3151 125.149 36.3151H126.702V38.4064C126.503 38.486 126.254 38.5557 125.955 38.6155C125.676 38.6952 125.388 38.7549 125.089 38.7947C124.79 38.8545 124.511 38.8844 124.252 38.8844Z" fill="white"/>
<path d="M110.01 38.5269V22.8126H112.579L112.848 25.352H113.027C113.206 24.8541 113.435 24.386 113.714 23.9479C114.013 23.5097 114.391 23.1512 114.85 22.8724C115.328 22.5935 115.905 22.4541 116.582 22.4541C116.901 22.4541 117.18 22.484 117.419 22.5437C117.678 22.6035 117.877 22.6533 118.016 22.6931V25.6209H116.971C116.333 25.6209 115.766 25.7204 115.268 25.9196C114.79 26.1188 114.382 26.4175 114.043 26.8159C113.724 27.1943 113.485 27.6623 113.326 28.22C113.186 28.7777 113.117 29.405 113.117 30.1021V38.5269H110.01Z" fill="white"/>
<path d="M99.2844 38.8854C97.6512 38.8854 96.267 38.5966 95.1318 38.019C94.0164 37.4215 93.17 36.5153 92.5924 35.3004C92.0347 34.0855 91.7559 32.5419 91.7559 30.6698C91.7559 28.7777 92.0347 27.2341 92.5924 26.0391C93.17 24.8242 94.0164 23.9279 95.1318 23.3504C96.267 22.7529 97.6512 22.4541 99.2844 22.4541C100.957 22.4541 102.352 22.7529 103.467 23.3504C104.582 23.9279 105.419 24.8242 105.976 26.0391C106.554 27.2341 106.843 28.7777 106.843 30.6698C106.843 32.5419 106.554 34.0855 105.976 35.3004C105.419 36.5153 104.582 37.4215 103.467 38.019C102.352 38.5966 100.957 38.8854 99.2844 38.8854ZM99.2844 36.3162C100.28 36.3162 101.097 36.1269 101.734 35.7485C102.372 35.3502 102.84 34.7527 103.138 33.956C103.457 33.1593 103.616 32.1536 103.616 30.9386V30.4009C103.616 29.186 103.457 28.1802 103.138 27.3835C102.84 26.5868 102.372 25.9993 101.734 25.6209C101.097 25.2225 100.28 25.0234 99.2844 25.0234C98.3085 25.0234 97.5019 25.2225 96.8645 25.6209C96.2272 25.9993 95.7492 26.5868 95.4305 27.3835C95.1318 28.1802 94.9824 29.186 94.9824 30.4009V30.9386C94.9824 32.1536 95.1318 33.1593 95.4305 33.956C95.7492 34.7527 96.2272 35.3502 96.8645 35.7485C97.5019 36.1269 98.3085 36.3162 99.2844 36.3162Z" fill="white"/>
<path d="M73.377 38.5236V18.0293H83.5943C85.0482 18.0293 86.2532 18.2982 87.2092 18.8359C88.1652 19.3737 88.8822 20.1206 89.3602 21.0766C89.8581 22.0126 90.1071 23.128 90.1071 24.4226C90.1071 25.7172 89.8482 26.8624 89.3303 27.8582C88.8125 28.8341 88.0556 29.591 87.0598 30.1287C86.0839 30.6665 84.8889 30.9353 83.4748 30.9353H76.723V38.5236H73.377ZM76.723 28.0673H83.3254C84.381 28.0673 85.2075 27.7487 85.805 27.1113C86.4225 26.474 86.7312 25.5877 86.7312 24.4524C86.7312 23.6956 86.6017 23.0583 86.3428 22.5404C86.0839 22.0027 85.7055 21.5944 85.2075 21.3156C84.7096 21.0367 84.0822 20.8973 83.3254 20.8973H76.723V28.0673Z" fill="white"/>
</svg>
