<svg width="190" height="56" viewBox="0 0 190 56" fill="none" xmlns="http://www.w3.org/2000/svg">
<path d="M80.4651 4C81.2861 4 81.9517 4.66555 81.9517 5.48656V14.4108C81.9517 15.2318 81.2861 15.8974 80.4651 15.8974H47.7389C46.9179 15.8974 46.2523 16.5629 46.2523 17.3839V50.1101C46.2523 50.9312 45.5868 51.5967 44.7658 51.5967H35.8391C35.0181 51.5967 34.3525 50.9312 34.3525 50.1101V5.48656C34.3525 4.66555 35.0181 4 35.8391 4H80.4651ZM70.0519 28.5453C70.3798 28.5453 70.647 28.8125 70.647 29.1404V39.7018H81.3566C81.6845 39.7018 81.9517 39.969 81.9517 40.2969V51.0065C81.9517 51.3344 81.6845 51.6016 81.3566 51.6016H70.647C70.3191 51.6016 70.0519 51.3344 70.0519 51.0065V40.4451H59.3423C59.0144 40.4451 58.7472 40.1779 58.7472 39.8499V29.1404C58.7472 28.8125 59.0144 28.5453 59.3423 28.5453H70.0519Z" fill="white"/>
<path d="M139.864 51.476C138.097 51.476 136.622 51.0685 135.439 50.2533C134.255 49.4188 133.566 48.2058 133.372 46.6144H136.079C136.234 47.4489 136.652 48.1088 137.331 48.594C138.01 49.0792 138.883 49.3218 139.951 49.3218C140.96 49.3218 141.736 49.1083 142.28 48.6813C142.823 48.2543 143.095 47.7109 143.095 47.051C143.095 46.5658 142.92 46.1971 142.571 45.9448C142.241 45.6731 141.62 45.4596 140.708 45.3043C140.339 45.2267 139.941 45.1491 139.514 45.0714C139.107 44.9938 138.718 44.9259 138.35 44.8677C137.69 44.7318 137.03 44.5086 136.37 44.1981C135.73 43.8876 135.196 43.4509 134.769 42.888C134.342 42.3252 134.128 41.5974 134.128 40.7047C134.128 39.4626 134.604 38.4242 135.555 37.5897C136.506 36.7552 137.806 36.3379 139.456 36.3379C141.047 36.3379 142.367 36.7066 143.415 37.4441C144.463 38.1622 145.055 39.2879 145.191 40.8211H142.6C142.522 39.9866 142.183 39.3946 141.581 39.0453C140.999 38.6765 140.281 38.4922 139.427 38.4922C138.592 38.4922 137.903 38.6765 137.36 39.0453C136.836 39.414 136.574 39.8992 136.574 40.5009C136.574 41.5489 137.36 42.2282 138.932 42.5387C139.165 42.5581 139.407 42.5969 139.66 42.6552C139.931 42.694 140.203 42.7425 140.475 42.8007C140.747 42.8395 140.989 42.8783 141.203 42.9172C141.668 42.9948 142.154 43.1112 142.658 43.2665C143.163 43.4024 143.638 43.6158 144.085 43.907C144.531 44.1787 144.89 44.5571 145.162 45.0423C145.453 45.5081 145.599 46.1098 145.599 46.8473C145.599 47.74 145.366 48.5357 144.9 49.2344C144.434 49.9331 143.774 50.4862 142.92 50.8938C142.066 51.282 141.047 51.476 139.864 51.476Z" fill="white"/>
<path d="M124.731 51.4764C123.548 51.4764 122.509 51.2435 121.617 50.7777C120.724 50.2925 120.025 49.6229 119.52 48.769V51.127H116.9V30.1665H119.52V39.0456C119.986 38.3469 120.646 37.7259 121.5 37.1825C122.354 36.6196 123.441 36.3382 124.761 36.3382C126.177 36.3382 127.419 36.6681 128.487 37.328C129.554 37.9879 130.389 38.8903 130.991 40.0354C131.592 41.1805 131.893 42.4808 131.893 43.9364C131.893 45.392 131.592 46.6923 130.991 47.8374C130.389 48.963 129.554 49.8558 128.487 50.5157C127.419 51.1561 126.168 51.4764 124.731 51.4764ZM124.382 49.2056C125.333 49.2056 126.168 48.9825 126.886 48.5361C127.623 48.0897 128.196 47.4686 128.603 46.6729C129.03 45.8772 129.244 44.9553 129.244 43.9073C129.244 42.8593 129.03 41.9374 128.603 41.1417C128.196 40.3459 127.623 39.7249 126.886 39.2785C126.168 38.8321 125.333 38.6089 124.382 38.6089C123.451 38.6089 122.616 38.8321 121.879 39.2785C121.16 39.7249 120.598 40.3459 120.19 41.1417C119.782 41.9374 119.579 42.8593 119.579 43.9073C119.579 44.9553 119.782 45.8772 120.19 46.6729C120.598 47.4686 121.16 48.0897 121.879 48.5361C122.616 48.9825 123.451 49.2056 124.382 49.2056Z" fill="white"/>
<path d="M105.468 51.476C104.304 51.476 103.324 51.282 102.528 50.8938C101.732 50.4862 101.13 49.9525 100.723 49.2927C100.335 48.6134 100.141 47.8953 100.141 47.1384C100.141 45.5663 100.703 44.3728 101.829 43.5576C102.974 42.7231 104.469 42.3058 106.312 42.3058C107.127 42.3058 107.865 42.364 108.525 42.4805C109.185 42.5969 109.728 42.7328 110.155 42.888V42.2476C110.155 41.0055 109.825 40.0739 109.165 39.4529C108.525 38.8124 107.661 38.4922 106.574 38.4922C105.682 38.4922 104.905 38.6765 104.245 39.0453C103.605 39.414 103.207 40.0351 103.052 40.9084H100.432C100.548 39.8798 100.898 39.0259 101.48 38.3466C102.081 37.6673 102.829 37.1627 103.721 36.8328C104.614 36.5029 105.565 36.3379 106.574 36.3379C108.632 36.3379 110.175 36.8813 111.203 37.9682C112.251 39.0356 112.775 40.4621 112.775 42.2476V46.5853C112.775 47.2839 112.814 47.7982 112.892 48.1282C112.989 48.4581 113.144 48.6619 113.357 48.7395C113.571 48.8172 113.862 48.856 114.231 48.856H114.435V51.1267H113.881C112.93 51.1267 112.154 50.9714 111.552 50.6609C110.951 50.3504 110.543 49.7293 110.33 48.7978C109.883 49.5547 109.262 50.1951 108.467 50.7191C107.69 51.2237 106.691 51.476 105.468 51.476ZM105.876 49.3509C106.73 49.3509 107.457 49.1374 108.059 48.7104C108.68 48.2834 109.165 47.7206 109.515 47.0219C109.864 46.3232 110.058 45.5857 110.097 44.8094C109.65 44.6736 109.107 44.5571 108.467 44.4601C107.826 44.3436 107.186 44.2854 106.545 44.2854C105.225 44.2854 104.265 44.5474 103.663 45.0714C103.081 45.576 102.79 46.2165 102.79 46.9928C102.79 47.6721 103.052 48.2349 103.576 48.6813C104.119 49.1277 104.886 49.3509 105.876 49.3509Z" fill="white"/>
<path d="M94.728 51.127V30.1665H97.3481V51.127H94.728Z" fill="white"/>
<path d="M132.69 24.998C131.196 24.998 129.876 24.6875 128.731 24.0664C127.586 23.426 126.693 22.5526 126.053 21.4464C125.413 20.3207 125.092 19.0301 125.092 17.5745C125.092 16.0801 125.403 14.7506 126.024 13.5862C126.664 12.4217 127.557 11.5095 128.702 10.8497C129.847 10.1898 131.177 9.85986 132.69 9.85986C134.127 9.85986 135.398 10.1704 136.504 10.7914C137.61 11.4125 138.474 12.2664 139.095 13.3533C139.716 14.4207 140.027 15.6434 140.027 17.0214C140.027 17.2155 140.027 17.4386 140.027 17.6909C140.027 17.9238 140.007 18.1664 139.968 18.4187H128.003V15.9733H135.893C135.835 15.1194 135.505 14.4401 134.903 13.9355C134.321 13.4115 133.593 13.1495 132.72 13.1495C132.06 13.1495 131.448 13.2951 130.886 13.5862C130.342 13.8773 129.905 14.3237 129.576 14.9253C129.265 15.5076 129.11 16.2548 129.11 17.1669V18.0112C129.11 18.7487 129.255 19.3988 129.546 19.9617C129.857 20.5051 130.274 20.9321 130.798 21.2426C131.342 21.5337 131.963 21.6793 132.661 21.6793C133.341 21.6793 133.913 21.5337 134.379 21.2426C134.845 20.9321 135.204 20.5342 135.456 20.049H139.619C139.347 20.9806 138.882 21.8248 138.222 22.5817C137.581 23.3192 136.786 23.9112 135.835 24.3576C134.903 24.7845 133.855 24.998 132.69 24.998Z" fill="white"/>
<path d="M117.429 24.998C115.488 24.998 113.897 24.5419 112.655 23.6298C111.413 22.7176 110.714 21.524 110.559 20.049H114.722C114.857 20.6118 115.187 21.0679 115.711 21.4173C116.235 21.7472 116.856 21.9122 117.575 21.9122C118.37 21.9122 118.972 21.7763 119.379 21.5046C119.806 21.2135 120.02 20.8641 120.02 20.4566C120.02 20.1266 119.865 19.8646 119.554 19.6705C119.244 19.4571 118.71 19.3115 117.953 19.2339C117.681 19.1951 117.303 19.1368 116.818 19.0592C116.352 18.9816 115.973 18.9136 115.682 18.8554C114.867 18.7002 114.12 18.4479 113.441 18.0985C112.781 17.7298 112.257 17.2543 111.869 16.672C111.48 16.0704 111.286 15.3426 111.286 14.4886C111.286 13.1883 111.772 12.0918 112.742 11.199C113.712 10.3062 115.139 9.85986 117.021 9.85986C118.923 9.85986 120.418 10.2771 121.505 11.1117C122.611 11.9462 123.232 13.101 123.368 14.576H119.438C119.379 14.052 119.117 13.6541 118.652 13.3824C118.186 13.1107 117.652 12.9748 117.051 12.9748C116.313 12.9748 115.76 13.101 115.391 13.3533C115.022 13.6056 114.838 13.9161 114.838 14.2849C114.838 14.8865 115.44 15.2941 116.643 15.5076C116.818 15.527 117.06 15.5658 117.371 15.624C117.701 15.6628 118.031 15.7113 118.361 15.7696C118.71 15.8084 118.982 15.8472 119.176 15.886C119.758 15.9636 120.321 16.0995 120.864 16.2936C121.427 16.4682 121.922 16.7108 122.349 17.0214C122.795 17.3319 123.145 17.7395 123.397 18.2441C123.649 18.7487 123.775 19.3697 123.775 20.1072C123.775 21.0776 123.533 21.9316 123.048 22.6691C122.562 23.4066 121.844 23.9791 120.893 24.3867C119.962 24.7942 118.807 24.998 117.429 24.998Z" fill="white"/>
<path d="M105.088 24.6488V10.2094H109.164V24.6488H105.088ZM105.263 7.90954V4.125H109.048V7.90954H105.263Z" fill="white"/>
<path d="M94.001 24.6485V10.209H98.0766V12.3924C98.4648 11.6743 98.95 11.1115 99.5322 10.7039C100.114 10.277 100.774 10.0635 101.512 10.0635H103.288V13.6733H101.104C100.386 13.6733 99.8039 13.8577 99.3576 14.2265C98.9112 14.5952 98.5812 15.1483 98.3678 15.8858C98.1737 16.6039 98.0766 17.487 98.0766 18.535V24.6485H94.001Z" fill="white"/>
</svg>
