<svg width="190" height="56" viewBox="0 0 190 56" fill="none" xmlns="http://www.w3.org/2000/svg">
<path opacity="0.7" d="M20.8922 52.2748C17.0792 52.2748 13.9995 49.1951 13.9995 45.3821V32.1832C13.9995 28.3703 17.0792 25.2905 20.8922 25.2905C24.7052 25.2905 27.7849 28.3703 27.7849 32.1832V45.3821C27.7849 49.1951 24.7052 52.2748 20.8922 52.2748Z" fill="white"/>
<path opacity="0.7" d="M26.7584 40.2489C22.9454 40.2489 19.8657 37.1692 19.8657 33.3562V20.1574C19.8657 16.3444 22.9454 13.2646 26.7584 13.2646C30.5714 13.2646 33.6512 16.3444 33.6512 20.1574V33.3562C33.6512 37.1692 30.5714 40.2489 26.7584 40.2489Z" fill="white"/>
<path opacity="0.7" d="M32.9181 29.9843C29.1051 29.9843 26.0254 26.9045 26.0254 23.0915V9.89272C26.0254 6.07973 29.1051 3 32.9181 3C36.7311 3 39.8108 6.07973 39.8108 9.89272V23.0915C39.8108 26.9045 36.7311 29.9843 32.9181 29.9843Z" fill="white"/>
<path d="M54.0262 38.3535C52.7357 38.3535 51.5742 38.1323 50.5417 37.6898C49.5093 37.2289 48.6981 36.5836 48.1081 35.754C47.5181 34.9243 47.2231 33.9564 47.2231 32.8502H50.597C50.6708 33.6799 50.9934 34.362 51.565 34.8967C52.1549 35.4313 52.9753 35.6987 54.0262 35.6987C55.114 35.6987 55.9621 35.4405 56.5705 34.9243C57.1789 34.3897 57.4831 33.7075 57.4831 32.8779C57.4831 32.2326 57.2895 31.7071 56.9023 31.3015C56.5336 30.8959 56.0635 30.5825 55.4919 30.3613C54.9388 30.14 54.1645 29.9004 53.1689 29.6423C51.9152 29.3104 50.892 28.9785 50.0992 28.6467C49.3249 28.2964 48.6612 27.7617 48.1081 27.0427C47.555 26.3237 47.2785 25.365 47.2785 24.1666C47.2785 23.0604 47.555 22.0925 48.1081 21.2628C48.6612 20.4332 49.4355 19.7971 50.4311 19.3547C51.4267 18.9122 52.579 18.6909 53.888 18.6909C55.75 18.6909 57.2711 19.1611 58.451 20.1013C59.6494 21.0232 60.3131 22.2953 60.4421 23.9177H56.9576C56.9023 23.2171 56.5705 22.6179 55.9621 22.1201C55.3537 21.6224 54.5517 21.3735 53.5561 21.3735C52.6527 21.3735 51.9152 21.6039 51.3437 22.0648C50.7722 22.5257 50.4864 23.1895 50.4864 24.056C50.4864 24.6459 50.6616 25.1345 51.0119 25.5217C51.3806 25.8904 51.8415 26.1854 52.3946 26.4066C52.9477 26.6279 53.7036 26.8675 54.6623 27.1257C55.9344 27.476 56.9669 27.8263 57.7596 28.1765C58.5708 28.5268 59.253 29.0707 59.8061 29.8082C60.3776 30.5272 60.6634 31.4951 60.6634 32.7119C60.6634 33.6891 60.3961 34.6109 59.8614 35.4774C59.3452 36.3439 58.5801 37.0445 57.566 37.5792C56.5705 38.0954 55.3905 38.3535 54.0262 38.3535Z" fill="white"/>
<path d="M70.9929 38.4088C69.5548 38.4088 68.2551 38.0862 67.0936 37.4409C65.9321 36.7772 65.0195 35.8554 64.3557 34.6754C63.692 33.4771 63.3602 32.0943 63.3602 30.5272C63.3602 28.9785 63.7012 27.605 64.3834 26.4066C65.0655 25.2083 65.9966 24.2864 67.1765 23.6412C68.3565 22.9959 69.6747 22.6732 71.1312 22.6732C72.5877 22.6732 73.9059 22.9959 75.0858 23.6412C76.2657 24.2864 77.1968 25.2083 77.8789 26.4066C78.5611 27.605 78.9022 28.9785 78.9022 30.5272C78.9022 32.0759 78.5519 33.4494 77.8513 34.6478C77.1507 35.8461 76.192 36.7772 74.9752 37.4409C73.7768 38.0862 72.4494 38.4088 70.9929 38.4088ZM70.9929 35.671C71.8041 35.671 72.56 35.4774 73.2606 35.0903C73.9796 34.7031 74.5604 34.1223 75.0028 33.348C75.4453 32.5737 75.6666 31.6334 75.6666 30.5272C75.6666 29.421 75.4545 28.49 75.0305 27.7341C74.6065 26.9597 74.0441 26.379 73.3436 25.9918C72.643 25.6046 71.8871 25.4111 71.0759 25.4111C70.2647 25.4111 69.5088 25.6046 68.8082 25.9918C68.126 26.379 67.5821 26.9597 67.1765 27.7341C66.7709 28.49 66.5681 29.421 66.5681 30.5272C66.5681 32.1681 66.9829 33.4402 67.8126 34.3436C68.6607 35.2285 69.7208 35.671 70.9929 35.671Z" fill="white"/>
<path d="M84.8119 35.588H91.7256V38.1599H81.1614V35.588L88.1028 25.494H81.1614V22.9221H91.7256V25.494L84.8119 35.588Z" fill="white"/>
<path d="M96.6399 20.9033C96.0684 20.9033 95.5891 20.7097 95.2019 20.3226C94.8147 19.9354 94.6211 19.4561 94.6211 18.8845C94.6211 18.313 94.8147 17.8336 95.2019 17.4465C95.5891 17.0593 96.0684 16.8657 96.6399 16.8657C97.193 16.8657 97.6632 17.0593 98.0503 17.4465C98.4375 17.8336 98.6311 18.313 98.6311 18.8845C98.6311 19.4561 98.4375 19.9354 98.0503 20.3226C97.6632 20.7097 97.193 20.9033 96.6399 20.9033ZM98.1886 22.9221V38.1599H95.036V22.9221H98.1886Z" fill="white"/>
<path d="M101.277 30.4719C101.277 28.9417 101.59 27.5866 102.217 26.4066C102.862 25.2267 103.729 24.3141 104.817 23.6688C105.923 23.0051 107.14 22.6732 108.467 22.6732C109.666 22.6732 110.707 22.9129 111.592 23.3923C112.496 23.8532 113.215 24.4339 113.749 25.1345V22.9221H116.93V38.1599H113.749V35.8922C113.215 36.6113 112.486 37.2105 111.564 37.6898C110.643 38.1692 109.592 38.4088 108.412 38.4088C107.103 38.4088 105.904 38.077 104.817 37.4133C103.729 36.7311 102.862 35.7908 102.217 34.5925C101.59 33.3757 101.277 32.0021 101.277 30.4719ZM113.749 30.5272C113.749 29.4763 113.528 28.5637 113.085 27.7894C112.661 27.015 112.099 26.4251 111.399 26.0195C110.698 25.6139 109.942 25.4111 109.131 25.4111C108.32 25.4111 107.564 25.6139 106.863 26.0195C106.163 26.4066 105.591 26.9874 105.149 27.7617C104.725 28.5176 104.512 29.421 104.512 30.4719C104.512 31.5228 104.725 32.4446 105.149 33.2374C105.591 34.0301 106.163 34.6386 106.863 35.0626C107.582 35.4682 108.338 35.671 109.131 35.671C109.942 35.671 110.698 35.4682 111.399 35.0626C112.099 34.657 112.661 34.067 113.085 33.2927C113.528 32.4999 113.749 31.5781 113.749 30.5272Z" fill="white"/>
<path d="M124.223 17.6954V38.1599H121.07V17.6954H124.223Z" fill="white"/>
<path d="M142.328 30.1677C142.328 30.7392 142.291 31.2554 142.217 31.7164H130.575C130.667 32.9332 131.118 33.9103 131.93 34.6478C132.741 35.3852 133.736 35.754 134.916 35.754C136.613 35.754 137.811 35.0442 138.511 33.6245H141.913C141.452 35.0257 140.613 36.178 139.396 37.0814C138.198 37.9664 136.705 38.4088 134.916 38.4088C133.46 38.4088 132.151 38.0862 130.989 37.4409C129.846 36.7772 128.943 35.8554 128.279 34.6754C127.634 33.4771 127.311 32.0943 127.311 30.5272C127.311 28.9601 127.625 27.5866 128.252 26.4066C128.897 25.2083 129.791 24.2864 130.934 23.6412C132.096 22.9959 133.423 22.6732 134.916 22.6732C136.354 22.6732 137.636 22.9867 138.76 23.6135C139.885 24.2403 140.761 25.1253 141.388 26.2684C142.014 27.393 142.328 28.6928 142.328 30.1677ZM139.037 29.1721C139.018 28.0106 138.604 27.0796 137.792 26.379C136.981 25.6784 135.976 25.3281 134.778 25.3281C133.69 25.3281 132.759 25.6784 131.985 26.379C131.211 27.0611 130.75 27.9922 130.602 29.1721H139.037Z" fill="white"/>
<path d="M153.118 22.6732C154.317 22.6732 155.386 22.9221 156.326 23.4199C157.285 23.9177 158.032 24.6552 158.566 25.6323C159.101 26.6094 159.368 27.7894 159.368 29.1721V38.1599H156.243V29.6423C156.243 28.2779 155.902 27.2363 155.22 26.5173C154.538 25.7798 153.607 25.4111 152.427 25.4111C151.247 25.4111 150.307 25.7798 149.606 26.5173C148.924 27.2363 148.583 28.2779 148.583 29.6423V38.1599H145.43V22.9221H148.583V24.6644C149.099 24.0375 149.754 23.549 150.547 23.1987C151.358 22.8484 152.215 22.6732 153.118 22.6732Z" fill="white"/>
<path d="M168.921 38.4088C167.722 38.4088 166.644 38.1968 165.685 37.7728C164.745 37.3303 163.998 36.7403 163.445 36.0029C162.892 35.247 162.597 34.4081 162.56 33.4863H165.823C165.879 34.1316 166.183 34.6754 166.736 35.1179C167.308 35.5419 168.017 35.754 168.865 35.754C169.75 35.754 170.433 35.588 170.912 35.2562C171.41 34.9059 171.659 34.4634 171.659 33.9287C171.659 33.3572 171.382 32.9332 170.829 32.6566C170.294 32.3801 169.437 32.0759 168.257 31.744C167.114 31.4306 166.183 31.1264 165.464 30.8314C164.745 30.5364 164.118 30.0847 163.583 29.4763C163.067 28.8679 162.809 28.0659 162.809 27.0704C162.809 26.2591 163.049 25.5217 163.528 24.858C164.007 24.1758 164.69 23.6412 165.575 23.254C166.478 22.8668 167.51 22.6732 168.672 22.6732C170.405 22.6732 171.797 23.1157 172.848 24.0007C173.917 24.8672 174.489 26.0563 174.562 27.5681H171.41C171.354 26.886 171.078 26.3421 170.58 25.9365C170.082 25.5309 169.409 25.3281 168.561 25.3281C167.732 25.3281 167.096 25.4848 166.653 25.7982C166.211 26.1117 165.989 26.5265 165.989 27.0427C165.989 27.4483 166.137 27.7894 166.432 28.0659C166.727 28.3425 167.086 28.5637 167.51 28.7296C167.934 28.8771 168.561 29.0707 169.391 29.3104C170.497 29.6054 171.4 29.9096 172.101 30.223C172.82 30.518 173.438 30.9605 173.954 31.5504C174.47 32.1404 174.738 32.924 174.756 33.9011C174.756 34.7676 174.516 35.5419 174.037 36.2241C173.558 36.9062 172.875 37.4409 171.99 37.8281C171.124 38.2152 170.101 38.4088 168.921 38.4088Z" fill="white"/>
</svg>
