<svg width="2196" height="2094" viewBox="0 0 2196 2094" fill="none" xmlns="http://www.w3.org/2000/svg">
<g opacity="0.05" filter="url(#filter0_f_1052_2090)">
<g filter="url(#filter1_f_1052_2090)">
<path d="M1613.86 336.793C1464.93 261.689 1287.7 223.522 1089.55 223.522C891.391 223.522 714.159 261.689 565.235 336.793C418.772 410.666 303.079 515.319 221.847 645.827C140.616 777.566 100 932.698 100 1108.76C100 1284.82 140.616 1441.19 221.847 1571.7C303.079 1703.43 418.772 1806.86 565.235 1880.73C714.159 1955.83 890.16 1994 1089.55 1994C1288.93 1994 1464.93 1955.83 1613.86 1880.73C1760.32 1806.86 1876.01 1702.2 1957.25 1571.7C2038.48 1439.96 2079.09 1284.82 2079.09 1107.53C2079.09 930.236 2038.48 775.103 1957.25 643.364C1876.01 511.625 1760.32 408.203 1613.86 334.331V336.793ZM1915.4 1287.29C1898.17 1373.47 1868.63 1452.27 1826.78 1522.45C1756.63 1640.64 1655.71 1732.98 1528.93 1795.78C1404.63 1857.34 1256.93 1889.35 1089.55 1889.35C922.161 1889.35 776.929 1857.34 651.389 1795.78C523.388 1731.75 422.464 1639.41 352.31 1521.22C310.463 1449.81 279.694 1371.01 262.463 1284.82C252.617 1233.11 285.848 1182.63 337.54 1172.78C343.694 1171.55 349.848 1170.32 357.233 1170.32C401.541 1170.32 440.926 1202.33 450.772 1246.66C464.311 1308.22 486.465 1366.08 518.465 1416.56C572.619 1503.98 648.928 1572.93 746.159 1622.18C844.622 1671.42 960.315 1697.28 1089.55 1697.28C1218.78 1697.28 1334.47 1672.65 1432.93 1622.18C1530.17 1572.93 1606.47 1503.98 1660.63 1416.56C1692.63 1366.08 1714.78 1308.22 1728.32 1246.66C1738.17 1202.33 1777.55 1171.55 1821.86 1171.55C1866.17 1171.55 1835.4 1171.55 1841.55 1174.02C1893.25 1185.1 1926.48 1235.58 1916.63 1286.06L1915.4 1287.29ZM599.696 1109.99C599.696 1017.65 619.389 940.085 660.005 871.138C700.62 802.19 757.236 750.479 832.314 713.543C904.93 677.838 991.084 659.37 1089.55 659.37C1188.01 659.37 1275.39 677.838 1346.78 713.543C1420.63 750.479 1477.24 802.19 1517.86 871.138C1558.47 938.854 1578.17 1018.88 1578.17 1109.99C1578.17 1201.1 1557.24 1281.13 1517.86 1348.85C1477.24 1417.79 1420.63 1469.51 1346.78 1506.44C1274.16 1542.15 1188.01 1560.61 1089.55 1560.61C991.084 1560.61 906.16 1543.38 832.314 1506.44C757.236 1469.51 701.851 1417.79 660.005 1348.85C619.389 1279.9 599.696 1202.33 599.696 1109.99ZM1841.55 1045.97C1835.4 1047.2 1829.24 1048.43 1821.86 1048.43C1777.55 1048.43 1738.17 1016.42 1728.32 972.097C1714.78 910.537 1692.63 852.67 1660.63 802.19C1606.47 714.774 1530.17 645.827 1432.93 596.578C1336.93 548.561 1224.93 522.706 1098.16 521.475C1095.7 521.475 1092.01 521.475 1089.55 521.475C1087.08 521.475 1083.39 521.475 1080.93 521.475C955.392 521.475 842.16 547.33 747.39 596.578C650.158 645.827 573.85 714.774 519.696 802.19C487.696 853.901 465.542 910.537 452.003 972.097C442.157 1016.42 402.772 1048.43 358.464 1048.43C314.156 1048.43 346.156 1048.43 338.771 1045.97C287.078 1034.89 253.847 985.64 263.694 933.93C280.925 847.745 310.463 767.716 353.541 697.537C423.695 579.341 524.619 487.001 652.62 422.978C774.467 362.649 918.468 330.637 1079.7 329.406C1083.39 329.406 1087.09 329.406 1090.78 329.406C1094.47 329.406 1096.93 329.406 1100.62 329.406C1264.32 330.637 1409.55 362.649 1530.17 422.978C1656.94 487.001 1757.86 578.11 1828.01 696.306C1869.86 767.716 1900.63 846.514 1917.86 932.698C1927.71 984.409 1894.48 1034.89 1842.78 1044.74L1841.55 1045.97Z" fill="#6B8CCA"/>
</g>
<g filter="url(#filter2_f_1052_2090)">
<path d="M1630.33 213.271C1481.4 138.168 1304.17 100 1106.02 100C907.86 100 730.628 138.168 581.703 213.271C435.241 287.144 319.547 391.797 238.316 522.305C157.084 654.044 116.469 809.177 116.469 985.24C116.469 1161.3 157.084 1317.67 238.316 1448.17C319.547 1579.91 435.241 1683.34 581.703 1757.21C730.628 1832.31 906.629 1870.48 1106.02 1870.48C1305.4 1870.48 1481.4 1832.31 1630.33 1757.21C1776.79 1683.34 1892.48 1578.68 1973.71 1448.17C2054.95 1316.43 2095.56 1161.3 2095.56 984.008C2095.56 806.714 2054.95 651.582 1973.71 519.842C1892.48 388.103 1776.79 284.681 1630.33 210.809V213.271ZM1931.87 1163.76C1914.64 1249.95 1885.1 1328.75 1843.25 1398.93C1773.1 1517.12 1672.17 1609.46 1545.4 1672.25C1421.09 1733.81 1273.4 1765.83 1106.02 1765.83C938.629 1765.83 793.397 1733.81 667.858 1672.25C539.857 1608.23 438.933 1515.89 368.779 1397.69C326.932 1326.28 296.162 1247.49 278.932 1161.3C269.085 1109.59 302.316 1059.11 354.009 1049.26C360.163 1048.03 366.317 1046.8 373.702 1046.8C418.01 1046.8 457.395 1078.81 467.241 1123.13C480.779 1184.7 502.933 1242.56 534.934 1293.04C589.088 1380.46 665.396 1449.41 762.628 1498.65C861.09 1547.9 976.783 1573.76 1106.02 1573.76C1235.25 1573.76 1350.94 1549.13 1449.4 1498.65C1546.63 1449.41 1622.94 1380.46 1677.1 1293.04C1709.1 1242.56 1731.25 1184.7 1744.79 1123.13C1754.64 1078.81 1794.02 1048.03 1838.33 1048.03C1882.64 1048.03 1851.87 1048.03 1858.02 1050.49C1909.71 1061.57 1942.95 1112.05 1933.1 1162.53L1931.87 1163.76ZM616.165 986.47C616.165 894.13 635.858 816.564 676.473 747.616C717.089 678.668 773.705 626.958 848.782 590.021C921.398 554.316 1007.55 535.848 1106.02 535.848C1204.48 535.848 1291.86 554.316 1363.25 590.021C1437.1 626.958 1493.71 678.668 1534.33 747.616C1574.94 815.332 1594.63 895.361 1594.63 986.47C1594.63 1077.58 1573.71 1157.61 1534.33 1225.33C1493.71 1294.27 1437.1 1345.98 1363.25 1382.92C1290.63 1418.62 1204.48 1437.09 1106.02 1437.09C1007.55 1437.09 922.629 1419.86 848.782 1382.92C773.705 1345.98 718.32 1294.27 676.473 1225.33C635.858 1156.38 616.165 1078.81 616.165 986.47ZM1858.02 922.448C1851.87 923.679 1845.71 924.91 1838.33 924.91C1794.02 924.91 1754.64 892.899 1744.79 848.575C1731.25 787.015 1709.1 729.148 1677.1 678.668C1622.94 591.252 1546.63 522.305 1449.4 473.057C1353.4 425.039 1241.4 399.184 1114.63 397.953C1112.17 397.953 1108.48 397.953 1106.02 397.953C1103.55 397.953 1099.86 397.953 1097.4 397.953C971.86 397.953 858.629 423.808 763.859 473.057C666.627 522.305 590.319 591.252 536.165 678.668C504.164 730.379 482.01 787.015 468.472 848.575C458.625 892.899 419.24 924.91 374.932 924.91C330.624 924.91 362.625 924.91 355.24 922.448C303.547 911.367 270.316 862.119 280.162 810.408C297.393 724.223 326.932 644.194 370.009 574.015C440.164 455.819 541.088 363.479 669.089 299.456C790.936 239.127 934.937 207.115 1096.17 205.884C1099.86 205.884 1103.55 205.884 1107.25 205.884C1110.94 205.884 1113.4 205.884 1117.09 205.884C1280.79 207.115 1426.02 239.127 1546.63 299.456C1673.4 363.479 1774.33 454.588 1844.48 572.785C1886.33 644.195 1917.1 722.992 1934.33 809.176C1944.18 860.887 1910.95 911.367 1859.25 921.217L1858.02 922.448Z" fill="#44B6D8"/>
</g>
<g filter="url(#filter3_f_1052_2090)">
<path d="M1613.86 259.935C1464.93 184.831 1287.7 146.664 1089.55 146.664C891.391 146.664 714.159 184.831 565.235 259.935C418.772 333.808 303.079 438.46 221.847 568.969C140.616 700.708 100 855.84 100 1031.9C100 1207.97 140.616 1364.33 221.847 1494.84C303.079 1626.58 418.772 1730 565.235 1803.87C714.159 1878.98 890.16 1917.14 1089.55 1917.14C1288.93 1917.14 1464.93 1878.98 1613.86 1803.87C1760.32 1730 1876.01 1625.35 1957.25 1494.84C2038.48 1363.1 2079.09 1207.97 2079.09 1030.67C2079.09 853.378 2038.48 698.245 1957.25 566.506C1876.01 434.767 1760.32 331.345 1613.86 257.473V259.935ZM1915.4 1210.43C1898.17 1296.61 1868.63 1375.41 1826.78 1445.59C1756.63 1563.79 1655.71 1656.13 1528.93 1718.92C1404.63 1780.48 1256.93 1812.49 1089.55 1812.49C922.161 1812.49 776.929 1780.48 651.389 1718.92C523.388 1654.89 422.464 1562.55 352.31 1444.36C310.463 1372.95 279.694 1294.15 262.463 1207.97C252.617 1156.26 285.848 1105.78 337.54 1095.93C343.694 1094.69 349.848 1093.46 357.233 1093.46C401.541 1093.46 440.926 1125.47 450.772 1169.8C464.311 1231.36 486.465 1289.23 518.465 1339.71C572.619 1427.12 648.928 1496.07 746.159 1545.32C844.622 1594.57 960.315 1620.42 1089.55 1620.42C1218.78 1620.42 1334.47 1595.8 1432.93 1545.32C1530.17 1496.07 1606.47 1427.12 1660.63 1339.71C1692.63 1289.23 1714.78 1231.36 1728.32 1169.8C1738.17 1125.47 1777.55 1094.69 1821.86 1094.69C1866.17 1094.69 1835.4 1094.69 1841.55 1097.16C1893.25 1108.24 1926.48 1158.72 1916.63 1209.2L1915.4 1210.43ZM599.696 1033.13C599.696 940.793 619.389 863.227 660.005 794.28C700.62 725.332 757.236 673.621 832.314 636.685C904.93 600.98 991.084 582.512 1089.55 582.512C1188.01 582.512 1275.39 600.98 1346.78 636.685C1420.63 673.621 1477.24 725.332 1517.86 794.28C1558.47 861.996 1578.17 942.025 1578.17 1033.13C1578.17 1124.24 1557.24 1204.27 1517.86 1271.99C1477.24 1340.94 1420.63 1392.65 1346.78 1429.58C1274.16 1465.29 1188.01 1483.76 1089.55 1483.76C991.084 1483.76 906.16 1466.52 832.314 1429.58C757.236 1392.65 701.851 1340.94 660.005 1271.99C619.389 1203.04 599.696 1125.47 599.696 1033.13ZM1841.55 969.112C1835.4 970.343 1829.24 971.574 1821.86 971.574C1777.55 971.574 1738.17 939.563 1728.32 895.239C1714.78 833.679 1692.63 775.811 1660.63 725.332C1606.47 637.916 1530.17 568.969 1432.93 519.72C1336.93 471.703 1224.93 445.848 1098.16 444.616C1095.7 444.616 1092.01 444.616 1089.55 444.616C1087.08 444.616 1083.39 444.616 1080.93 444.616C955.392 444.616 842.16 470.472 747.39 519.72C650.158 568.969 573.85 637.916 519.696 725.332C487.696 777.043 465.542 833.679 452.003 895.239C442.157 939.563 402.772 971.574 358.464 971.574C314.156 971.574 346.156 971.574 338.771 969.112C287.078 958.031 253.847 908.782 263.694 857.071C280.925 770.887 310.463 690.858 353.541 620.679C423.695 502.483 524.619 410.143 652.62 346.12C774.467 285.79 918.468 253.779 1079.7 252.548C1083.39 252.548 1087.09 252.548 1090.78 252.548C1094.47 252.548 1096.93 252.548 1100.62 252.548C1264.32 253.779 1409.55 285.79 1530.17 346.12C1656.94 410.143 1757.86 501.252 1828.01 619.448C1869.86 690.858 1900.63 769.656 1917.86 855.84C1927.71 907.551 1894.48 958.031 1842.78 967.88L1841.55 969.112Z" fill="white"/>
</g>
</g>
<defs>
<filter id="filter0_f_1052_2090" x="0" y="0" width="2195.56" height="2094" filterUnits="userSpaceOnUse" color-interpolation-filters="sRGB">
<feFlood flood-opacity="0" result="BackgroundImageFix"/>
<feBlend mode="normal" in="SourceGraphic" in2="BackgroundImageFix" result="shape"/>
<feGaussianBlur stdDeviation="50" result="effect1_foregroundBlur_1052_2090"/>
</filter>
<filter id="filter1_f_1052_2090" x="44.1" y="167.622" width="2090.89" height="1882.28" filterUnits="userSpaceOnUse" color-interpolation-filters="sRGB">
<feFlood flood-opacity="0" result="BackgroundImageFix"/>
<feBlend mode="normal" in="SourceGraphic" in2="BackgroundImageFix" result="shape"/>
<feGaussianBlur stdDeviation="27.95" result="effect1_foregroundBlur_1052_2090"/>
</filter>
<filter id="filter2_f_1052_2090" x="103.569" y="87.1" width="2004.89" height="1796.28" filterUnits="userSpaceOnUse" color-interpolation-filters="sRGB">
<feFlood flood-opacity="0" result="BackgroundImageFix"/>
<feBlend mode="normal" in="SourceGraphic" in2="BackgroundImageFix" result="shape"/>
<feGaussianBlur stdDeviation="6.45" result="effect1_foregroundBlur_1052_2090"/>
</filter>
<filter id="filter3_f_1052_2090" x="90.4" y="137.064" width="1998.29" height="1789.68" filterUnits="userSpaceOnUse" color-interpolation-filters="sRGB">
<feFlood flood-opacity="0" result="BackgroundImageFix"/>
<feBlend mode="normal" in="SourceGraphic" in2="BackgroundImageFix" result="shape"/>
<feGaussianBlur stdDeviation="4.8" result="effect1_foregroundBlur_1052_2090"/>
</filter>
</defs>
</svg>
