<svg width="235" height="211" viewBox="0 0 235 211" fill="none" xmlns="http://www.w3.org/2000/svg">
<g opacity="0.4" style="mix-blend-mode:overlay">
<path d="M105.497 0C47.3254 0 0 47.3254 0 105.503C0 163.68 47.3254 211 105.497 211C163.669 211 211 163.675 211 105.503C211 47.3311 163.675 0 105.497 0ZM155.647 79.7563C160.458 80.9064 164.973 82.233 169.14 83.7304C186.375 89.9194 190.15 96.2564 190.15 98.1809C190.15 100.105 186.375 106.437 169.14 112.626C166.806 113.463 164.358 114.254 161.807 114.983C161.898 113.65 161.944 112.307 161.944 110.952C161.944 101.381 159.706 90.392 155.647 79.7563ZM105.497 20.497C138.236 20.497 166.715 39.1038 180.909 66.3022C179.355 65.6589 177.744 65.0383 176.07 64.4404C166.459 60.9901 155.299 58.3255 143.189 56.5377C139.101 50.9522 134.444 46.0386 129.325 42.2011C122.197 36.8719 114.169 33.6379 105.503 33.6379C96.8372 33.6379 88.8091 36.8719 81.6807 42.2011C76.5565 46.0386 71.9048 50.9522 67.8168 56.5377C55.7064 58.3255 44.5469 60.9901 34.9361 64.4404C33.2451 65.0497 31.6281 65.6703 30.0908 66.3022C44.2793 39.1038 72.7588 20.497 105.497 20.497ZM141.447 110.952C141.447 113.89 141.134 116.753 140.547 119.503C129.638 121.143 117.778 121.997 105.503 121.997C93.2274 121.997 81.3619 121.143 70.4529 119.503C69.8665 116.753 69.5533 113.89 69.5533 110.952C69.5533 100.362 73.5275 86.8392 79.8246 75.6626C80.3712 74.6776 80.9463 73.7153 81.5327 72.7702C88.9173 60.9275 97.6513 54.135 105.503 54.135C113.354 54.135 122.088 60.9275 129.473 72.7702C130.059 73.7153 130.635 74.6776 131.181 75.6626C137.478 86.8392 141.447 100.362 141.447 110.952ZM49.1929 114.983C46.6422 114.254 44.1939 113.463 41.8595 112.626C24.6249 106.437 20.8501 100.1 20.8501 98.1809C20.8501 96.2621 24.6249 89.9194 41.8595 83.7304C46.0273 82.233 50.5423 80.9064 55.3534 79.7563C51.2939 90.392 49.0563 101.381 49.0563 110.952C49.0563 112.307 49.1018 113.65 49.1929 114.983ZM105.497 190.503C83.8102 190.503 63.9963 182.338 48.9595 168.918C66.4332 173.519 85.6549 175.944 105.503 175.944C125.351 175.944 144.567 173.519 162.041 168.918C147.004 182.338 127.184 190.503 105.497 190.503ZM183.437 139.425C172.488 144.743 159.934 148.82 146.366 151.53C133.493 154.104 119.703 155.447 105.503 155.447C91.3029 155.447 77.5073 154.104 64.634 151.53C51.0661 148.82 38.5117 144.743 27.5628 139.425C25.8035 135.406 24.3516 131.221 23.23 126.911C26.7486 128.71 30.6545 130.378 34.9361 131.916C41.0909 134.125 47.8777 136.015 55.1484 137.552C64.1102 139.46 73.8008 140.837 83.924 141.646C90.9386 142.204 98.1695 142.494 105.503 142.494C112.836 142.494 120.061 142.204 127.076 141.646C137.199 140.837 146.89 139.46 155.852 137.552C163.122 136.015 169.909 134.125 176.07 131.916C180.488 130.333 184.365 128.659 187.764 126.934C186.643 131.238 185.191 135.411 183.437 139.425Z" fill="white"/>
</g>
<path d="M108.904 54C94.6205 54 83.0001 65.6204 83.0001 79.9055C83.0001 94.1905 94.6205 105.81 108.904 105.81C123.188 105.81 134.81 94.1891 134.81 79.9055C134.81 65.6218 123.189 54 108.904 54ZM121.218 73.5836C122.399 73.866 123.508 74.1917 124.531 74.5594C128.763 76.0791 129.69 77.6351 129.69 78.1076C129.69 78.5801 128.763 80.1347 124.531 81.6544C123.958 81.8599 123.357 82.0542 122.731 82.2332C122.753 81.906 122.764 81.5761 122.764 81.2434C122.764 78.8933 122.215 76.1951 121.218 73.5836ZM108.904 59.0329C116.943 59.0329 123.936 63.6017 127.421 70.28C127.039 70.1221 126.644 69.9697 126.233 69.8229C123.873 68.9757 121.133 68.3214 118.159 67.8824C117.155 66.511 116.012 65.3045 114.755 64.3622C113.005 63.0536 111.033 62.2595 108.906 62.2595C106.778 62.2595 104.807 63.0536 103.056 64.3622C101.798 65.3045 100.656 66.511 99.6521 67.8824C96.6784 68.3214 93.9383 68.9757 91.5784 69.8229C91.1632 69.9725 90.7662 70.1249 90.3887 70.28C93.8726 63.6017 100.866 59.0329 108.904 59.0329ZM117.731 81.2434C117.731 81.9648 117.654 82.668 117.51 83.3432C114.832 83.7458 111.92 83.9555 108.906 83.9555C105.891 83.9555 102.978 83.7458 100.299 83.3432C100.155 82.668 100.078 81.9648 100.078 81.2434C100.078 78.643 101.054 75.3227 102.6 72.5784C102.735 72.3365 102.876 72.1003 103.02 71.8682C104.833 68.9603 106.978 67.2924 108.906 67.2924C110.833 67.2924 112.978 68.9603 114.791 71.8682C114.935 72.1003 115.077 72.3365 115.211 72.5784C116.757 75.3227 117.731 78.643 117.731 81.2434ZM95.0791 82.2332C94.4528 82.0542 93.8516 81.8599 93.2784 81.6544C89.0466 80.1347 88.1197 78.5787 88.1197 78.1076C88.1197 77.6365 89.0466 76.0791 93.2784 74.5594C94.3018 74.1917 95.4104 73.866 96.5918 73.5836C95.595 76.1951 95.0455 78.8933 95.0455 81.2434C95.0455 81.5761 95.0567 81.906 95.0791 82.2332ZM108.904 100.777C103.579 100.777 98.714 98.7718 95.0218 95.4767C99.3123 96.6063 104.032 97.2019 108.906 97.2019C113.779 97.2019 118.497 96.6063 122.788 95.4767C119.096 98.7718 114.229 100.777 108.904 100.777ZM128.042 88.2349C125.353 89.5407 122.271 90.5417 118.939 91.2071C115.778 91.839 112.392 92.169 108.906 92.169C105.419 92.169 102.031 91.839 98.8706 91.2071C95.539 90.5417 92.4564 89.5407 89.768 88.2349C89.336 87.2479 88.9795 86.2203 88.7041 85.162C89.5681 85.6038 90.5271 86.0134 91.5784 86.3909C93.0897 86.9333 94.7562 87.3975 96.5414 87.775C98.7419 88.2433 101.121 88.5816 103.607 88.7801C105.329 88.9171 107.105 88.9884 108.906 88.9884C110.706 88.9884 112.48 88.9171 114.203 88.7801C116.688 88.5816 119.068 88.2433 121.268 87.775C123.054 87.3975 124.72 86.9333 126.233 86.3909C127.318 86.0023 128.27 85.5912 129.104 85.1676C128.829 86.2245 128.472 87.2493 128.042 88.2349Z" fill="white"/>
<path d="M167.645 72.6494C166.108 72.6494 164.748 72.9421 163.561 73.5275C162.374 74.1129 161.432 74.9057 160.735 75.9045V73.0885H155.71V91.2276H160.735V81.8647C160.735 80.1085 161.244 78.756 162.264 77.8047C163.282 76.8534 164.56 76.379 166.096 76.379C167.632 76.379 168.825 76.7997 169.593 77.6412C170.361 78.4828 170.745 79.7194 170.745 81.3537V91.2276H175.77V80.9146C175.77 78.2084 175.057 76.1545 173.634 74.752C172.21 73.3507 170.214 72.6494 167.646 72.6494H167.645Z" fill="white"/>
<path d="M194.801 73.8202C193.252 73.0397 191.458 72.6494 189.42 72.6494C187.383 72.6494 185.428 73.058 183.809 73.8751C182.189 74.6922 180.934 75.8265 180.04 77.2766C179.146 78.7279 178.699 80.3914 178.699 82.2684C178.699 84.1454 179.153 85.7552 180.061 87.1688C180.967 88.5835 182.224 89.686 183.83 90.4788C185.435 91.2703 187.285 91.6666 189.378 91.6666C191.053 91.6666 192.547 91.3983 193.86 90.8617C195.171 90.3251 196.281 89.5994 197.189 88.6859C198.095 87.7712 198.731 86.7297 199.094 85.5589H193.985C193.622 86.315 193.05 86.9187 192.269 87.3688C191.487 87.82 190.523 88.0457 189.38 88.0457C188.318 88.0457 187.355 87.8383 186.49 87.4237C185.624 87.009 184.933 86.3992 184.418 85.5955C183.982 84.9162 183.732 84.1234 183.664 83.2185H199.598C199.654 82.877 199.682 82.5599 199.682 82.2672V81.4622C199.682 79.8048 199.256 78.3108 198.404 76.9827C197.552 75.6545 196.353 74.5996 194.802 73.819L194.801 73.8202ZM183.752 80.3658C183.876 79.7036 184.104 79.1243 184.436 78.6291C184.967 77.8376 185.672 77.24 186.55 76.8375C187.43 76.4351 188.385 76.2338 189.419 76.2338C190.843 76.2338 192.043 76.6058 193.02 77.3498C193.998 78.0937 194.529 79.0999 194.613 80.367H183.752V80.3658Z" fill="white"/>
<path d="M216.892 81.8476C216.25 81.4696 215.545 81.1708 214.778 80.9512C214.01 80.7317 213.249 80.5854 212.496 80.5122C212.189 80.4634 211.812 80.4085 211.365 80.3475C210.918 80.2866 210.478 80.2256 210.045 80.1646C209.612 80.1048 209.256 80.05 208.977 79.9999C207.051 79.7072 206.087 79.0621 206.087 78.062C206.087 77.501 206.395 77.0327 207.009 76.6534C207.624 76.2753 208.488 76.0862 209.605 76.0862C210.637 76.0862 211.524 76.2814 212.264 76.6717C213.003 77.0619 213.416 77.6595 213.5 78.4633H218.399C218.176 76.5619 217.296 75.1167 215.761 74.13C214.225 73.1434 212.173 72.6494 209.605 72.6494C207.037 72.6494 205.061 73.1982 203.68 74.2947C202.297 75.3923 201.607 76.7448 201.607 78.3547C201.607 79.428 201.894 80.3292 202.466 81.061C203.037 81.7928 203.799 82.3721 204.748 82.7977C205.696 83.2246 206.716 83.5234 207.805 83.6941C208.28 83.7917 208.846 83.8832 209.501 83.9685C210.155 84.0539 210.709 84.1332 211.155 84.2063C212.328 84.3527 213.144 84.5661 213.605 84.8466C214.066 85.1271 214.296 85.5235 214.296 86.0358C214.296 86.6699 213.954 87.2005 213.27 87.6261C212.585 88.053 211.615 88.2664 210.359 88.2664C209.104 88.2664 208.09 88.0164 207.24 87.5163C206.388 87.0163 205.864 86.3407 205.668 85.4869H200.518C200.769 87.4127 201.775 88.925 203.533 90.0214C205.291 91.119 207.512 91.6666 210.192 91.6666C212.062 91.6666 213.654 91.4105 214.967 90.8983C216.278 90.3861 217.276 89.6787 217.961 88.7774C218.645 87.8761 218.987 86.8273 218.987 85.6321C218.987 84.7052 218.799 83.938 218.422 83.3282C218.044 82.7197 217.535 82.2257 216.894 81.8476H216.892Z" fill="white"/>
<path d="M234.018 76.7809V73.088H228.575V68.334H223.55V73.088H219.99V76.7809H223.55V85.8145C223.55 87.3024 223.787 88.4354 224.262 89.216C224.737 89.9965 225.435 90.5271 226.356 90.8063C227.277 91.0869 228.407 91.2271 229.748 91.2271H233.81V87.4963H231.34C230.586 87.4963 230.013 87.4415 229.623 87.3317C229.232 87.2219 228.96 87.0085 228.807 86.6914C228.653 86.3743 228.576 85.8865 228.576 85.2279V76.7797H234.02L234.018 76.7809Z" fill="white"/>
</svg>
